<svg fill="none" height="54" viewBox="0 0 110 54" width="110" xmlns="http://www.w3.org/2000/svg" xmlns:xlink="http://www.w3.org/1999/xlink"><clipPath id="a"><path d="m0 0h110v53.0791h-110z"/></clipPath><g clip-path="url(#a)" fill="#fff" opacity=".9"><path d="m55.8232 15.6023c.392-1.8817.2352-3.1362-.3136-3.685-.392-1.4113-.8624-2.74411-1.3328-4.15537-.4705-1.64647 0-2.50891 1.0976-2.74412-.1568.0784.2352-.47042-.0784-.39202-1.3328.31362-3.2145.94084-4.077 1.48967-1.3328.78403-1.3328 2.2737-1.176 3.92014.4704 1.3329 1.0192 2.6657 1.4896 3.9202.4705 1.4897.6273 2.1169-.2352 2.8225-.7056.392-1.6464.7841-2.1953 1.0977l-.0784.5488 4.7826-1.7249c1.3329-.3136 2.0385-.8624 2.1169-1.0976z"/><path d="m63.4284 13.7206c.9408-1.0192-.0784-3.84177-.392-4.5474-.4705-1.72488-1.0193-3.44975-1.4897-5.17463-.7056-2.27369.3136-3.371343 1.7249-3.684956l-.1568-.313614c-2.1169.392017-4.3906 1.09765-5.3315 1.88168-1.6465.94084-1.9601 2.82253-1.6465 4.86101.6273 1.72488 1.4897 3.29291 2.1169 4.93941.7057 1.8033.1568 3.3714-.8624 4.1554l-8.7028 3.2145v.5489l11.4469-3.9202c1.6465-.392 2.5873-1.0977 3.293-1.9601z"/><path d="m69.2302 10.2709c-.3136-1.17609-.784-2.27374-1.0976-3.29298-.1568-1.41126.4704-2.43051 1.4112-2.66572l-.0784-.1568c-1.3328.31361-2.9009.62722-3.6065 1.09764-1.0193.62723-1.6465 1.48967-1.0193 3.44975.392 1.01925.7057 2.11691 1.0977 3.21451.4704 1.6465-.1568 2.5089-.7841 2.7442l-16.4647 5.5666v.5488l18.5032-6.1154c1.0193-.1569 1.7249-.8625 2.1953-1.4897.5489-.7056.0784-2.4305-.1568-2.9009z"/><path d="m23.2074 24.3834c2.9793 5.3315 8.938 5.1747 12.2309 3.0578.5489-.3136 1.0193-.7057 1.4113-1.1761.392-.3136.7056-.784 1.0192-1.2544.6273-.9409 1.0193-2.1169 1.2545-3.1362.392-1.6464.784-3.6065 2.0385-5.1746.392-.4704.784-.8624 1.3329-1.2545.6272-.4704 1.176-.392 2.1952-.8624v-1.0192c-1.176-.4705-2.3521-.8625-3.5281-1.1761-1.0977-.3136-2.1953-.6272-3.293-.8624-.1568-.0784-.392-.0784-.6272-.1568-.6272-.0784-1.2544-.0784-1.8033-.1568-9.33-.0784-14.975 3.8417-12.2309 13.1717zm12.2309-9.1732c.7841 0 1.3329.6273 1.3329 1.3329s-.4704 1.3329-1.3329 1.3329c-.7056 0-1.3328-.6273-1.3328-1.3329.0784-.7056.6272-1.3329 1.3328-1.3329z"/><path d="m44.9252 23.2858h-3.7634-1.6465c-.2352 1.0192-.4704 1.568-1.6464 2.9009-.0785.1568-.1569.2352-.3137.392h.3137c1.0192-.0784 2.1952-.3136 3.2929-.7056 1.8817-.6272 3.4497-1.6465 3.7634-2.2737v-.3136s0 .0784 0 0z"/><path d="m37.0064 52.0599h-1.4897-5.8018l-.1568-1.0193h5.9586.7841l-.7841-.9408-.3136-.392h-4.0769l.0784-.8625h3.3713v-1.9601l-3.5281 1.6465-.1569-.6272 3.7634-2.1953v-1.8033l-5.645 3.5282-.3136-1.0193 5.8802-3.7633v-1.4113l-7.6051 4.3906c-5.2531 4.3122-10.9765 3.8418-13.9558-1.5681-1.7249-4.3906 1.3328-8.6244 4.7826-9.9572v1.2544l1.2544.4705.0784-2.4305 1.0193-.3137-.2352 3.293 1.6464.8624.3137-4.5474c3.3713-1.4896 5.5666-2.4305 8.2323-3.0577-9.0948-.6272-11.4469-12.2309-4.469-16.9351-1.176.2352-2.6657.6272-4.077.784h-21.168883l.627223 1.4113 15.52386.1568c-.392.3136-1.4896.6272-1.8033.8624h-13.01492l.70563 1.4113h9.48679c-.7056.392-1.4896.8624-2.11687 1.3328l-6.66429.0784.62722 1.0193 4.86102-.1568c-.47042.392-1.41127 1.0192-1.64648 1.4112h-2.50891l.78404 1.6465c-2.58731 2.1169-4.782609 6.6643-5.25303 11.6821v3.9986c.705631 7.0563 5.25303 13.799 17.0135 14.7398h18.4248 2.4306.3136l-.3136-.2352z"/><path d="m50.1782 50.4918h-3.685v-7.1347c0-.6272-.4704-1.0976-1.176-1.0976-.6273 0-1.0977.4704-1.0977 1.0976v7.7619c0 1.0193.5488 1.3329 1.3329 1.3329h4.6258c.6272 0 1.0976-.3136 1.0976-.9408 0-.6273-.4704-1.0193-1.0976-1.0193z"/><path d="m52.7655 42.181c-.5488 0-1.0192.4705-1.0192 1.0977 0 .5488.4704 1.0192 1.0192 1.0192.6272 0 1.0192-.4704 1.0192-1.0192 0-.6272-.392-1.0977-1.0192-1.0977z"/><path d="m52.7655 45.0035c-.784 0-.9408.4705-.9408 1.0193v5.645c0 .5489.1568 1.0193.9408 1.0193s1.0192-.4704 1.0192-1.0193v-5.645c0-.5488-.2352-1.0193-1.0192-1.0193z"/><path d="m57.9401 46.5716c.6273 0 .9409-.2352.9409-.7056s-.3136-.7056-.9409-.7056h-.5488v-1.2545c0-.6272-.392-1.0192-1.0192-1.0192-.5489 0-.9409.392-.9409 1.0192v1.2545h-.392c-.5488 0-.784.2352-.784.7056s.2352.7056.784.7056h.392v4.3122c0 1.2545.5488 1.8033 2.0385 1.8033.9409 0 1.4113-.3136 1.4113-.8625 0-.4704-.2352-.7056-.7057-.7056h-.3136c-.3136 0-.4704-.1568-.4704-.4704v-4.077z"/><path d="m62.5659 45.0035c-2.3521 0-3.6065 1.6465-3.6065 3.8418 0 2.0385.9408 3.8418 3.6065 3.8418 2.7441 0 3.685-1.8033 3.685-3.8418 0-2.1953-1.2545-3.8418-3.685-3.8418zm0 6.1155c-1.176 0-1.6464-1.0976-1.6464-2.3521 0-1.3329.5488-2.3521 1.6464-2.3521 1.1761 0 1.7249 1.0192 1.7249 2.3521 0 1.2545-.5488 2.3521-1.7249 2.3521z"/><path d="m70.4847 45.0035c-.9409 0-1.4113.8625-1.5681 1.7249h-.0784v-.784c0-.6272-.392-.9409-.8624-.9409-.5489 0-.9409.3137-.9409.9409v5.7234c0 .5489.2352 1.0193 1.0193 1.0193.784 0 1.0192-.4704 1.0192-1.0193v-2.3521c0-1.7248.392-2.2737 1.1761-2.2737h.392c.4704 0 .9408-.3136.9408-1.0192 0-.6272-.4704-1.0193-1.0976-1.0193z"/><path d="m78.1682 47.1204c0-1.4896-1.3328-2.1169-3.2145-2.1169-.0784 0-.1568 0-.2352 0-1.8817.0784-2.901 1.0977-2.901 1.8817 0 .392.3136.7841.7841.7841.784 0 .8624-1.0193 2.1169-1.1761h.2352c.6272 0 1.176.3136 1.176.8624 0 .6273-.3136.7057-.784.7841l-.6272.0784-.6273.0784c-1.4896.1568-2.7441.6272-2.7441 2.3521 0 1.2544 1.0977 2.0385 2.1953 2.0385.4704 0 .8625 0 1.1761-.1568.5488-.1568 1.0976-.4705 1.568-1.0193 0 .6272.3136 1.1761 1.1761 1.1761.4704 0 .8624-.3136.8624-.7841 0-.3136-.1568-.4704-.1568-1.3328zm-2.0385 2.6657c0 .7057-.4704 1.3329-1.4112 1.4897-.0784 0-.1568 0-.3137 0-.6272 0-1.0976-.392-1.0976-.8624 0-.5488.4704-.8625 1.2545-.9409l.1568-.0784.6272-.0784c.2352 0 .6272-.0784.784-.3136z"/><path d="m80.3635 42.2595c-.5488 0-.9408.3136-.9408 1.0192v8.3108c0 .7056.392 1.0192.9408 1.0192.6272 0 1.0193-.3136 1.0193-1.0192v-8.3108c0-.7056-.3921-1.0192-1.0193-1.0192z"/><path d="m94.3193 47.1989h-2.7441c-.5488 0-.8624.3136-.8624.8624 0 .7056.5488.8624 1.0192.8624h1.4897c-.1568 1.2545-1.1761 2.1169-2.3521 2.1169-1.8033 0-2.7442-1.4112-2.7442-3.3713 0-2.5873 1.1761-3.6066 2.7442-3.6066 2.1169 0 1.7248 1.5681 2.8225 1.5681.4704 0 1.0192-.2352 1.0192-1.0193 0-.9408-1.2544-2.4305-3.7633-2.4305-2.9794 0-5.0178 1.8817-5.0178 5.3315 0 2.8225 1.2544 5.253 4.7042 5.253 1.4112 0 2.2737-.5488 2.9009-1.3329.1568.8625.3136 1.2545.9408 1.2545.4704 0 .7841-.3136.7841-.7056v-3.8418c0-.6272-.2353-.9408-.9409-.9408z"/><path d="m102.944 47.1204c0-1.4896-1.333-2.1169-3.2148-2.1169-.0785 0-.1569 0-.2353 0-1.8816.0784-2.9009 1.0977-2.9009 1.8817 0 .392.3136.7841.784.7841.7841 0 .8625-1.0193 2.1169-1.1761h.2353c.6268 0 1.1758.3136 1.1758.8624 0 .6273-.313.7057-.784.7841l-.6271.0784-.6272.0784c-1.4897.1568-2.7441.6272-2.7441 2.3521 0 1.2544 1.0976 2.0385 2.1953 2.0385.4704 0 .8624 0 1.176-.1568.5491-.1568 1.0981-.4705 1.5681-1.0193 0 .6272.314 1.1761 1.176 1.1761.47 0 .863-.3136.863-.7841 0-.3136-.157-.4704-.157-1.3328zm-2.039 2.6657c0 .7057-.47 1.3329-1.4111 1.4897-.0784 0-.1568 0-.3136 0-.6272 0-1.0976-.392-1.0976-.8624 0-.5488.4704-.8625 1.2544-.9409l.1568-.0784.6271-.0784c.157 0 .627-.0784.784-.3136z"/><path d="m107.569 47.9829-.784-.1568c-.627-.1568-1.097-.2352-1.097-.784 0-.3921.47-.6273 1.176-.6273 1.254 0 1.254.9409 2.038.9409.471 0 .784-.392.784-.8625 0-.9408-1.489-1.568-2.979-1.568-1.333 0-2.979.6272-2.979 2.2737 0 1.4112.941 1.8817 2.038 2.1953l1.176.3136c.706.1568 1.176.2352 1.176.784 0 .392-.47.7056-1.176.7056-1.489 0-1.568-1.2544-2.43-1.2544-.549 0-.784.392-.784.8624 0 1.0193 1.489 1.8033 3.293 1.8033 1.489 0 3.057-.7056 3.057-2.4305-.078-1.4113-1.332-1.8817-2.509-2.1953z"/></g></svg>