<svg fill="none" height="58" viewBox="0 0 180 58" width="180" xmlns="http://www.w3.org/2000/svg" xmlns:xlink="http://www.w3.org/1999/xlink"><clipPath id="a"><path d="m0 0h180v57.8532h-180z"/></clipPath><g clip-path="url(#a)" fill="#fff" opacity=".9"><path d="m149.336 7.20197c-17.858-4.10844-42.873-6.370061-70.4356-6.370061-37.8333 0-60.3598 1.405331-77.75295 4.853781-.210749.04213-.349397.24526-.308357.45812.038821.21066.239587.35052.454767.31285 14.24424-2.56443 39.06334-4.03411 68.09084-4.03411 1.6094 0 3.2133.00626 4.8128.01569 27.5165.15627 50.8245 2.41915 67.4035 6.54532 14.448 3.59484 22.735 8.44204 22.735 13.29694 0 3.6792-1.949 7.5513-16.088 10.9566-15.047 3.6226-41.819 6.3634-84.2495 8.6239-.213.0126-.3771.1896-.3716.4015.0066.2129.1797.3827.3926.3827l21.3264-.0343c32.3361-1.4286 55.1661-3.8255 69.7971-7.3272 13.795-3.301 20.501-7.6878 20.501-13.409 0-5.5582-9.343-10.7691-26.308-14.67124"/><path d="m12.2787 17.7898c.1209-.518.345-1.4719-.4104-1.4719-.9561 0-1.1347.6023-1.92888 3.9975-.81747 3.4962-.84409 3.9986.05879 3.9986.58789 0 .95279-.5357 1.30109-2.0231l.2163-.9218h3.5682l-.1752.7532c-.6533 2.7941-2.2617 4.3991-5.48273 4.3991-4.72847 0-4.16833-2.3914-3.27655-6.206.86517-3.6969 1.45193-6.2059 6.18038-6.2059 3.9199 0 3.9288 1.9244 3.4951 3.7801l-.2041.8707h-3.5694z"/><path d="m19.9013 24.4145c.6444 0 .9195-.5524 1.4131-2.6599.4936-2.1074.4747-2.6598-.1697-2.6598-.6434 0-.9196.5524-1.412 2.6598-.4936 2.1075-.4759 2.6599.1685 2.6599zm4.9824-2.6599c-.5978 2.5589-1.5384 4.7684-5.476 4.7684-3.9377 0-3.8445-2.2095-3.2455-4.7684.5945-2.5422 1.534-4.7506 5.4716-4.7506 3.9387 0 3.8455 2.2084 3.2499 4.7506z"/><path d="m31.4004 20.2992c.1598-.6855-.0311-.8874-.4924-.8874-.4781 0-.8031.3694-.9251.8874l-1.4009 5.9885h-3.5683l2.1164-9.0499h3.4595l-.2429 1.0371h.0377c.7399-.8862 1.7326-1.2711 2.9272-1.2711 1.27 0 2.2816.6355 1.8934 2.2916l-1.6361 6.9923h-3.5694z"/><path d="m38.545 23.3772c-.0532.3849-.1009.6689-.0232.8874.0787.2176.2673.3505.6721.3505.6256 0 .8619-.5357.9007-.7021.1009-.4359.0233-.5691-1.168-.9861-2.1285-.7376-3.0447-1.2212-2.6565-2.8784.426-1.8234 1.8524-3.0447 4.612-3.0447 3.9754 0 3.5128 1.9744 3.3176 2.8096h-3.0181c.0555-.2339.081-.5014.0057-.6522-.0899-.1663-.2729-.2506-.6589-.2506-.3682 0-.7809.1176-.8995.62-.101.4337.3383.6012 2.3304 1.2878.9195.3173 2.032.7521 1.5817 2.6754-.5247 2.2428-2.5856 3.0292-4.7928 3.0292-2.5944 0-3.8667-.6201-3.3309-3.1457z"/><path d="m49.4326 25.2509h-.0377c-.7409.8874-1.7314 1.2711-2.9282 1.2711-1.269 0-2.2805-.6344-1.8923-2.2915l1.636-6.9923h3.5694l-1.4009 5.9885c-.1597.6855.0311.8873.4914.8873.478 0 .8041-.3682.9261-.8873l1.4009-5.9885h3.5694l-2.1174 9.0498h-3.4585z"/><path d="m65.5108 20.2992c.1598-.6855-.0321-.8874-.4924-.8874-.4781 0-.8031.3694-.9251.8874l-1.4009 5.9885h-3.5683l1.4009-5.9885c.1598-.6855-.0332-.8874-.4924-.8874-.4781 0-.8042.3694-.9251.8874l-1.4009 5.9885h-3.5705l2.1175-9.0499h3.4595l-.2429 1.0371h.0366c.742-.8862 1.7337-1.2711 2.9294-1.2711.9572 0 1.7724.3682 2.0764 1.2711.722-.8862 1.7137-1.2711 2.9094-1.2711 1.27 0 2.2816.6355 1.8933 2.2916l-1.636 6.9923h-3.5694z"/><path d="m75.4596 20.0482c.2074-.8873.0455-1.1369-.5258-1.1369-.5146 0-.813.2497-1.0204 1.1369l-.1253.5358h1.5462zm-2.3482 3.4297c-.1131.4847-.2296 1.1369.5069 1.1369.6988 0 .9096-.5857 1.1248-1.5052h3.2388c-.2895 1.2379-.8574 2.0908-1.6815 2.6266-.8242.5346-1.8945.7864-3.1091.7864-3.9387 0-3.8455-2.2084-3.2466-4.7684.5945-2.5423 1.5351-4.7507 5.4727-4.7507 4.0674 0 3.5628 2.3094 2.9028 5.1356l-.0366.1509h-4.8937z"/><path d="m80.6248 17.2379h3.4595l-.3128 1.3387h.0366c.5524-.8707 1.5085-1.5739 2.4835-1.5739.3871 0 .4892.0343.5956.051l-.6932 2.9604c-.1242-.0157-.2684-.0321-.4293-.05-.1619-.0157-.3094-.0157-.6766-.0157-1.2334 0-1.6649.5845-1.9144 1.6549l-1.0959 4.684h-3.5705z"/><path d="m89.4837 23.3772c-.0532.3849-.1009.6689-.0233.8874.0788.2176.2674.3505.6722.3505.6256 0 .8619-.5346.9007-.7021.1009-.4359.0223-.5691-1.168-.9861-2.1285-.7376-3.0447-1.2212-2.6565-2.8784.4259-1.8234 1.8523-3.0447 4.612-3.0447 3.9753 0 3.5128 1.9744 3.3187 2.8096h-3.0193c.0555-.2339.081-.5014.0057-.6522-.0899-.1663-.2728-.2506-.6588-.2506-.3683 0-.7809.1176-.8996.62-.1009.4337.3383.6012 2.3304 1.2878.9195.3173 2.032.7521 1.5817 2.6754-.5246 2.2428-2.5855 3.0292-4.7928 3.0292-2.5944 0-3.8666-.6201-3.3309-3.1457z"/><path d="m101.06 14.3437h7.913l-.635 2.7109h-4.232l-.431 1.839h3.957l-.61 2.6099h-3.957l-.485 2.0742h4.397l-.633 2.7098h-8.0783z"/><path d="m114.123 20.2992c.159-.6855-.032-.8874-.492-.8874-.479 0-.804.3694-.926.8874l-1.401 5.9885h-3.568l2.116-9.0499h3.46l-.243 1.0371h.038c.739-.8862 1.732-1.2711 2.927-1.2711 1.271 0 2.281.6355 1.893 2.2916l-1.636 6.9923h-3.569z"/><path d="m124.052 20.0482c.207-.8873.045-1.1369-.526-1.1369-.515 0-.813.2497-1.019 1.1369l-.127.5358h1.546zm-2.348 3.4297c-.114.4847-.229 1.1369.506 1.1369.699 0 .91-.5857 1.125-1.5052h3.239c-.29 1.2379-.857 2.0908-1.682 2.6266-.824.5346-1.894.7864-3.109.7864-3.938 0-3.844-2.2084-3.246-4.7684.595-2.5423 1.535-4.7507 5.473-4.7507 4.067 0 3.562 2.3094 2.902 5.1356l-.036.1509h-4.894z"/><path d="m129.206 17.2379h3.46l-.313 1.3387h.036c.553-.8707 1.509-1.5739 2.484-1.5739.387 0 .489.0343.596.051l-.694 2.9604c-.124-.0157-.268-.0321-.428-.05-.163-.0157-.31-.0157-.678-.0157-1.233 0-1.664.5845-1.914 1.6549l-1.096 4.684h-3.57z"/><path d="m139.907 19.4125c-.699 0-.963.6522-1.358 2.3427-.293 1.2544-.339 1.9233.342 1.9233.717 0 .985-.6689 1.278-1.9233.394-1.6905.437-2.3427-.262-2.3427zm1.428-2.1751h3.405l-2.03 8.6827c-.616 2.6266-2.575 3.4451-5.187 3.4451-3.734 0-3.596-1.5384-3.437-2.6076h3.239c-.057.2329-.021.4004.047.5003.111.1509.284.2018.543.2018.606 0 .915-.2173 1.059-.8374l.419-1.7903h-.036c-.649.8874-1.559 1.1547-2.534 1.1547-2.356 0-2.297-2.2916-1.804-4.399.477-2.0421 1.274-4.5843 4.162-4.5843 1.124 0 1.681.4526 1.855 1.3554h.037z"/><path d="m145.759 17.2379h3.681l-.382 5.4861h.037l2.093-5.4861h3.57l-4.656 8.9667c-1.129 2.1574-1.776 3.027-4.461 3.027-.774 0-1.236-.0667-1.659-.1497l.493-2.1074c.305.0333.614.0499.927.0499.294 0 .535-.0833.703-.2505.164-.151.258-.3184.298-.4859z"/><path d="m105.857 52.6683c-.648 2.2683-2.049 4.3524-4.8 4.3524-3.5831 0-3.3424-3.21-2.6658-6.2347.6755-3.0248 1.9748-6.2348 5.4498-6.2348 2.577 0 3.345 1.3776 2.89 3.7313h-1.624c.27-1.3609.069-2.5211-1.536-2.5211-2.153-.0011-2.938 2.2516-3.557 5.0246-.619 2.7729-.8397 5.0246 1.312 5.0246 1.889 0 2.528-1.6804 2.907-3.1423z"/><path d="m112.085 52.2818c.436-1.9489.51-3.6293-1.077-3.6293-1.5 0-2.193 1.6804-2.628 3.6293-.437 1.9488-.511 3.6303 1.006 3.6303 1.571 0 2.263-1.6815 2.699-3.6303zm-.795-4.7396c2.735 0 2.913 2.2029 2.346 4.7396-.565 2.5367-1.745 4.7395-4.463 4.7395-2.735 0-2.913-2.2028-2.347-4.7395.568-2.5367 1.747-4.7396 4.464-4.7396z"/><path d="m120.291 56.7856h-1.411l.236-1.0582h-.035c-.573.823-1.665 1.2933-2.584 1.2933-2.488 0-2.086-1.798-1.849-2.8573l1.427-6.3845h1.482l-1.389 6.2181c-.154.6877-.353 1.8147.988 1.8147.793 0 1.983-.5047 2.275-1.8147l1.39-6.2181h1.482z"/><path d="m124.017 47.7781h1.411l-.237 1.0592h.037c.571-.8241 1.665-1.2944 2.582-1.2944 2.489 0 2.085 1.798 1.849 2.8573l-1.426 6.3856h-1.482l1.39-6.2193c.153-.6887.352-1.8145-.99-1.8145-.793 0-1.983.5046-2.275 1.8145l-1.39 6.2193h-1.481z"/><path d="m133.163 45.1566h1.481l-.585 2.621h1.64l-.247 1.1103h-1.641l-1.291 5.78c-.162.7221-.032 1.0083.746 1.0083.317 0 .501-.0333.663-.05l-.258 1.159c-.202.0343-.606.101-1.223.101-1.535 0-1.77-.6045-1.508-1.7814l1.388-6.217h-1.375l.247-1.1103h1.377z"/><path d="m143.142 52.2818c.436-1.9489.511-3.6293-1.077-3.6293-1.499 0-2.192 1.6804-2.627 3.6293-.436 1.9488-.512 3.6303 1.006 3.6303 1.57 0 2.263-1.6815 2.698-3.6303zm-.794-4.7396c2.736 0 2.913 2.2029 2.346 4.7396-.565 2.5367-1.746 4.7395-4.463 4.7395-2.735 0-2.913-2.2028-2.347-4.7395.568-2.5367 1.747-4.7396 4.464-4.7396z"/><path d="m147.132 47.7781h1.411l-.236 1.0592h.036c.572-.8241 1.665-1.2944 2.583-1.2944 2.487 0 2.085 1.798 1.849 2.8573l-1.427 6.3856h-1.482l1.39-6.2193c.153-.6887.353-1.8145-.989-1.8145-.793 0-1.984.5046-2.275 1.8145l-1.39 6.2193h-1.482z"/><path d="m158.654 44.7868h1.552l-1.883 8.4353c-.395 1.7659.022 2.5889 1.557 2.5889 1.658 0 2.355-.9073 2.731-2.5889l1.883-8.4353h1.553l-1.884 8.4353c-.515 2.3027-2.083 3.798-4.554 3.798-2.522 0-3.39-1.3267-2.839-3.798z"/><path d="m170.649 50.4164c.256-1.1424.076-1.7647-1-1.7647-.477 0-1.561.1176-1.843 1.3787-.236 1.0582.884 1.2601 1.964 1.6294 1.066.3694 2.143.7565 1.746 2.5379-.424 1.8989-1.92 2.8229-3.684 2.8229-3.211 0-2.739-2.2683-2.533-3.1923h1.482c-.244 1.0915-.148 2.0831 1.3 2.0831.476 0 1.618-.2185 1.904-1.4952.27-1.2112-.838-1.463-1.903-1.8324-1.064-.3694-2.174-.6888-1.758-2.5534.375-1.6804 1.931-2.4879 3.573-2.4879 2.753 0 2.453 1.8147 2.235 2.8739z"/><path d="m176.149 47.3023c.475 0 .893-.0221.893-.5369 0-.4514-.38-.5069-.743-.5069h-.711v1.0438zm-1.083-1.5174h1.328c.759 0 1.169.3238 1.169 1.0038 0 .6078-.403.8929-.924.9484l.98 1.4774h-.522l-.948-1.4375h-.561v1.4375h-.522zm3.581 1.6992c0-1.3599-1.075-2.459-2.412-2.459-1.335 0-2.411 1.0991-2.411 2.459s1.076 2.458 2.411 2.458c1.337 0 2.412-1.0981 2.412-2.458zm-2.412-2.9326c1.621 0 2.933 1.3121 2.933 2.9326 0 1.6194-1.312 2.9327-2.933 2.9327-1.62 0-2.931-1.3133-2.931-2.9327 0-1.6205 1.311-2.9326 2.931-2.9326z"/></g></svg>