<svg fill="none" height="46" viewBox="0 0 196 46" width="196" xmlns="http://www.w3.org/2000/svg" xmlns:xlink="http://www.w3.org/1999/xlink"><linearGradient id="a" gradientUnits="userSpaceOnUse" x1="13.4664" x2="13.4664" y1="33.6595" y2="-2.43529"><stop offset="0"/><stop offset="1" stop-color="#fff" stop-opacity="0"/></linearGradient><g opacity=".9"><path d="m15.3123 33.8996h-7.1475l-8.1648-22.3907h6.4792l5.3256 12.8184h.0672l12.6933-23.727202h2.367z" fill="url(#a)"/><g fill="#fff"><path d="m23.9699 11.5742h19.0026v4.6574h-12.7904v3.9088h11.6891v4.5042h-11.6891v4.2523h13.1227v5.0027h-19.3349z"/><path d="m50.0397 26.3956c.1344 2.6245 1.8704 3.4701 4.508 3.4701 1.8704 0 3.808-.6253 3.808-2.2829 0-1.9712-3.4066-2.3446-6.845-3.2518-3.4067-.9072-6.9814-2.3464-6.9814-6.44 0-4.8794 5.2435-6.7853 9.7198-6.7853 4.7413 0 9.5162 2.156 9.5498 7.1904h-6.2122c.1008-2.0328-1.9358-2.688-3.8398-2.688-1.3346 0-3.0053.4368-3.0053 1.9059 0 1.721 3.4403 2.0328 6.9123 2.94 3.4402.9053 6.9141 2.408 6.9141 6.44 0 5.6597-5.1427 7.4741-10.3861 7.4741-5.4787 0-10.319-2.2512-10.3526-7.9725z"/><path d="m84.7261 16.5769h-7.112v17.3208h-6.2122v-17.3208h-7.1139v-5.0045h20.4381z"/><path d="m89.6317 25.5817h5.4096l-2.6394-7.8176h-.0654zm-.4013-14.0075h6.3112l8.9174 22.3254h-6.4795l-1.4691-4.0022h-8.316l-1.5027 4.0022h-6.3784z"/><path d="m123.189 14.5721c-.652-.3155-1.602-.4723-2.852-.4723h-6.457l-1.761 7.7542h6.457c1.456 0 2.703-.2894 3.741-.868 1.038-.5787 1.725-1.5998 2.063-3.0614.369-1.6464-.028-2.7645-1.191-3.3525zm-11.951-3.0987h10.779c2.129 0 3.72.5619 4.767 1.6875 1.049 1.1237 1.34 2.7048.874 4.7395-.392 1.7509-1.32 3.2741-2.78 4.5733-1.463 1.2973-3.399 1.9451-5.815 1.9451h-7.532l-2.135 9.4789h-3.244z"/><path d="m130.734 11.4734h3.244l-4.484 19.7531h12.13l-.603 2.6712h-15.376z"/><path d="m149.535 11.4734-3.145 13.8619c-.37 1.6277-.355 2.9811.048 4.06.597 1.6296 2.042 2.4416 4.336 2.4416 2.75 0 4.82-.8792 6.213-2.6395.75-.9576 1.308-2.2437 1.678-3.8621l3.147-13.8619h3.295l-2.871 12.5944c-.62 2.759-1.494 4.8795-2.625 6.3654-2.076 2.7066-5.135 4.0618-9.178 4.0618s-6.479-1.3552-7.304-4.0618c-.458-1.4859-.376-3.6064.244-6.3654l2.869-12.5944z"/><path d="m166.324 26.6625c-.207 1.2731-.12 2.3053.259 3.1005.739 1.4859 2.468 2.227 5.186 2.227 1.217 0 2.365-.1624 3.44-.4872 2.076-.631 3.298-1.7622 3.668-3.3899.282-1.2208.071-2.0907-.636-2.6096-.706-.5077-1.895-.952-3.57-1.3272l-3.098-.6888c-2.011-.448-3.396-.9408-4.157-1.4803-1.305-.9352-1.744-2.3352-1.322-4.1981.457-2.016 1.577-3.668 3.36-4.9616 1.783-1.2917 4.038-1.9395 6.765-1.9395 2.511 0 4.515.5694 6.009 1.7024 1.493 1.1368 1.96 2.9494 1.394 5.4432h-3.05c.11-1.2002-.026-2.1224-.407-2.7626-.728-1.1704-2.277-1.7566-4.646-1.7566-1.913 0-3.373.3771-4.377 1.1294-1.007.7541-1.623 1.6296-1.852 2.6264-.248 1.0994.056 1.9021.915 2.4117.563.3267 1.922.7336 4.074 1.2208l3.196.7187c1.544.3453 2.684.8176 3.424 1.4186 1.293 1.0491 1.713 2.5704 1.256 4.5659-.566 2.4827-1.936 4.2579-4.109 5.3275-2.174 1.0677-4.537 1.6034-7.091 1.6034-2.979 0-5.148-.713-6.507-2.1373-1.359-1.4149-1.749-3.3339-1.173-5.7568z"/><path d="m195.668 17.4934h-.825v-3.9088h-.025l-1.639 3.9088h-.52l-1.641-3.9088h-.024v3.9088h-.825v-4.6835h1.274l1.494 3.5579 1.469-3.5579h1.262zm-6.519-4.0581h-1.566v4.0581h-.825v-4.0581h-1.566v-.6254h3.957z"/><path d="m64.1368 41.8068h1.8331c1.0565.0093 1.54-.4256 1.54-1.2096 0-.7859-.4835-1.2115-1.54-1.2115h-1.8331zm-.9371-3.1584h3.0875c1.4 0 2.1597.7298 2.1597 1.9488 0 1.2189-.7597 1.9581-2.1597 1.9488h-2.1504v2.6954h-.9371z"/><path d="m72.5741 44.6609c1.7155 0 2.436-1.3869 2.436-2.716s-.7205-2.7141-2.436-2.7141c-1.7173 0-2.4378 1.385-2.4378 2.7141s.7205 2.716 2.4378 2.716zm0-6.1693c2.24 0 3.3731 1.6613 3.3731 3.4533s-1.1331 3.4552-3.3731 3.4552-3.3749-1.6632-3.3749-3.4552 1.1349-3.4533 3.3749-3.4533z"/><path d="m83.4587 45.2414h-.9763l-1.6091-5.5402h-.0186l-1.6278 5.5402h-.9762l-1.807-6.593h.9576l1.3814 5.4861h.0205l1.5773-5.4861h1.0155l1.5587 5.4861h.0205l1.4299-5.4861h.937z"/><path d="m86.2344 38.6484h4.8645v.7392h-3.9256v2.0962h3.6587v.7392h-3.6587v2.2811h3.9536v.7392h-4.8925z"/><path d="m95.1552 41.6873c.8773 0 1.6277-.2128 1.6277-1.1741 0-.6459-.3752-1.1256-1.2525-1.1256h-2.3277v2.2997zm-2.8896-3.0389h3.3133c1.3216 0 2.1411.6738 2.1411 1.7266 0 .7934-.3752 1.4504-1.2227 1.6726v.0186c.8195.1475.9856.7112 1.0547 1.3571.0597.6459.0205 1.3664.4144 1.8181h-1.0453c-.267-.2669-.1176-.9781-.2558-1.624-.0989-.6458-.2669-1.1928-1.1741-1.1928h-2.2885v2.8168h-.9371z"/><path d="m99.0267 38.6484h4.8623v.7392h-3.9253v2.0962h3.6583v.7392h-3.6583v2.2811h3.9533v.7392h-4.8903z"/><path d="m105.993 44.5041h1.559c.64 0 2.367-.1661 2.367-2.5965 0-1.5699-.62-2.5219-2.347-2.5219h-1.579zm-.937-5.8557h2.417c2.169 0 3.383 1.0154 3.383 3.1416 0 2.2045-1.036 3.4514-3.383 3.4514h-2.417z"/><path d="m115.685 44.5041h2.348c.808 0 1.322-.4629 1.322-1.1816 0-.8587-.74-1.1013-1.529-1.1013h-2.141zm0-3.0203h1.874c1.066 0 1.501-.3602 1.501-1.0528 0-.9146-.691-1.0453-1.501-1.0453h-1.874zm-.937-2.8354h2.555c.622 0 1.441 0 1.863.2408.465.2576.831.728.831 1.3757 0 .7019-.396 1.2283-1.046 1.4765v.0187c.867.1661 1.341.7765 1.341 1.5885 0 .9707-.739 1.8928-2.141 1.8928h-3.403z"/><path d="m124.419 42.546v2.6954h-.939v-2.6954l-2.722-3.8976h1.115l2.113 3.1416 2.061-3.1416h1.064z"/><path d="m132.087 40.3377h-1.973v-1.6893h6.115v1.6893h-1.971v4.9037h-2.171z"/><path d="m137.032 38.6484h2.171v2.2904h2.031v-2.2904h2.171v6.5949h-2.171v-2.6152h-2.031v2.6152h-2.171z"/><path d="m144.523 38.6484h5.83v1.6893h-3.659v.8232h3.324v1.5699h-3.324v.8213h3.767v1.6912h-5.938z"/><path d="m154.758 38.6484h3.087l1.006 3.8789h.019l1.008-3.8789h3.088v6.5949h-2.054v-4.2299h-.018l-1.223 4.2299h-1.618l-1.223-4.2299h-.021v4.2299h-2.051z"/><path d="m164.084 38.6484h2.171v4.9037h3.117v1.6912h-5.288z"/><path d="m172.028 43.0257c0 .1661.03.3136.081.4331.156.3976.629.4816 1.034.4816.354 0 .898-.1102.898-.6011 0-.3416-.307-.4331-1.52-.756-1.114-.2968-2.387-.5824-2.387-1.9115 0-1.525 1.392-2.1802 2.841-2.1802 1.528 0 2.88.545 2.94 2.1504h-2.052c.039-.2483-.08-.4144-.257-.5246-.178-.1213-.424-.1661-.641-.1661-.296 0-.78.0728-.78.4424.041.4704 1.047.5731 2.042.8307.997.2594 1.983.6944 1.983 1.904 0 1.7173-1.686 2.2717-3.254 2.2717-.799 0-3.078-.2688-3.099-2.3744z"/><path d="m181.651 40.5411h-.392v-1.8517h-.011l-.775 1.8517h-.248l-.777-1.8517h-.009v1.8517h-.392v-2.2176h.603l.707 1.6838.697-1.6838h.597zm-3.088-1.9226h-.741v1.9226h-.39v-1.9226h-.741v-.295h1.872z"/><path d="m15.3123 33.8977-8.8331-22.3888h-6.4792l8.1648 22.3888z"/></g></g></svg>