<svg fill="none" height="73" viewBox="0 0 196 73" width="196" xmlns="http://www.w3.org/2000/svg"><g fill="#fff" opacity=".9"><path d="m88.1191 15.3273c0-.4256-.2831-.6383-.9915-.6383h-.496v1.2771h.6373c.6372 0 .8497-.2128.8497-.6383"/><path d="m141.235 15.0435-.779 2.0574h1.7z"/><path d="m93.9265 18.0936c.2215.0169.4441-.0132.6532-.0882.209-.0751.4-.1934.5604-.3473.1604-.154.2866-.34.3704-.546.0838-.2061.1233-.4275.1159-.6498-.0077-.4464-.1901-.8719-.508-1.1849s-.7459-.4883-1.1916-.4883-.8737.1753-1.1916.4883-.5003.7385-.508 1.1849c-.0074.2223.0321.4437.1159.6498.0838.206.21.392.3704.546.1604.1539.3514.2722.5604.3473.2091.075.4317.1051.6532.0882"/><path d="m135.641 15.3273c0-.4256-.283-.6383-.779-.6383h-.709v1.2771h.709c.425 0 .779-.142.779-.6383"/><path d="m163.048 15.3273c0-.4256-.283-.6383-.779-.6383h-.708v1.2771h.708c.425 0 .779-.142.779-.6383"/><path d="m155.541 18.0936c.222.0168.444-.0132.653-.0883.209-.075.4-.1934.561-.3473.16-.1539.286-.34.37-.546s.123-.4274.116-.6498c.008-.2226-.032-.4443-.115-.6506-.084-.2063-.21-.3927-.37-.5469-.161-.1542-.352-.2728-.561-.348s-.432-.1053-.654-.0884c-.223-.0231-.448.0027-.66.0756-.212.073-.406.1913-.568.3468s-.288.3444-.369.5536c-.082.2092-.117.4337-.103.6579-.014.2239.022.4481.103.657.082.2088.208.3974.37.5526s.355.2733.567.3461c.212.0729.437.0987.66.0757"/><path d="m60.1447 21.4988 109.7023-.0707v-10.4281l-109.7023.0708zm100.0713-7.7323h2.408c.22-.0255.444-.0042.656.0623s.408.1768.575.3239c.167.147.301.3274.394.5296s.142.4217.145.6443c.004.2923-.082.5787-.247.82-.165.2412-.4.4256-.674.5278.567.2836.709.9224 1.488 2.5537h-1.488c-.566-1.1351-.779-2.1989-1.487-2.1989h-.425v2.1989h-1.345zm-4.675-.0708c.383-.029.769.0206 1.133.1457.363.1251.698.3231.983.582.285.2588.514.5731.674.9236s.247.73.255 1.1152c-.084.7592-.445 1.4607-1.014 1.9701-.568.5094-1.304.7911-2.067.7911-.762 0-1.498-.2817-2.067-.7911-.568-.5094-.929-1.2109-1.014-1.9701 0-1.3479 1.063-2.7665 3.117-2.7665zm-9.844.0708h2.407c1.982 0 2.975 1.2058 2.975 2.6977 0 1.5606-.992 2.6978-3.116 2.6978h-2.196v-5.3955zm-5.241 0h1.557l2.408 5.3914h-1.417l-.425-1.0638h-2.406l-.425 1.0638h-1.416zm-7.578 0h2.408c.22-.0256.444-.0045.656.062.212.0664.408.1767.575.3238.167.147.302.3275.395.5298.093.2022.142.4218.145.6445.004.2923-.082.5787-.247.82-.165.2412-.4.4256-.674.5278.567.2836.709.9224 1.488 2.5537h-1.488c-.566-1.1351-.779-2.1989-1.487-2.1989h-.356v2.1989h-1.346v-5.4616zm-7.224 0h1.346v3.1212c-.003.1715.031.3416.1.4988.068.1571.17.2977.297.412.128.1144.279.2.442.2509.164.0509.336.0659.506.0442.182.0188.365-.0031.537-.0642.171-.0611.328-.1598.456-.2889.129-.1291.228-.2854.289-.4575s.083-.3557.064-.5373v-2.9792h1.345v3.0505c0 1.7733-1.204 2.4116-2.693 2.4116-1.558 0-2.694-.7095-2.694-2.4116v-3.0505zm-4.036-.0687c.727.0175 1.446.1615 2.125.4255v1.2033c-.634-.3309-1.34-.5015-2.054-.4968-1.488 0-1.982.9223-1.982 1.7026 0 .9931.779 1.5606 1.841 1.5606.321.0249.643-.0494.921-.2127v-.6378h-.779v-.9931h2.124v2.1989c-.653.4862-1.452.7363-2.266.7096-1.912 0-3.187-1.1351-3.187-2.7665.071-1.5606 1.346-2.6977 3.258-2.6977zm-8.638.0666h3.895v.9951h-2.549v1.1351h2.478v.9931h-2.478v1.2771h2.62v.9931h-3.964zm-3.685-.0666c.636.0205 1.261.165 1.841.4255v1.0638c-.525-.2836-1.104-.4529-1.7-.4968-.496 0-.779.142-.779.4256 0 .7803 2.762.5675 2.762 2.4829 0 1.0638-.849 1.6314-2.054 1.6314-.672.0257-1.337-.1471-1.912-.4968v-1.2074c.529.4155 1.17.6626 1.841.7096.496 0 .779-.2128.779-.4968 0-.9223-2.762-.5676-2.762-2.483-.071-.993.779-1.5606 1.982-1.5606zm-7.015.0682h1.558l2.408 5.3914h-1.416l-.425-1.0638h-2.408l-.425 1.0638h-1.413zm-8.3534-.0682c.3836-.029.7691.0205 1.1329.1456.3639.1251.6985.3231.9834.582.285.2588.5143.5731.6741.9236.1597.3506.2465.73.2551 1.1152-.0844.7593-.4454 1.4607-1.0138 1.9701-.5684.5095-1.3043.7911-2.067.7911-.7628 0-1.4987-.2816-2.0671-.7911-.5684-.5094-.9293-1.2108-1.0138-1.9701 0-1.3478 1.0621-2.7664 3.1162-2.7664zm-8.6391.0707h2.4078c.225-.0183.4513.0104.6647.0841s.4093.1909.5752.3442c.166.1533.2984.3394.389.5465s.1373.4307.1373.6568-.0467.4498-.1373.6569-.223.3932-.389.5465c-.1659.1533-.3618.2705-.5752.3442s-.4397.1023-.6647.0841h-1.0621v2.1989h-1.3467zm-7.2238 0h1.3456v3.1212c-.0027.1716.0314.3417.1.4988.0686.1572.1702.2977.2979.4121.1276.1143.2783.1999.4418.2508.1636.0509.3361.066.506.0442.1813.0185.3645-.0038.5362-.0651.1716-.0614.3275-.1604.4561-.2897.1287-.1293.2269-.2857.2876-.4579.0607-.1721.0823-.3556.0632-.5372v-2.9792h1.3467v3.0505c0 1.7733-1.2039 2.4116-2.6933 2.4116-1.5581 0-2.6934-.7095-2.6934-2.4116zm-5.7364 0h2.4078c.2205-.0253.4439-.004.6557.0625s.4073.1767.574.3234c.1667.1468.3009.327.3939.5288.0929.2019.1426.4211.1459.6434.0039.2923-.0825.5787-.2474.82-.1648.2412-.4.4256-.6734.5278.5666.2836.7084.9224 1.4874 2.5537h-1.4874c-.5667-1.1351-.7791-2.1989-1.4875-2.1989h-.3557v2.1989h-1.4148zm-4.038-.0707c.7275.0175 1.4464.1615 2.1247.4255v1.2033c-.6114-.3221-1.2911-.4925-1.9819-.4968-1.4874 0-1.9819.9223-1.9819 1.7026 0 .9931.779 1.5606 1.8411 1.5606.3215.0249.6428-.0494.9209-.2127v-.6378h-.7816v-.9931h2.1247v2.1989c-.6538.4862-1.4527.7363-2.2665.7096-1.9123 0-3.1868-1.1351-3.1868-2.7665-.0707-1.5606 1.2039-2.6977 3.1868-2.6977"/><path d="m149.663 16.4624c.019-.2347-.014-.4707-.097-.6909s-.214-.4191-.384-.5822c-.17-.163-.373-.2862-.596-.3605s-.46-.0979-.694-.0691h-.849v3.4074h.849c.233.0239.468-.0031.688-.0792.221-.0761.423-.1994.591-.3614.169-.1621.3-.3589.385-.5768.085-.218.121-.4518.107-.6853"/><path d="m75.0883 15.3273c0-.4256-.2831-.6383-.7791-.6383h-.7084v1.2771h.7084c.4249 0 .7791-.142.7791-.6383"/><path d="m103.063 15.0435-.779 2.0574h1.7z"/><path d="m114.536 36.5376c.065.0016.131-.0101.192-.0345.06-.0244.116-.061.162-.1074.047-.0465.083-.1019.107-.1629.025-.061.036-.1263.035-.192v-6.242c.002-.0665-.009-.1328-.033-.1949s-.06-.1188-.107-.1666c-.046-.0478-.101-.0858-.162-.1118-.062-.026-.127-.0394-.194-.0394-.066 0-.132.0134-.193.0394-.062.026-.117.064-.163.1118s-.083.1045-.107.1666c-.023.0621-.035.1284-.033.1949v6.242c.02.1247.079.24.168.3292.089.0893.204.1479.328.1676"/><path d="m148.247 36.5376c.065.0016.13-.0101.191-.0345s.117-.061.163-.1074c.046-.0465.083-.1019.107-.1629.025-.061.036-.1263.035-.192v-6.242c.002-.0665-.009-.1328-.033-.1949s-.061-.1188-.107-.1666-.101-.0858-.163-.1118c-.061-.026-.127-.0394-.193-.0394-.067 0-.132.0134-.194.0394-.061.026-.116.064-.162.1118-.047.0478-.083.1045-.107.1666s-.035.1284-.033.1949v6.242c-.001.0657.01.131.035.192.024.061.061.1164.107.1629.046.0464.102.083.162.1074.061.0244.127.0361.192.0345"/><path d="m159.508 36.4663c.065.0016.13-.0102.191-.0346s.116-.0609.163-.1073c.046-.0465.083-.1019.107-.1629s.036-.1263.034-.192v-1.6309c.003-.0665-.009-.1328-.033-.1949s-.06-.1188-.106-.1666-.102-.0858-.163-.1118-.127-.0394-.193-.0394c-.067 0-.132.0134-.194.0394-.061.026-.116.064-.163.1118-.046.0478-.082.1045-.106.1666s-.035.1284-.033.1949v1.6314c-.002.0657.01.131.035.192.024.061.06.1164.107.1629.046.0464.101.083.162.1074.061.0243.126.0361.192.0345"/><path d="m103.417 31.9972c.065.0016.131-.0101.192-.0345.06-.0244.116-.061.162-.1074.047-.0465.083-.1019.107-.1629.025-.061.036-.1263.035-.192v-1.6308c-.004-.129-.058-.2512-.151-.341-.092-.0897-.216-.1399-.345-.1399s-.252.0502-.345.1399c-.092.0898-.146.212-.151.341v1.6313c-.001.0657.011.131.035.192s.061.1164.107.1629.102.083.163.1074.126.0361.191.0345"/><path d="m77.992 36.4665c.0656.0016.1308-.0102.1917-.0346s.1162-.0609.1626-.1074c.0464-.0464.0829-.1018.1072-.1628.0244-.061.0361-.1263.0345-.192v-1.6309c-.0041-.1289-.0582-.2512-.1507-.341-.0925-.0897-.2162-.1399-.345-.1399s-.2526.0502-.3451.1399c-.0925.0898-.1465.2121-.1507.341v1.6314c-.0016.0657.0102.131.0345.192.0244.061.0609.1164.1072.1628.0464.0465.1017.083.1626.1074s.1262.0362.1917.0346"/><path d="m60.1447 43.3471h109.7023v-20.7844h-109.7023zm94.0513-10.0733c.003-.1915.044-.3806.12-.5562.077-.1755.188-.334.326-.4661.139-.1321.302-.2352.481-.3033.179-.068.369-.0996.56-.093h4.25v-2.1276c.002-.0666-.009-.1329-.033-.195s-.06-.1187-.107-.1666c-.046-.0478-.101-.0858-.162-.1118-.062-.026-.127-.0393-.194-.0393-.066 0-.132.0133-.193.0393-.062.026-.117.064-.163.1118-.046.0479-.083.1045-.107.1666s-.035.1284-.033.195v1.4186h-4.745v-2.3415c.002-.3757.152-.7355.417-1.0012.265-.2656.625-.4156 1-.4174h7.648c.376.0018.735.1518 1 .4174.265.2657.415.6255.417 1.0012v9.577h-9.066c-.375-.0017-.734-.1517-.999-.4174-.266-.2657-.415-.6255-.417-1.0012 0 0 .071-3.6888 0-3.6888zm-11.19-4.4686c.002-.3757.152-.7355.417-1.0012.265-.2656.625-.4156 1-.4174h4.247v-2.8387h4.816v13.9046h-9.063c-.375-.0018-.735-.1518-1-.4174-.265-.2657-.415-.6255-.417-1.0012zm-2.124-1.4186c.375.0018.734.1518.999.4174.265.2657.415.6255.417 1.0012v9.5765h-4.816v-8.6531c-.004-.129-.058-.2512-.151-.341-.092-.0897-.216-.1399-.345-.1399s-.252.0502-.345.1399c-.092.0898-.146.212-.151.341v8.6531h-4.742v-10.9946zm-15.581 0v8.6532c.004.1289.058.2512.15.3409.093.0898.217.14.345.14.129 0 .253-.0502.346-.14.092-.0897.146-.212.15-.3409v-8.6532h4.744v10.9946h-9.064c-.375-.0017-.734-.1517-.999-.4174-.266-.2657-.415-.6255-.417-1.0012v-9.576zm-15.935 1.4186c.001-.3757.151-.7355.416-1.0012.266-.2656.625-.4156 1-.4174h8.995v12.4825c-.002.3757-.152.7355-.417 1.0011-.265.2657-.624.4157-1 .4175h-6.161v-1.9129h2.337c.066.0016.131-.0101.192-.0345s.116-.061.163-.1074c.046-.0465.083-.1019.107-.1629s.036-.1263.034-.192v-.4968h-4.249c-.375-.0017-.734-.1517-1-.4174-.265-.2657-.415-.6255-.416-1.0012zm-11.2611 0c.0017-.3757.1515-.7355.4167-1.0012.2652-.2656.6245-.4156.9996-.4174h7.6488c.375.0018.734.1518.999.4174.266.2657.415.6255.417 1.0012v3.6181c-.003.1915-.043.3806-.12.5562-.077.1755-.187.334-.326.4661s-.302.2352-.481.3033c-.179.068-.369.0996-.56.093h-4.32v2.1281c.004.129.058.2513.151.341.092.0898.216.1399.345.1399s.252-.0501.345-.1399c.092-.0897.146-.212.151-.341v-1.4191h4.744v2.4117c-.001.3757-.151.7355-.416 1.0012-.266.2657-.625.4157-1 .4174h-7.6485c-.3751-.0017-.7343-.1517-.9995-.4174-.2653-.2657-.415-.6255-.4168-1.0012v-8.1574zm-11.2603 5.817h4.816v1.4186c.0041.1289.0582.2512.1507.341.0925.0897.2162.1399.345.1399s.2526-.0502.3451-.1399c.0925-.0898.1465-.2121.1507-.341v-1.4186c-.0013-.1094-.0362-.2157-.0998-.3045-.0636-.0889-.153-.156-.256-.1923l-4.3907-.9931c-.2896-.0853-.5433-.2632-.7223-.5066-.1791-.2435-.2736-.5389-.2691-.8412v-2.91c.0017-.3757.1515-.7356.4167-1.0012.2653-.2657.6245-.4157.9996-.4174h7.6486c.3749.002.7339.1521.9989.4177.265.2657.4147.6253.4164 1.0009v2.3414h-4.816v-1.4176c-.0041-.1289-.0582-.2512-.1507-.341-.0925-.0897-.2163-.1399-.3451-.1399-.1287 0-.2525.0502-.345.1399-.0925.0898-.1466.2121-.1507.341v1.4176c.0013.1093.0361.2156.0998.3045.0636.0889.153.156.2559.1923l4.3196.9931c.2975.0816.5612.2564.7523.499.1911.2425.2997.54.3098.8488v2.9085c-.0017.3757-.1515.7355-.4168 1.0012-.2652.2657-.6244.4157-.9995.4174h-7.5765c-.3751-.0017-.7343-.1517-.9996-.4174-.2652-.2657-.415-.6255-.4167-1.0012v-2.3414zm-14.0935-1.3479c.0028-.1915.0436-.3806.1202-.5562.0766-.1755.1875-.334.326-.4661s.302-.2352.4808-.3033c.1788-.068.3693-.0996.5605-.093h4.2494v-2.1281c-.0041-.129-.0581-.2513-.1507-.341-.0925-.0898-.2162-.1399-.345-.1399s-.2526.0501-.3451.1399c-.0925.0897-.1465.212-.1507.341v1.4186h-4.7454v-2.4117c.0018-.3757.1516-.7355.4168-1.0012s.6245-.4157.9995-.4174h7.6487c.3751.0017.7343.1517.9996.4174.2652.2657.415.6255.4167 1.0012v9.5765h-9.065c-.375-.0018-.7343-.1518-.9995-.4174-.2652-.2657-.415-.6255-.4168-1.0012-.0706.0707 0-3.6176 0-3.6176zm-2.6207-8.2286v11.0659c-.0031.0476.004.0953.0207.1399.0168.0447.0429.0853.0766.119.0336.0337.0741.0599.1187.0767s.0922.0238.1398.0207h1.6998v1.9154h-5.7399c-.3751-.0018-.7343-.1518-.9995-.4175-.2653-.2656-.415-.6254-.4168-1.0011v-11.919z"/><path d="m32.8075 11.0708h-5.8075v32.2763h30.9483v-5.817h-25.0702z"/><path d="m57.9493 27.2446h-11.0484v4.1143c0 .207-.082.4054-.2281.5518-.1461.1463-.3443.2285-.5509.2285s-.4048-.0822-.5509-.2285c-.1461-.1464-.2281-.3448-.2281-.5518v-3.334c.025-.2223.0943-.4373.2038-.6322.1094-.195.2568-.366.4334-.5029l11.119-6.1005c.257-.1885.4673-.4337.6146-.7165.1473-.2829.2278-.5959.2351-.9149v-5.6754c.0093-.6301-.2317-1.2381-.6698-1.6904-.4382-.4522-1.0377-.7117-1.6668-.7213h-19.0507c-.6293.0094-1.2291.2687-1.6674.721-.4384.4523-.6795 1.0604-.6703 1.6907v6.5265h11.0484v-3.2633c0-.2069.0821-.4054.2282-.5517.1461-.1464.3442-.2286.5509-.2286.2066 0 .4047.0822.5508.2286.1461.1463.2282.3448.2282.5517v2.483c-.025.2223-.0944.4372-.2038.6322-.1095.195-.2569.366-.4335.5029l-11.1195 6.1005c-.257.1885-.4672.4337-.6145.7165-.1474.2829-.2278.5959-.2352.9148v8.0867h23.7255z"/><path d="m30.0455 51.5051h-.9914v10.4276h6.0199v-.8511h-5.0285z"/><path d="m41.0228 51.363c-.7208-.0166-1.4375.1131-2.107.3813-.6694.2682-1.2777.6694-1.7882 1.1793-.5109.4842-.9186 1.0669-1.1986 1.7131s-.4265 1.3425-.4307 2.047c-.0098.7064.1304 1.4069.4111 2.055.2808.6481.6959 1.2291 1.2177 1.7045.5065.5153 1.1141.92 1.7845 1.1886s1.389.3953 2.1107.372c.7216.0233 1.4403-.1034 2.1106-.372.6704-.2686 1.278-.6733 1.7846-1.1886.5162-.4798.9274-1.0617 1.2078-1.7088.2803-.6471.4236-1.3454.4209-2.0507.0098-.7065-.1303-1.407-.4111-2.0551s-.6958-1.2291-1.2176-1.7045c-1.0496-1.0025-2.4444-1.5616-3.8947-1.5611zm0 9.7893c-.5901.0163-1.1772-.0885-1.7253-.308-.5481-.2196-1.0455-.5492-1.4615-.9686-.817-.8328-1.2748-1.9537-1.2748-3.1213s.4578-2.2884 1.2748-3.1212c.416-.4195.9134-.7493 1.4614-.9689.5481-.2196 1.1353-.3245 1.7254-.3082 1.1645 0 2.2814.4633 3.1049 1.2881.8234.8248 1.286 1.9435 1.286 3.11 0 1.1664-.4626 2.2851-1.286 3.1099-.8235.8248-1.9404 1.2882-3.1049 1.2882"/><path d="m57.524 52.2853c-.7268-.5623-1.6331-.8404-2.5496-.7824h-2.9037v10.4301h.9914v-4.7531h1.8412c.9365.0458 1.8607-.2294 2.6202-.7803.2936-.2553.5281-.5716.6871-.9269.159-.3554.2388-.7412.2337-1.1305.0211-.3916-.0515-.7826-.2116-1.1404-.1602-.3579-.4033-.6723-.7092-.917zm-4.4624.0702h1.9123c.6414-.0436 1.2753.1598 1.772.5686.2062.173.3706.3905.481.6361.1103.2457.1638.5132.1563.7825.0149.2806-.0348.5608-.1453.819-.1105.2583-.2788.4876-.492.6703-.561.3818-1.2367.5573-1.9122.4968h-1.7716z"/><path d="m63.9687 56.7543c.5312-.1635.9963-.4926 1.3276-.9395.3313-.4468.5114-.9879.5141-1.5445.0205-.3811-.0527-.7615-.2132-1.1076-.1606-.3461-.4036-.6475-.7076-.8775-.7415-.5266-1.6432-.7776-2.5496-.7096h-2.762v10.4276h.9915v-4.8947h1.275c.4964-.0189.9878.1047 1.4163.3564.5368.4916.9911 1.0665 1.3457 1.7026l1.7705 2.8377h1.1333l-2.4083-3.6903c-.2823-.5835-.666-1.1119-1.1333-1.5606zm-3.3992-4.3979h1.5581c.6756-.0604 1.3512.1151 1.9123.4968.2004.1779.3609.3963.4708.6409s.1667.5098.1667.778-.0568.5334-.1667.778-.2704.463-.4708.6409c-.5611.3817-1.2367.5572-1.9123.4967h-1.6287v-3.8318z"/><path d="m68.9972 51.5051h-.9915v10.4276h.9915z"/><path d="m75.7255 56.188-3.8246-4.6111v-.0718h-.9914v10.4276h.9914v-8.8669l3.8246 4.6111 3.7534-4.6111v8.8669h.9915v-10.4276h-.9218z"/><path d="m83.5154 57.1093h4.6037v-.8516h-4.6037v-3.9015h4.7449v-.8511h-5.7363v10.4276h5.8781v-.8511h-4.8867z"/><path d="m94.0673 56.7545c.5309-.1635.9958-.4926 1.327-.9392s.5113-.9875.5142-1.5438c.0205-.3811-.0527-.7614-.2132-1.1076-.1606-.3461-.4036-.6475-.7077-.8775-.7405-.5263-1.641-.7776-2.5465-.7106h-2.6933v10.4276h.9914v-4.8947h1.2751c.4963-.0189.9878.1047 1.4163.3563.5367.4917.991 1.0666 1.3456 1.7027l1.8412 2.8377h1.1332l-2.4077-3.6903c-.3669-.5654-.7947-1.0887-1.2756-1.5606zm-3.3992-4.3979h1.5581c.6756-.0605 1.3512.1151 1.9123.4968.2004.1779.3609.3963.4708.6409s.1667.5098.1667.778-.0568.5334-.1667.778c-.1099.2445-.2704.463-.4708.6408-.5611.3818-1.2367.5573-1.9123.4968h-1.6287v-3.8318z"/><path d="m103.275 51.3629c-1.435-.0219-2.821.525-3.8555 1.5214-1.0347.9965-1.6345 2.362-1.6689 3.7993-.0098.7065.1304 1.4069.4111 2.0551.2808.6481.6959 1.2291 1.2177 1.7045 1.0506 1.0018 2.4446 1.5606 3.8956 1.5606 1.45 0 2.845-.5588 3.895-1.5606.516-.4799.927-1.0617 1.208-1.7088.28-.6471.423-1.3454.421-2.0508.009-.7064-.131-1.4069-.412-2.055-.28-.6482-.695-1.2291-1.217-1.7045-1.05-1.0025-2.445-1.5614-3.895-1.5607zm0 9.7898c-.591.0163-1.178-.0886-1.726-.3082-.548-.2197-1.045-.5494-1.461-.9689-.8172-.8328-1.275-1.9537-1.275-3.1212 0-1.1676.4578-2.2885 1.275-3.1213.416-.4195.913-.7492 1.461-.9689.548-.2196 1.135-.3245 1.726-.3082 1.164 0 2.281.4634 3.104 1.2882.824.8248 1.287 1.9435 1.287 3.1099 0 1.1665-.463 2.2851-1.287 3.1099-.823.8248-1.94 1.2882-3.104 1.2882"/><path d="m118.431 56.8257c-.546-.2828-1.115-.5202-1.7-.7096-.56-.1509-1.073-.444-1.487-.851-.221-.2847-.346-.6326-.356-.9931.006-.5062.209-.99.567-1.3479.412-.3615.939-.5629 1.487-.5675.807.0746 1.584.3422 2.267.7803l.141.0707v-1.0638h-.07c-.738-.4086-1.565-.6279-2.408-.6383-.393-.0109-.785.0589-1.15.2053-.366.1464-.697.3661-.975.6458-.28.2504-.507.5557-.665.8971-.159.3414-.245.7117-.256 1.088 0 .495.123.9824.356 1.4186.235.3533.551.6451.921.8511.546.2828 1.115.5201 1.7.7095.579.1917 1.111.5063 1.558.9224.223.3371.346.7307.356 1.1351.004.2517-.045.5015-.142.7335-.098.2321-.242.4413-.425.6143-.412.3615-.94.5629-1.487.5676-.919-.0799-1.788-.4527-2.479-1.0639l-.142-.142v1.2059h.071c.792.5562 1.726.876 2.693.9223.814.0094 1.6-.2954 2.195-.8511.283-.2644.509-.5826.667-.9359.159-.3532.245-.7345.254-1.1215.018-.5197-.105-1.0345-.356-1.4899-.299-.4114-.686-.7507-1.133-.993"/><path d="m126.009 51.3629c-1.435-.0219-2.821.525-3.855 1.5214-1.035.9965-1.635 2.362-1.669 3.7993-.01.7065.13 1.4069.411 2.0551.281.6481.696 1.2291 1.217 1.7045 1.051 1.0018 2.445 1.5606 3.896 1.5606 1.45 0 2.845-.5588 3.895-1.5606.516-.4799.927-1.0617 1.208-1.7088.28-.6471.423-1.3454.421-2.0508.009-.7064-.131-1.4069-.412-2.055-.28-.6482-.695-1.2291-1.217-1.7045-1.05-1.0025-2.445-1.5614-3.895-1.5607zm0 9.7898c-.59.0163-1.178-.0886-1.726-.3082-.548-.2197-1.045-.5494-1.461-.9689-.817-.8328-1.275-1.9537-1.275-3.1212 0-1.1676.458-2.2885 1.275-3.1213.416-.4195.913-.7492 1.461-.9689.548-.2196 1.136-.3245 1.726-.3082 1.164 0 2.281.4634 3.105 1.2882.823.8248 1.286 1.9435 1.286 3.1099 0 1.1665-.463 2.2851-1.286 3.1099-.824.8248-1.941 1.2882-3.105 1.2882"/><path d="m136.845 56.8257c-.547-.2828-1.115-.5202-1.7-.7096-.561-.1509-1.073-.444-1.488-.851-.221-.2847-.345-.6326-.355-.9931.005-.5062.209-.9899.566-1.3479.412-.3615.94-.5629 1.488-.5675.807.0746 1.584.3422 2.266.7803l.142.0707v-1.0638h-.071c-.737-.4086-1.565-.6279-2.407-.6383-.394-.0109-.785.0589-1.151.2053-.365.1464-.697.3661-.974.6458-.281.2504-.507.5557-.666.8971-.158.3414-.245.7117-.255 1.088 0 .495.122.9824.356 1.4186.234.3533.55.6451.921.8511.546.2828 1.114.5201 1.699.7095.58.1917 1.111.5063 1.558.9224.224.3371.347.7307.356 1.1351.004.2517-.044.5015-.142.7335-.097.2321-.242.4413-.424.6143-.412.3615-.94.5629-1.488.5676-.919-.0799-1.787-.4527-2.479-1.0639l-.142-.142v1.2059h.071c.798.5463 1.729.8651 2.693.9223.814.0094 1.6-.2954 2.196-.8511.282-.2644.509-.5826.667-.9359.158-.3532.244-.7345.254-1.1215 0-.5102-.138-1.0109-.4-1.4483-.262-.4375-.638-.7951-1.088-1.0346"/><path d="m149.026 51.5051-3.471 8.5127-3.541-8.5127h-1.062l4.391 10.4989v.0707h.356l4.39-10.5696z"/><path d="m155.329 51.363c-.721-.0166-1.437.1131-2.107.3813-.669.2682-1.278.6694-1.788 1.1793-.511.4842-.918 1.0668-1.198 1.713-.28.6461-.427 1.3422-.431 2.0466-.01.7064.131 1.4069.411 2.055.281.6481.696 1.2291 1.218 1.7045 1.05 1.0019 2.445 1.5607 3.895 1.5607s2.845-.5588 3.895-1.5607c.517-.4798.928-1.0617 1.208-1.7088.281-.6471.424-1.3454.421-2.0507.01-.7065-.13-1.407-.411-2.0551s-.696-1.2291-1.218-1.7045c-.512-.5075-1.121-.907-1.79-1.175-.669-.2681-1.384-.3992-2.105-.3856zm.071 9.7893c-.59.0163-1.177-.0886-1.726-.3083-.548-.2196-1.045-.5493-1.461-.9688-.817-.8328-1.275-1.9537-1.275-3.1213s.458-2.2884 1.275-3.1212c.416-.4195.913-.7493 1.461-.9689.549-.2197 1.136-.3246 1.726-.3082.579-.0162 1.156.0891 1.693.309.536.2199 1.021.5496 1.423.9681.619.6151 1.041 1.4008 1.212 2.2569.171.8562.084 1.744-.25 2.5505-.334.8064-.9 1.495-1.627 1.9779-.726.4829-1.579.7383-2.451.7337"/><path d="m167.51 57.6767c-.233-.3547-.549-.647-.921-.851-.546-.2828-1.114-.5202-1.699-.7096-.561-.1509-1.073-.444-1.488-.851-.221-.2847-.346-.6326-.356-.9931.006-.5062.21-.99.567-1.3479.412-.3615.94-.5629 1.487-.5675.807.0746 1.585.3422 2.267.7803l.142.0707v-1.0638h-.071c-.738-.4086-1.565-.6279-2.408-.6383-.393-.0109-.785.0589-1.15.2053s-.697.3661-.974.6458c-.281.2504-.507.5557-.666.8971-.158.3414-.245.7117-.255 1.088-.01.4738.113.941.356 1.3479.234.3545.549.6476.92.8546.546.2828 1.115.5201 1.7.7096.579.1907 1.11.5042 1.558.9192.223.3372.346.7307.356 1.1351.004.2518-.045.5016-.142.7336-.098.232-.243.4412-.425.6143-.412.3615-.94.5629-1.488.5675-.918-.0802-1.787-.4537-2.478-1.0653l-.142-.1421v1.2059h.07c.793.5563 1.727.8761 2.694.9223.814.0095 1.6-.2953 2.195-.851.282-.2645.509-.5827.667-.9359.158-.3533.245-.7345.254-1.1216-.142-.536-.332-1.0582-.567-1.5606"/></g></svg>