<svg fill="none" height="28" viewBox="0 0 196 28" width="196" xmlns="http://www.w3.org/2000/svg" xmlns:xlink="http://www.w3.org/1999/xlink"><clipPath id="a"><path d="m0 0h196v27.2136h-196z"/></clipPath><g clip-path="url(#a)" fill="#131a1f" opacity=".9"><path d="m114.604 7.99974.056-.08918-.06.08918c-1.012-.69482-2.476-1.01724-3.91-1.01724-3.25.00294-5.572 1.61014-7.1 3.8681-1.519 2.2647-2.234 5.1822-2.234 7.7792 0 1.8767.282 3.627 1.425 5.2067.564.7713 1.93 2.6245 6.346 2.6304 3.066-.002 4.519-.7968 5.306-1.2564l.131-.1774c.154-.6723.671-3.725.882-4.4903l-.159-.1216c-1.55 1.229-3.241 2.1266-5.16 2.1266-1.288 0-2.267-.3057-2.928-.8957-.658-.585-.981-1.4504-.981-2.5225 0-.3949.033-.7556.063-1.1505l.01-.0931.09-.003c3.002-.0764 4.531-.1176 7.045-.1176.821 0 1.748.004 2.866.0128l.194-.1353c.25-1.1652.52-2.498.52-4.1375 0-1.4553-.155-4.04252-2.402-5.50566zm-1.988 6.37586-.017.0853-2.942.0372-2.909.0382.027-.098.014-.0431c.058-.2038.122-.4282.196-.6566.2-.6409.486-1.3387.992-1.9786.09-.1088.183-.2205.282-.3244.901-.9859 1.755-1.1387 2.308-1.1387.779 0 1.349.3116 1.716.7751.061.0814.113.1608.164.2519.181.3087.292.6595.332 1.027.02.1314.027.2695.027.4018.001.5508-.097 1.0918-.19 1.6229zm-11.423-3.3124-.2.198-2.897-.0745-1.3416 6.3171c-.1852.7918-.5948 2.7685-.5948 3.4055-.004.5948.2205 1.0006.5341 1.2416.3096.2441.6977.3244 1.0446.3254.8056 0 1.0869-.2244 1.6239-.4292l.0951.0882-.7125 3.6387-.245.2381c-.9918.2098-1.7297.3822-2.7734.3822-2.695-.0156-4.6403-.9202-4.6511-4.0611 0-1.47.5939-4.1464 1.0359-6.1358l1.0692-5.0146-2.2746.0774-.1372-.198.6654-3.53384.2068-.11368h2.3108l.9242-4.65402.1803-.20384c2.3138-.59192 2.9811-.8771 5.0889-1.570936l.112.125436-.6988 2.99782-.7242 3.3761 2.967-.09114.078.15484zm35.725-5.96132-.16.17738-7.645-.01862-1.244 6.37886 6.691-.2019.099.1587c-.551 1.8336-.678 2.352-1.049 3.9514l-.169.1617-6.362-.0137-.836 4.4257-1.059 5.7477-.141.1323-5.479.1411-.067-.1411.95-4.8932 1.453-6.908c1.096-5.36746 1.409-7.08148 2.445-12.92914l.165-.16072h8.006l5.084-.133277.098.133277zm10.799 3.10464c-1.063-.7497-2.76-1.13484-5.089-1.13484-1.149 0-2.309.11074-3.473.33124-1.041.19796-1.686.36554-2.236.52332l-.151.15288-.756 3.86998.244.147c.485-.2234 1.197-.4978 2.136-.83.96-.3381 1.844-.5077 2.642-.5077 1.167 0 2.057.1598 2.661.49.624.3352 1.071 1.0712 1.068 1.8807 0 .1999-.017.3753-.044.5341-.031.1489-.049.2587-.057.3214l-.013.0823s-.377.0265-.778.0608c-.265.0255-.602.0637-.992.1088-.638.0686-1.372.1587-2.013.2665-1.536.2558-5.86.9291-7.158 3.825-1.36 2.3725-1.128 5.5203.208 7.052.471.542 1.19 1.0516 2.161 1.2476l-.002.0029c.042.0147.191.0333.224.0412 3.739.5782 6.421-2.6793 6.421-2.6793l-.4 2.008.164.1411 4.2-.1411.175-.1519 2.472-12.4186c.051-.2616.094-.5713.125-.9231.027-.3568.045-.6459.045-.8585-.003-1.5896-.722-2.69306-1.784-3.44178zm-4.324 12.41658s-1.005 1.5778-2.451 2.1433c-1.452.5615-2.499.1186-2.909-.443-.331-.439-1.019-1.8247.287-3.3839 1.325-1.5749 5.704-1.6758 5.704-1.6758zm20.392-13.80426-1.029 5.34096-.215.2186c-.294-.0529-.669-.0961-1.111-.0961-1.387 0-3.359.445-4.901 2.4892l-.017.0167-2.125 11.0828-.15.1323-4.614.1402-.119-.1216 3.629-18.60526.197-.19502 4.567-.44198.18.19502-.526 2.695.224-.20384c.955-.86534 1.801-1.46314 2.747-2.00214.937-.539 1.877-.80654 2.821-.80654.092 0 .185 0 .283.00392zm24.701 4.68146c0 1.1241-.253 2.2912-.502 3.4271l-2.144 10.9426-.164.1323-4.83.1706-.119-.1706s2.474-12.0873 2.474-12.688c0-.5478-.289-2.0159-1.826-2.0159-1.21 0-2.461 1.2221-2.461 1.2221l-2.608 13.3505-.161.1323-2.078.0725-1.861.0628-.92.0303-.056-.0754-.059-.0912s.373-1.8394.836-4.1179h-.013c.721-3.5633 1.643-8.2036 1.643-8.5701 0-.5478-.288-2.0159-1.826-2.0159-1.207 0-2.458 1.2221-2.458 1.2221l-2.609 13.3505-.165.1323-.745.0255-4.11.1382-.105-.1637 3.62-18.58666.182-.18326 4.817-.45374.195.19502-.511 2.6166s2.325-2.548 5.288-2.6068c2.766-.05194 3.344 2.6068 3.344 2.6068s2.752-2.66756 5.687-2.6068c1.485.01176 4.237.6664 4.245 4.51584zm-100.8426-3.29378c-1.0614-.7497-2.7568-1.13484-5.0843-1.13484-1.1534 0-2.3108.11074-3.4711.33124-1.0428.19796-1.6886.36554-2.2403.52332l-.15.15288-.7555 3.86998.244.147c.4851-.2234 1.1975-.4978 2.1344-.83.9614-.3381 1.8444-.5077 2.6421-.5077 1.1682 0 2.0521.1598 2.6636.49.6204.3352 1.0643 1.0712 1.0643 1.8807 0 .1999-.0137.3753-.0411.5341-.0324.1489-.05.2587-.0579.3214l-.0117.0823s-.3763.0265-.7772.0608c-.2636.0255-.6046.0637-.9917.1088-.639.0686-1.374.1587-2.012.2665-1.5395.2558-5.8613.9291-7.1598 3.825-1.3603 2.3725-1.127 5.5203.2087 7.052.4675.542 1.1878 1.0516 2.1599 1.2476l-.0019.0029c.0411.0147.1911.0333.2224.0412 3.7407.5782 6.4229-2.6793 6.4229-2.6793l-.4018 2.008.1637.1411 4.2032-.1411.1735-.1519 2.4696-12.4186c.0539-.2616.096-.5713.1303-.9231.0245-.3568.0431-.6459.0431-.8585-.0039-1.5896-.7203-2.69306-1.7894-3.44178zm-4.3218 12.41658s-1.0016 1.5778-2.45 2.1433c-1.4504.5615-2.4961.1186-2.9106-.443-.3283-.439-1.0153-1.8247.294-3.3839 1.32-1.5749 5.7026-1.6758 5.7026-1.6758zm-10.1244-9.5599-.2019.198-2.8939-.0745-1.3407 6.3171c-.1881.7918-.5997 2.7685-.5997 3.4055-.001.5948.2214 1.0006.5341 1.2416.3136.2441.6997.3244 1.0456.3254.8066 0 1.0888-.2244 1.6239-.4292l.096.0882-.7115 3.6387-.245.2381c-.9878.2098-1.7297.3822-2.7753.3822-2.6891-.0156-4.6384-.9202-4.6491-4.0611 0-1.47.5958-4.1464 1.0358-6.1358l1.0682-5.0146-2.2755.0774-.1372-.198.6673-3.53384.2058-.11368h2.3099l.9251-4.65402.1813-.20384c2.3099-.59192 2.9792-.8771 5.0911-1.570936l.1078.125436-.6987 2.99782-.7184 3.37806 2.9616-.09114.0813.15484zm-10.88-8.58282-.88 4.53152-.1941.06174c-.3498-.49196-.5615-.68502-1.0486-1.06134-1.0819-.833-2.3657-1.30438-3.6759-1.30438-1.0271 0-1.8807.32046-2.4726.85456-.5968.53214-.9359 1.28968-.9359 2.13542.003 1.59936 1.0976 2.3794 3.0429 3.5447l.7566.4292c1.6297 1.0682 4.1611 2.7068 4.1611 6.4259-.0059 4.2267-2.7137 8.4672-9.2101 8.477-1.5925 0-3.1517-.2852-4.652-.8448-1.0124-.3881-1.5004-.7242-2.1129-1.178l-.051-.291.8624-4.4208.1931-.0647c.391.5057.881.9193 1.614 1.4044 1.5651 1.0437 3.0665 1.1554 3.7064 1.1554 2.2932-.002 4.0964-1.3113 4.0964-3.3448-.002-1.8208-1.4416-2.7332-2.9449-3.6191l-1.0398-.6409c-1.6366-1.0702-3.9053-2.5255-3.9121-6.17402 0-1.40336.4037-3.41726 1.6464-5.0666 1.6385-2.16874 4.2149-2.947837 6.81-2.947837 3.3408 0 5.2518 1.182857 6.1475 1.756157zm-46.9773 7.98212c1.3162.8124 3.1654 1.3289 5.247 1.3289 2.0785 0 3.9454-.5165 5.2812-1.3289 1.3406-.81146 2.1305-1.9071 2.1334-3.0635-.0029-1.15934-.7879-2.2442-2.1226-3.04878-1.3309-.8036-3.1929-1.30928-5.2773-1.3132-2.0806.00392-3.9328.5096-5.2548 1.3132-1.323.80556-2.1001 1.8865-2.1031 3.04584.003 1.16228.7781 2.25498 2.0962 3.06644zm.3323 6.2681c-1.3309-.8046-3.1939-1.3113-5.2744-1.3113-2.0825 0-3.9347.5067-5.25574 1.3073-1.32398.8056-2.10112 1.8826-2.10406 3.042.00294 1.1632.77616 2.2559 2.0972 3.0713 1.31516.8065 3.16442 1.324 5.2469 1.3279 2.0825-.0049 3.9494-.5214 5.2842-1.3318 1.3377-.8115 2.1276-1.9042 2.1315-3.0635-.0049-1.1554-.7909-2.2364-2.1256-3.0419zm20.3653 0c-1.3328-.8046-3.1967-1.3113-5.2782-1.3113-2.0806 0-3.9357.5067-5.2538 1.3073-1.324.8046-2.0992 1.8826-2.1011 3.0449.0019 1.1593.7732 2.252 2.0952 3.0674 1.3161.8065 3.1644 1.324 5.245 1.3279 2.0805-.0049 3.9494-.5214 5.2861-1.3318 1.3377-.8115 2.1276-1.9042 2.1295-3.0635-.0019-1.1544-.7879-2.2354-2.1227-3.0409zm-5.3008-4.3483c-.9408 0-1.8492.0892-2.7126.2509 1.8865-1.3465 3.0478-3.19972 3.0478-5.24498 0-4.11502-4.6727-7.38919656-10.4743-7.38919656-5.8006.00098-10.4252 3.27515656-10.4252 7.39017656 0 2.0482 1.1397 3.9014 3.0076 5.2479-.88-.1656-1.8032-.2548-2.7557-.2548-5.80066 0-10.4243 3.2752-10.4243 7.3863 0 4.1081 4.59914 7.445 10.4017 7.445 4.9382 0 9.0778-2.4147 10.2048-5.6683 1.0985 3.2536 5.1665 5.6683 10.1057 5.6683 5.8016 0 10.5007-3.3359 10.5007-7.445 0-4.1111-4.6775-7.3863-10.4762-7.3863zm-18.6729-4.99702c.0069-1.85318 1.4141-3.10464 2.2393-3.68774 1.6503-1.17306 3.8867-1.80516 6.2955-1.80516 2.4167 0 4.6609.63504 6.324 1.80516.832.58702 2.2559 1.84044 2.2628 3.68774-.0275 3.08892-3.9935 5.54782-8.6123 5.55462-2.399 0-4.6256-.6419-6.269-1.8238-1.4318-1.026-2.2403-2.34804-2.2403-3.73082zm-1.6621 17.93402c-2.40196 0-4.62656-.6429-6.27492-1.8267-1.42492-1.0222-2.23538-2.3442-2.23538-3.724.00784-1.8532 1.41414-3.1076 2.23636-3.6917 1.65228-1.1652 3.88766-1.8012 6.29744-1.8052 2.4177.004 4.6619.639 6.325 1.8101.833.586 2.2589 1.8375 2.2667 3.6868-.0284 3.085-3.9974 5.5438-8.6152 5.5507zm10.2077-7.3226c-.4547-1.3102-1.3994-2.4804-2.6881-3.4065.8457.1578 1.7326.2421 2.6469.2421.9408 0 1.8493-.0882 2.7156-.2509-1.2848.9271-2.2285 2.0982-2.6744 3.4153zm10.1018 7.3226c-2.399 0-4.6256-.6429-6.272-1.8267-1.4278-1.0222-2.2402-2.3442-2.2402-3.724.0058-1.8532 1.417-3.1047 2.2422-3.6917 1.6484-1.1652 3.8857-1.8012 6.2945-1.8052 2.4177.004 4.6609.639 6.3289 1.8101.832.586 2.252 1.8404 2.2559 3.6868-.0225 3.085-3.9905 5.5438-8.6093 5.5507z"/><path d="m196 10.7094c-.014 1.6406-1.205 2.8793-2.765 2.8656-1.55-.0128-2.728-1.2701-2.715-2.9106.014-1.67388 1.189-2.88712 2.779-2.87438 1.543.01274 2.715 1.2789 2.701 2.91938zm-5.12-.0519c-.012 1.4043 1.044 2.5549 2.357 2.5656 1.313.0118 2.392-1.1221 2.403-2.5333.006-.6722-.244-1.35726-.665-1.811-.412-.44688-1.065-.73108-1.66-.73598-1.389-.01176-2.423 1.0633-2.435 2.51468zm2.261-1.61308c.347.00392.509.02058.707.0882.343.1176.561.4459.559.81634-.003.39394-.25.70464-.647.82414l.65 1.5641-.46-.0029-.602-1.4828-.031-.0078-.29-.0029-.31-.002-.049.0078-.014 1.4769-.417-.0039.027-3.28204zm-.037 1.46018c.405.0039.56-.0206.684-.1166.129-.0902.208-.2538.209-.43316.003-.23716-.104-.41062-.31-.4851-.113-.05292-.294-.0686-.654-.07252l-.352-.00196-.011 1.10644z"/></g></svg>