<svg fill="none" height="53" viewBox="0 0 196 53" width="196" xmlns="http://www.w3.org/2000/svg" xmlns:xlink="http://www.w3.org/1999/xlink"><mask id="a" height="11" maskUnits="userSpaceOnUse" width="12" x="73" y="3"><path d="m84.202 3h-10.2195v10.247h10.2195z" fill="#fff"/></mask><mask id="b" height="11" maskUnits="userSpaceOnUse" width="10" x="83" y="3"><path d="m92.5963 3h-8.9618v10.247h8.9618z" fill="#fff"/></mask><mask id="c" height="6" maskUnits="userSpaceOnUse" width="7" x="131" y="45"><path d="m137.989 50.8631v-5.8525h-6.844v5.8525z" fill="#fff"/></mask><g opacity=".9"><g clip-rule="evenodd" fill="#131a1f" fill-rule="evenodd"><path d="m83.2062 14.9244-8.892 13.3227-4.1362-13.3227h-7.269l-4.909 27.8035h6.9585l2.7835-15.6781 2.6294 9.3455h5.064l5.954-9.3455-2.7836 15.6781h6.9969l4.9102-27.8035z"/><path d="m94.6629 3-8.6644 47.995h31.5805l1.083-6.0239h-24.6217l7.5827-41.9711z"/><path d="m119.293 16.3722c-1.559-1.145-3.859-1.7178-6.9-1.7178-8.325 0-12.4879 3.2309-12.4879 9.6923 0 1.5193.4379 2.7869 1.3139 3.8039.877 1.0169 1.94 1.7633 3.19 2.2395 1.25.4767 2.5.8949 3.75 1.2545 1.25.3615 2.313.8115 3.19 1.3519.875.5406 1.314 1.2354 1.314 2.0858 0 1.5958-1.282 2.3939-3.847 2.3939-2.564 0-3.847-.8879-3.847-2.6646 0-.2056.026-.4373.078-.695l.077-.4634h-6.9583l-.1154.6181c-.1558.8496-.2327 1.6345-.2327 2.3554 0 1.9053.554 3.3981 1.6619 4.4795 1.4945 1.4421 4.2785 2.1625 8.3515 2.1625 4.072 0 7.086-.7917 9.046-2.3751 1.959-1.5833 2.938-4.0092 2.938-7.2788 0-1.6221-.438-2.941-1.314-3.958-.877-1.0169-1.947-1.7442-3.209-2.1821-1.263-.4374-2.519-.8046-3.769-1.1008-1.252-.2955-2.314-.7012-3.19-1.2162-.876-.5148-1.314-1.2098-1.314-2.0857 0-1.7501 1.378-2.6255 4.136-2.6255.957 0 2.121.1636 2.762.9509.489.6011.55 1.4121.49 2.1552-.021.2627-.271 1.4308-.453 1.6439h6.48l.309-.4636c.206-.2831.406-.7656.599-1.4481.194-.6819.29-1.396.29-2.144 0-2.0328-.78-3.6225-2.339-4.7686z"/><path d="m74.1747 5.22009h-3.5053l-1.4103 8.02701h-2.5788l1.4108-8.02701h-3.5194l.399-2.22003h9.603z"/></g><g mask="url(#a)"><path clip-rule="evenodd" d="m84.202 2.99994-1.7953 10.24696h-2.5789l.688-3.8857h-3.2801l-.6742 3.8857h-2.579l1.8096-10.24696h2.5646l-.7359 4.14134h3.2804l.7359-4.14134z" fill="#131a1f" fill-rule="evenodd"/></g><g mask="url(#b)"><path clip-rule="evenodd" d="m90.7867 13.2468h-7.1522l1.8099-10.24698h7.1519l-.3993 2.22003h-4.5875l-.3274 1.92131h3.7897l-.3991 2.21992h-3.7899l-.2841 1.66522h4.5873z" fill="#131a1f" fill-rule="evenodd"/></g><path clip-rule="evenodd" d="m123.994 15.1579h-.87l-.35 2.0069h-.641l.35-2.0069h-.874l.099-.5551h2.385z" fill="#131a1f" fill-rule="evenodd"/><path clip-rule="evenodd" d="m125.087 14.6028.379 1.2276.815-1.2276h.668l-.449 2.5619h-.641l.255-1.4446-.545.8613h-.464l-.241-.8613-.255 1.4446h-.637l.45-2.5619z" fill="#131a1f" fill-rule="evenodd"/><path clip-rule="evenodd" d="m118.595 50.3921c0-.3474.076-.6007.228-.7606.152-.1595.393-.2396.724-.2396.456 0 .684.2003.684.6019 0 .3412-.077.59-.232.7472-.156.1572-.398.2358-.728.2358-.451 0-.676-.1953-.676-.5847z" fill="#131a1f" fill-rule="evenodd"/><path clip-rule="evenodd" d="m128.371 49.717c.271 0 .488-.07.651-.2109.163-.1411.277-.4012.342-.7807l.277-1.5604c.015-.109.023-.2058.023-.2928 0-.4392-.222-.6587-.666-.6587-.559.0112-.892.3285-1.001.9515l-.277 1.5604c-.022.1358-.032.276-.032.4229 0 .379.227.5687.683.5687zm.838-4.763c1.307 0 1.962.5336 1.962 1.6011 0 .1786-.02.3712-.057.5769l-.285 1.6259c-.13.7532-.413 1.3115-.847 1.6748-.434.3627-1.044.5444-1.831.5444-.786 0-1.334-.1817-1.643-.5444-.213-.2493-.318-.5937-.318-1.0329 0-.1948.022-.4088.065-.6419l.285-1.6259c.255-1.4521 1.145-2.178 2.669-2.178z" fill="#131a1f" fill-rule="evenodd"/><g mask="url(#c)"><path clip-rule="evenodd" d="m133.708 45.0106.871 2.8044 1.872-2.8044h1.538l-1.033 5.8525h-1.473l.586-3.3005-1.254 1.9673h-1.066l-.553-1.9673-.587 3.3005h-1.464l1.034-5.8525z" fill="#131a1f" fill-rule="evenodd"/></g><path clip-rule="evenodd" d="m125.777 47.389c.053-.1604.126-.7138.126-.9141 0-.4663-.163-.8303-.488-1.0986-.326-.2679-.804-.4008-1.433-.4008-1.519 0-2.401.6861-2.644 2.057l-.333 1.8696c-.039.2118-.058.4091-.058.5939 0 .4278.103.7615.31.9997.298.3361.835.5042 1.61.5042 1.504 0 2.363-.6495 2.581-1.9123l.04-.2542h-1.465c-.102.6422-.413.888-.927.888-.43 0-.644-.1691-.644-.5269 0-.1353.014-.269.041-.41l.285-1.6395c.103-.6073.429-.9094.977-.9094.2 0 .353.0587.455.1753.104.1166.155.2698.155.4703 0 .0668-.05.5078-.055.5078z" fill="#131a1f" fill-rule="evenodd"/></g></svg>