<svg fill="none" height="64" viewBox="0 0 160 64" width="160" xmlns="http://www.w3.org/2000/svg" xmlns:xlink="http://www.w3.org/1999/xlink"><clipPath id="a"><path d="m0 0h160v63.5176h-160z"/></clipPath><g clip-path="url(#a)" opacity=".9"><path clip-rule="evenodd" d="m148.733 26.9523h-3.86l-.32 1.4151h4.18c3.825 0 5.115 1.0404 5.115 4.123v1.4923c-.948-.9705-2.625-1.4625-4.995-1.4625-3.78 0-5.618 1.6382-5.618 5.007v.2452c0 3.1586 1.81 4.7606 5.378 4.7606h.961c3.78 0 5.698-1.602 5.698-4.7606v-5.282c0-3.9336-1.895-5.5381-6.539-5.5381zm5.115 11.0244c0 2.2605-1.209 3.1413-4.314 3.1413h-.6c-2.996 0-4.274-1.001-4.274-3.3456v-.2452c0-2.5467 1.218-3.6325 4.073-3.6325h.241c3.416 0 4.874 1.0492 4.874 3.5095zm-104.2432-8.2481.7594-3.7801h-6.5367v-5.1638l-4.5885.7084v15.4239c0 5.3322 2.0462 6.919 7.6253 6.919h2.4426l.7598-3.7468h-2.8723c-2.5415 0-3.3673-.6404-3.3673-3.4762v-6.8844zm-31.5264-10.7332v16.572c0 6.1427 2.7727 8.7076 8.8141 8.7076 6.2721 0 9.0452-2.4973 9.0452-8.6742v-1.5859c0-5.8051-2.5753-8.6404-8.1869-8.6404-1.783 0-3.7307.371-5.0513 1.417v-8.5386l-4.6211.7421zm8.9789 10.0912c3.169 0 4.2918 1.2828 4.2918 5.0963v1.4179c0 3.7121-1.1228 4.9954-4.3577 4.9954-3.235 0-4.3582-1.2833-4.3582-5.0292v-1.9236c0-3.409 1.1228-4.5568 4.4237-4.5568zm33.6394-3.7121c-6.0414 0-8.8145 2.5985-8.8145 8.5386v.9114c0 5.6362 2.4101 8.3698 8.0876 8.3698 1.8159 0 3.6318-.3368 4.919-1.3837v.6758c0 3.1727-1.3531 4.2179-4.5226 4.2179h-1.8975c-1.0846.0197-1.5774.2167-2.2311 1.3122l-.0036-.0017c-5.4432 8.8073-14.8933 14.1878-25.192 14.1878-16.4322 0-29.80019-13.6667-29.80019-30.4667 0-16.7996 13.36799-30.46635 29.80019-30.46635 11.5421 0 22.0422 6.83376 26.9548 17.46855h1.3692c-5.0066-11.38775-16.1057-18.7381-28.324-18.7381-17.1164 0-31.042 14.2368-31.042 31.7359 0 17.4994 13.9256 31.7362 31.042 31.7362 10.0663 0 19.356-4.9342 25.1473-13.1228h4.441c5.8433 0 8.8475-2.2609 8.8475-8.0321v-8.7076c0-5.7379-2.872-8.2351-8.7811-8.2351zm4.2255 10.0237c0 3.1726-1.0894 4.1511-4.2251 4.1511-3.5329 0-4.2259-1.2486-4.2259-4.927v-.5737c0-3.6458.6271-4.962 4.2255-4.962 3.532 0 4.2255 1.2828 4.2255 4.9954zm93.2908 7.1348h1.424v-21.4351h-1.424zm-32.09-14.1652.32-1.4155h-6.371v-4.0466l-1.464.2674v13.8625c0 3.9477 1.447 5.4158 5.338 5.4158h2.103l.267-1.415h-2.37c-2.933 0-3.874-.952-3.874-3.9196v-8.7486h6.052zm13.188 8.0129c0 3.6482-1.116 4.8189-4.593 4.8189-3.375 0-4.515-1.2157-4.515-4.8189v-9.4284h-1.464v9.4284c0 4.4864 1.677 6.2339 5.978 6.2339 4.275 0 6.019-1.8054 6.019-6.2339v-9.4284h-1.425zm-32.214-1.0235v-1.3106c0-4.1929 1.401-5.6788 5.355-5.6788h3.341l.318-1.4155h-3.658c-4.716 0-6.82 2.1878-6.82 7.0939v1.311c0 4.9061 2.104 7.0942 6.82 7.0942h3.379l.32-1.415h-3.699c-3.854 0-5.355-1.5924-5.355-5.6792zm-10.5422-8.4049h-3.8609l-.3188 1.4151h4.1797c3.7942 0 5.0742 1.0404 5.0742 4.123v1.4923c-.948-.9705-2.6244-1.4625-4.9946-1.4625-3.7797 0-5.6173 1.6382-5.6173 5.007v.2452c0 3.1586 1.8223 4.7606 5.4171 4.7606h.9612c3.7546 0 5.6586-1.602 5.6586-4.7606v-5.282c0-3.9336-1.883-5.5381-6.4992-5.5381zm5.0742 11.0244c0 2.2902-1.158 3.1413-4.2734 3.1413h-.6006c-3.0231 0-4.3136-1.001-4.3136-3.3456v-.2452c0-2.5467 1.2181-3.6325 4.0732-3.6325h.2404c3.416 0 4.874 1.0492 4.874 3.5095zm-19.4107-11.27c-4.5154 0-6.6187 2.2806-6.6187 7.1759v13.3178h1.4243v-6.8386c1.0308 1.3696 2.9524 2.1712 5.2744 2.1712 4.4949 0 6.4993-2.2134 6.4993-7.1758v-1.5152c0-4.9347-2.0294-7.1357-6.5793-7.1357zm5.1144 8.6501c0 4.1998-1.3641 5.7608-5.0344 5.7608-3.4734 0-5.2346-1.7315-5.2346-5.147v-2.088c0-4.0925 1.4935-5.7612 5.1546-5.7612 3.6804 0 5.1144 1.6036 5.1144 5.7206z" fill="#131a1f" fill-rule="evenodd"/></g></svg>