<svg fill="none" height="60" viewBox="0 0 196 60" width="196" xmlns="http://www.w3.org/2000/svg" xmlns:xlink="http://www.w3.org/1999/xlink"><clipPath id="a"><path d="m0 0h196v60h-196z"/></clipPath><g clip-path="url(#a)" fill="#131a1f" opacity=".9"><path d="m139.912 18.5999c.004-.0025.009-.004.014-.0043.005-.0004.01.0003.015.0021s.009.0047.012.0083c.004.0036.006.008.008.0127 0 .1242.09.1882.172.2484.468.3764.925.7528 1.382 1.1291.705.5646 1.064 1.306 1.476 2.0324.173.2586.299.545.375.8468.112.6511.232 1.3022.337 1.9533.022.1318.067.3049 0 .399-.262.4027-.124.843-.161 1.2646-.001.1188-.014.2373-.038.3538-.161.5306-.322 1.0613-.502 1.5882-.116.3463-.131.7527-.539.9409-.097.0452-.139.1769-.195.2861-.116.2736-.274.5275-.468.7527-.119.0999-.216.2233-.284.3625-.069.1393-.109.2913-.117.4467-.837.819-1.831 1.4591-2.922 1.8818 0 .0414 0 .0828.03.0941 1.293.7113 2.031 1.9082 2.761 3.1276 1.551 2.5894 3.132 5.1599 4.698 7.7343.063.1053.116.2107.183.3123.127.1845.079.2673-.142.2635-.315 0-.63 0-.944 0-1.454 0-2.903 0-4.357 0-.54.0434-1.08-.0796-1.548-.3527-.469-.273-.843-.683-1.074-1.1753-.663-1.2759-1.401-2.5142-2.105-3.7637.033-.3048 0-.5796-.375-.6511.124-.3764-.165-.5984-.326-.8732-.269-.4667-.46-.9785-.749-1.4189-.248-.284-.443-.6103-.577-.9634-.142-.6098-.633-.734-1.079-.9635-.169-.0907-.358-.1372-.55-.1355-.48 0-.959 0-1.439 0-.726 0-.749 0-.749.7527v8.7542c0 .5533-.045.5947-.581.5947-1.648 0-3.296 0-4.941 0-.374 0-.509-.0903-.509-.4968 0-8.7091 0-17.4182 0-26.1272 0-.3764.094-.4893.472-.4893h6.694c1.716 0 3.424-.0414 5.128.3274.648.1431 1.289.3538 1.959.4366.195.0226.514.0414.641.2221.273.3651.588.3011.914.286zm-9.59 7.388v3.6959c0 .1694-.063.3952.233.3764 1.341-.0414 2.697.1468 4.023-.1844 1.382-.3463 2.431-1.1291 2.839-2.5405.607-2.1038.206-4.712-2.997-5.2691-1.277-.222-2.569-.0941-3.854-.1242-.296 0-.229.2183-.232.3764-.015 1.2345-.012 2.4501-.012 3.6695z"/><path d="m170.18 37.8999v.0376c-.083.008-.161.0412-.223.0951-.063.0538-.108.1257-.13.206-.158.6356-.455 1.2281-.869 1.7351-.029.0515-.047.1094-.05.1689-.003.0596.008.119.032.1735h-.03.026c-.501.2245-.917.6044-1.188 1.084-.457.7-1.191.9597-1.79 1.4226-.311.2409-.704.3764-.989.6399-.176.158-.491.158-.543.4554-.275.0067-.548.0382-.817.094-.397.064-.67.3538-1.026.4065-.674.1628-1.368.2324-2.061.207-.118-.0224-.241-.0093-.352.0377-.418.1828-.887.2134-1.326.0865-.341-.0852-.693-.1244-1.045-.1167-.629.0527-1.206-.301-1.839-.1994-.06 0-.131-.0941-.195-.0904-.416.0226-.633-.4064-1.026-.4478-.38-.0312-.745-.1609-1.06-.3764-.16-.14-.339-.2555-.532-.3425-.691-.2567-1.318-.6598-1.84-1.1818-.598-.5249-1.129-1.1229-1.581-1.7802-.375-.4505-.648-.9786-.797-1.5468-.023-.0873-.076-.1634-.15-.2146-.107-.0842-.195-.1894-.259-.3092-.065-.1197-.104-.2514-.116-.387-.093-.5345-.326-1.0275-.416-1.5695-.156-.6174-.261-1.2469-.314-1.8818v-16.3192c0-.1204 0-.2408 0-.3575s.026-.1656.127-.1468c.502.0828.97-.1543 1.472-.143 1.356.0301 2.712 0 4.065 0 .277 0 .303.1769.262.3575-.051.4276-.051.8597 0 1.2872v14.9417c0 .5231.187 1.0086.225 1.5318.091.5598.249 1.1068.468 1.6296.043.1285.131.2369.247.3049.113.064.266.1581.285.2634.105.5194.727.6436.839 1.1291.823.4857 1.735.8005 2.682.9259.536.0414 1.079-.0188 1.618 0 .982.0602 1.802-.3764 2.566-.8845.83-.5159 1.443-1.3192 1.723-2.2581.274-.7407.437-1.5183.484-2.3072.02-5.4798.02-10.9584 0-16.4358 0-.414.112-.5307.524-.5269 1.633.0263 3.267.0226 4.9 0 .408 0 .584.1054.521.5269-.003.1325.032.263.101.3764.067.1255.102.2658.102.4083 0 .1426-.035.2829-.102.4084-.068.1085-.107.2324-.113.3602-.007.1277.019.2551.075.3699.107.2128.151.4517.128.6888v12.6421c0 .7527-.304 1.5054-.191 2.2581 0 .0441-.009.0877-.027.128-.225.6009-.332 1.24-.314 1.8818-.319.1129-.131.3802-.161.5533z"/><path d="m72.9001 37.0342c.0061.0088.0094.0194.0094.0301 0 .0108-.0033.0213-.0094.0301-.1087.6474.236 1.2044.4682 1.7388.3484.8055.6181 1.6335.9515 2.4426.3746.8732.6705 1.7652 1.0152 2.6346.1498.3764.0749.5194-.3409.5194-1.3635 0-2.7271-.0264-4.0869 0-.9028.0226-1.3897-.4931-1.8318-1.1743-.2921-.4479-.2584-.9974-.5319-1.4377-.2173-.3764-.0974-.8656-.4945-1.1479-.0262 0-.0187-.0866 0-.1317.0562-.5985-.2959-1.0952-.4158-1.6523-.1011-.4516-.4158-.6285-.9252-.621-3.1017.0264-6.1996 0-9.3013 0-.2527-.0051-.5022.0572-.723.1807-.2809.1581-.0524.4554-.206.6436-.5319.6511-.4907 1.5054-.8204 2.2581-.3746.8469-.3746 1.8819-1.2025 2.5104-.3746.2823-.6592.5984-1.2024.5796-1.3935-.0489-2.787 0-4.1805-.0188-.4308 0-.5657-.1844-.4083-.5796.3746-.9259.7716-1.8292 1.09-2.7738.296-.8845.7492-1.7162 1.004-2.6158.0861-.301.3521-.493.3746-.8016.1041-.4734.2625-.9332.472-1.37.2285-.6511.7192-1.2232.5956-1.9797l.0262-.0865c.1161-.0941.2847-.0715.3746-.2861.1933-.6387.4196-1.2668.678-1.8818.221-.4742.2997-1.0162.5207-1.4866.2997-.6361.502-1.306.7867-1.9383s.3745-1.4151.8016-2.0324c.1223-.1835.2076-.3894.251-.6059.2467-.9535.5867-1.8801 1.0151-2.7663.3334-.7753.5919-1.5807.9141-2.3598.412-.9898.8166-1.9985 1.15-3.0109.0353-.1658.1328-.3116.2724-.4069s.3103-.1329.4768-.105c1.7081.0339 3.4163.0377 5.1207 0 .4945 0 .6369.2183.7905.6135.3221.828.6517 1.656.9027 2.5141.06.2108.2997.3275.3409.5646.0849.5522.2868 1.0797.5919 1.5468.0674.1017.1536.1995.1273.3275-.1123.5532.2698 1.0086.4645 1.4189.296.621.5245 1.2758.7492 1.9081.3297.8657.6668 1.7388 1.004 2.6045.457 1.1818.9177 2.3673 1.3598 3.5529.3071.8242.6368 1.6371.9814 2.4388.0576.1178.0856.248.0817.3792-.0039.1311-.0397.2594-.1042.3735h.4758l.0262.0828c-.038.2552-.01.5159.0811.7571.0912.2413.2426.4549.4396.6204zm-10.8821-14.1438c-.2435.8168-.4271 1.5055-.6556 2.198-.9664 2.8754-1.9416 5.7471-2.9256 8.615-.1011.2973-.1198.429.266.429h6.6416c.3334 0 .4121-.0715.296-.4102-.5058-1.4452-.9927-2.898-1.4722-4.3545-.6968-2.1227-1.5059-4.2078-2.1502-6.4773z"/><path d="m115.687 44.4599h-.019c-.42.0198-.839.0612-1.255.1242-.779.0377-1.547.1882-2.326.2146-.982.0338-1.933-.2108-2.899-.32-.961-.1566-1.902-.4178-2.806-.779-.693-.2598-1.346-.6185-1.937-1.0651-.376-.3188-.813-.5558-1.285-.6963-.004.0011-.008.0014-.012.0009-.004-.0006-.008-.0019-.011-.0041-.004-.0021-.007-.0049-.009-.0082-.003-.0034-.004-.0072-.005-.0112.06-.3989-.375-.4253-.491-.6436-.375-.5833-.985-.9635-1.206-1.6409-.019-.0527-.06-.128-.105-.143-.427-.113-.543-.527-.697-.8318-.374-.7226-.6703-1.4791-.9813-2.2243-.3637-.9873-.6346-2.0067-.8091-3.0448-.1423-.6699-.0225-1.3813-.1836-2.0775-.2135-.9108.2436-1.8179.1611-2.7475-.0017-.0138-.0017-.0277 0-.0414.2735-.7339.2772-1.528.5282-2.2582.1081-.451.2678-.888.4758-1.3022.1849-.2478.2669-.5582.2289-.8657.534-1.2289 1.297-2.344 2.247-3.2856 2.476-2.5216 5.529-3.7335 9.013-3.9104 2.648-.1797 5.292.3984 7.627 1.6673.851.4769 1.639 1.0598 2.345 1.735.172.1656.202.2823.049.4855-.675.8845-1.319 1.7877-1.997 2.6684-.573.7528-1.218.8694-2.06.4178-.843-.4516-1.566-1.0576-2.495-1.321-2.544-.7264-4.956-.6098-7.084 1.1554-1.186 1.0371-2.001 2.4355-2.322 3.9819-.491 1.9469-.521 3.9824-.087 5.9428.379 1.9577 1.472 3.7027 3.065 4.8928-.027.158 0 .2333.176.3424.988.6279 2.131.9655 3.3.9748.266 0 .517.1619.794.0565.396-.14.819-.1877 1.236-.1393.701.0565 1.341-.2446 1.956-.4554.666-.2152 1.247-.6351 1.663-1.2006.322-.4516 1.225-.4516 1.633-.0828.468.4216.817.956 1.319 1.3399.116.0801.211.189.273.3161.086.3463.319.35.585.3425-.016.0733-.016.149 0 .2222.015.0732.046.1424.089.2031.154.1807.09.3312-.093.4215-.28.1833-.509.4361-.663.734-.468.6473-1.21.9183-1.813 1.3812-.491.3517-1.031.627-1.604.8167-.313.1259-.633.234-.959.3237-.194.0263-.464.0677-.55.3387z"/><path d="m85.303 22.9244c-.9201.5593-1.7127 1.3069-2.3262 2.1942-.0842-.0125-.1702.0041-.2437.0472-.0736.0431-.1303.1101-.1609.1899-.1348.2259-.1161.478-.2547.7001-.4115.6789-.6674 1.4412-.7492 2.2318-.1524.8547-.2301 1.7211-.2323 2.5894.0004.7005.053 1.4.1574 2.0926.0974.4592.191.9108.3259 1.3587.1685.5758.4307 1.1291.633 1.6786.0349.1194.1008.2274.191.3127.0902.0854.2014.145.3222.1728.671 1.0196 1.582 1.8573 2.6522 2.4388 1.3823.7113 2.8545.8167 4.3678.6963 1.4607-.0913 2.8474-.6778 3.9333-1.6636.7904-.7075 1.446-.6059 2.1764.1882.6631.7151 1.3299 1.4264 2.0154 2.1152.221.2221.2135.3538.0225.5871-1.873 2.2356-4.263 3.4362-7.0875 3.869-.236.0377-.4757.0527-.7117.0791-.251-.2221-.5057.0188-.7492 0-.8728-.0264-1.7456 0-2.6222 0h-.2098c-.0861-.128-.176-.1393-.2809-.0226-2.3227-.2099-4.5348-1.0924-6.3682-2.5404.0045-.0759-.0124-.1515-.0489-.2181s-.0909-.1215-.1571-.1583c-.5605-.3811-1.0404-.8697-1.4123-1.4377-.1048-.1807-.236-.1355-.3746-.1393.0095-.1304-.0178-.2608-.0786-.3763-.3147-.6135-.7492-1.1291-1.0826-1.7539-.4695-.8763-.8462-1.7997-1.1238-2.755-.1314-.2942-.2052-.6111-.2173-.9334.0442-.3278-.0203-.6611-.1835-.9484-.1386-.2675-.1996-.5688-.1761-.8694 0-.9786.0487-1.9571 0-2.9319s.3222-1.863.4907-2.7889c.0862-.4629.3372-.8957.2323-1.385.7189-2.1592 2.0148-4.0783 3.746-5.5476.8252-.7375 1.7655-1.3339 2.7832-1.7651.1526.0296.3097.0254.4604-.0123.1508-.0377.2915-.108.4125-.206.2205-.1614.4783-.2638.7492-.2973.6667-.0866 1.2886-.3425 1.9591-.4329.6705-.0903 1.371-.1919 2.0491-.2747 1.0432-.1097 2.0978-.0086 3.1016.2973.2918.1348.608.2078.929.2145.6556-.0978 1.1538.3764 1.7644.463.5169.079.9328.4704 1.4122.7.764.3778 1.4612.8787 2.0641 1.4829.2959.286.3521.5156.1273.828-.1048.1448-.2213.2808-.3483.4064-.0722.0537-.126.1284-.1542.214s-.0293.1778-.0032.264c-.2922 0-.6218.1732-.6705.3764-.1199.557-.5544.8318-.8766 1.2081-.0898.1207-.2027.2222-.3321.2983-.1295.0762-.2728.1256-.4215.1452s-.2999.0092-.4445-.0308-.2799-.1086-.3977-.2019c-.4587-.345-.9476-.6473-1.4609-.9033-.3746-.1543-.6743-.5269-1.0376-.5419-.8129-.0339-1.5996-.32-2.4274-.2221-.1432.045-.2947.0562-.4429.0327-.1481-.0235-.2888-.0811-.4112-.1682-.0271-.0123-.0565-.0186-.0862-.0186s-.0591.0063-.0861.0186c-.768.3124-1.6295.2973-2.3862.6775-.08.0205-.1492.0708-.1937.1407-.0445.0698-.061.1541-.0461.2356z"/><path d="m27.3002 22.4539c-.0145.0003-.0287-.0039-.0407-.012-.0121-.008-.0214-.0196-.0267-.0331-.1531-.2188-.357-.3968-.5939-.5188-.2369-.1219-.4997-.1842-.7659-.1813l-.0787-.0376c-.0915-.1814-.237-.3295-.4163-.424-.1792-.0944-.3833-.1304-.5839-.1029l-.0786-.0339c-.1311-.2032-.2023-.3763.1648-.3349.1467.0076.2899.0474.4195.1166.3974.2234.8563.3106 1.3074.2484l5.7501 1.6711c1.0976.3199 1.0938.3237 1.1687-.813-.0036-.045-.0036-.0904 0-.1355.0487-.0301.1311-.0639.1349-.0978.03-.4818.1199-.9522.1873-1.4264.1124-.7753.0262-1.5544.1536-2.3485.1218-1.125.1819-2.2558.1798-3.3873.0637-1.3587.206-2.7174.2397-4.076 0 0 .0412-.0264.0824-.049.0263.0527.075.1054.0675.1506-.1012.9635.2809 1.8818.1985 2.8566 0 .158-.1011.3763.1723.4403v.2334.4968c-.1011 1.306.1836 2.5969.1723 3.8953 0 1.4415.3185 2.8642.1948 4.3094-.0224.2559.1199.3387.3746.2672h.1349c.515-.043 1.0245-.1376 1.5209-.2822.2884-.0565.5244-.2522.8278-.2484.4214-.0382.8175-.2186 1.1238-.5119l.1723-.0376c.0141.0263.0364.0472.0635.0594.0271.0123.0575.0152.0864.0083.6881-.1581 1.3662-.3579 2.0303-.5984.9178-.3274 1.8992-.4404 2.802-.8318.0974-.0414.2772-.1693.4233 0-.1686.1844-.5619.0791-.5469.4667-.0056.0104-.0148.0184-.0258.0226-.011.0041-.0231.0042-.0341 0-.1349 0-.2735-.0339-.296.1618-.0083.0131-.0201.0235-.034.0302-.0139.0066-.0293.0092-.0446.0075-.1761-.1054-.2548-.0226-.2847.1505l-4.6825 2.4577-1.9704 1.0237.899.5194c0 .1392-.03.3425.1911.3236.221-.0188.4195.1958.6405.2635.221.0678.4833.3387.8054.2785.1572.2409.3909.4213.663.5119 1.1238.5871 2.2476 1.1291 3.3714 1.7087.3746.1994.8429.2709 1.0864.6849-.1635.0141-.3281-.0065-.4833-.0602-.5132-.2521-1.0938-.2973-1.6145-.5081-.4308-.1731-.9627-.0639-1.3073-.4779-.0375-.0414-.1424-.0302-.2136-.0377-.6443-.0602-1.2286-.35-1.873-.4893-.6443-.1392-1.3223-.4102-1.9928-.5758-.1574-.0376-.3746-.1769-.5394 0l-.0937-.0263c-.0599-.4065-.3746-.3764-.6443-.3312-.1427.0158-.2745.0842-.37.1919-.0954.1077-.1478.2472-.1469.3914-.0525.9296-.1049 1.8818-.1274 2.7889-.0449 1.9834-.3371 3.9556-.2397 5.939v.1355c-.1049 1.666-.2086 3.3321-.311 4.9981-.0122.357-.0561.7122-.1311 1.0614-.0899-1.2232-.1798-2.4502-.2622-3.6771-.2497-3.721-.4995-7.442-.7492-11.163-.0412-.5608-.0487-.557-.5656-.4102l-3.4501.9936c-.6392-.0251-1.2692.1598-1.7943.5269l-.1424.0301c-.4214-.0483-.8467.0486-1.2062.2748-.1798.0865-.4869-.0753-.5506.2521l-.0337.0226h-.0375c-.1948-.0753-.3746-.0903-.4645.143l-.0337.0226h-.0375c-.2492-.045-.5063-.001-.7267.1242-.1274.0941-.3746.1581-.4645-.1355.0541.0068.1089-.0037.1567-.03.0478-.0264.086-.0673.1093-.1168l3.8433-2.0173c1.2175-.636 2.4387-1.2608 3.6561-1.8818.1236-.0678.296-.0866.3259-.271 0-.0414 0-.1054-.0374-.1242-.929-.6812-2.0304-1.0613-2.9968-1.6673-.0549-.0387-.1203-.0595-.1873-.0595-.0671 0-.1325.0208-.1873.0595-.336-.4068-.8148-.6683-1.3373-.7301 0 0-.0375-.0188-.045-.0076z"/><path d="m170.356 37.4105c-.018-.6418.089-1.2809.314-1.8818.018-.0403.027-.0839.027-.128-.113-.7527.191-1.5054.191-2.2581 0-4.2153 0-8.4268 0-12.6421.023-.2371-.021-.476-.128-.6888-.056-.1148-.082-.2422-.075-.3699.006-.1278.045-.2517.113-.3602.067-.1255.102-.2658.102-.4084 0-.1425-.035-.2828-.102-.4083-.069-.1134-.104-.2439-.101-.3764.063-.4215-.113-.5307-.521-.5269-1.633.0226-3.267.0264-4.9 0-.412 0-.528.1129-.524.5269v16.4359c-.047.7888-.21 1.5663-.484 2.3071-.28.9389-.893 1.7422-1.723 2.2581-.749.4968-1.584.9447-2.566.8845-.539-.0339-1.082.0263-1.618 0-.947-.1254-1.859-.4402-2.682-.9259-.113-.5005-.749-.6247-.839-1.129 0-.1054-.173-.1995-.285-.2635-.117-.068-.204-.1764-.247-.3049-.219-.5228-.377-1.0698-.468-1.6296-.038-.5232-.225-1.0087-.225-1.5318 0-4.9781 0-9.9586 0-14.9417-.051-.4275-.051-.8596 0-1.2871.041-.1807 0-.3764-.262-.3576-1.353 0-2.709.0188-4.065 0-.502 0-.97.2258-1.472.143-.101-.0188-.124.0678-.127.1468-.004.079 0 .2371 0 .3575v16.3456c.053.6349.158 1.2643.314 1.8818.09.5419.322 1.035.416 1.5694.012.1356.051.2673.116.3871.064.1197.152.225.259.3092.074.0512.127.1273.15.2145.149.5682.422 1.0963.797 1.5469.452.6572.983 1.2553 1.581 1.7802.522.522 1.149.925 1.84 1.1818.193.087.372.2024.531.3425.316.2154.681.3451 1.061.3763.374.0414.61.4705 1.026.4479.064 0 .135.0978.195.0903.633-.1016 1.21.2522 1.839.1995.352-.0078.703.0315 1.045.1167.439.1269.908.0963 1.326-.0866.111-.047.234-.0601.352-.0376.693.0254 1.387-.0443 2.061-.207.356-.0527.629-.3425 1.026-.4065.269-.0559.542-.0874.817-.0941-.801.41-1.667.6762-2.559.7866-2.663.4291-5.289.3049-7.818-.7339-2.354-.9265-4.271-2.7153-5.364-5.0057-.787-1.6258-1.191-3.4121-1.18-5.2201 0-5.3745 0-10.7477 0-16.1197 0-.3764.127-.4742.487-.4705 1.798.0189 3.596.0226 5.394 0 .409 0 .487.1205.487.5081v15.6229c-.019.8736.092 1.7452.33 2.5856.677 2.213 2.164 3.4413 4.461 3.6846 2.229.2334 4.252-.7527 5.2-2.5517.541-1.0941.806-2.3052.771-3.5265 0-5.2691 0-10.5382 0-15.8073 0-.4216.113-.527.525-.5232 1.794.0226 3.592 0 5.39 0 .338 0 .465.0678.465.4404 0 5.3895 0 10.779-.023 16.1648.005 1.2196-.216 2.4294-.651 3.5679z"/><path d="m40.1789 52.2056-.281 3.8502c0 .222-.0562.4441-.0861.6661-.2173.0377-.1611.2108-.1723.3501-.0188.2258.0412.4591-.1162.6737-.05-.5002-.0726-1.0028-.0674-1.5055 0-.1468.0824-.3463-.1573-.4102v-.3576c.0225-.0226.0599-.0489.0562-.0677-.1049-.9071-.0375-1.8179-.0562-2.7287 0-.1468 0-.271-.1986-.2822l-.1648-.1845c-.0244-.0477-.0533-.0931-.0861-.1355-.4608.207-1.0077.1468-1.4273.4743-.1348.1053-.4233-.0828-.4607.2296h-.0375l-.4832-.0189c-.2885 0-.3072-.1543-.2061-.3763.1426.0124.2858-.0164.4126-.0831s.2319-.1685.3029-.2933c.4645.0301.7829-.3764 1.2287-.429.1236 0 .3746-.4216.1274-.5872-.2473-.1656-.4608-.3538-.7754-.2484-.03-.1731-.1574-.1618-.281-.1543 0-.1995-.1461-.1919-.2884-.1656-.0665-.1289-.1707-.2341-.2987-.3015-.128-.0673-.2735-.0934-.4168-.0749-.071-.1248-.1762-.2266-.303-.2933-.1267-.0667-.2699-.0955-.4125-.083-.1274-.2334-.0599-.3764.206-.3764.974.2748 1.9517.5307 2.9144.8355.3746.1167.4346 0 .4533-.3199.0674-1.0425.1498-2.0888.2247-3.1313.1986-.192.1574-.4404.1649-.6775-.0241-.4305.0011-.8624.0749-1.2871.1948.4968 0 .8731.0599 1.2194.1792.759.2548 1.5389.2248 2.3184 0 .1505-.0262.3161.1948.335 0 .0903 0 .1844.0299.2747-.0561.3597-.0712.7246-.0449 1.0877 0 .1242 0 .2333.1686.2559l3.5886-1.0237c.1836-.0527.3746-.0978.5582-.143l.1835.1882c-.8604.5288-1.7482 1.0112-2.6596 1.4452-.3072.1731-.6256.3274-1.0002.5269l2.2101 1.1931c.1536.3764.5806.4102.8803.621-.1648.1242-.3184.0565-.4532.0903h-.0338-.0262c-.0974-.3312-.3746-.1279-.5506-.1731-.1615-.1503-.3555-.2609-.5668-.323-.2113-.062-.4341-.0739-.6507-.0346h-.0337c-.3761-.2625-.798-.4514-1.2437-.557-.0722-.0208-.1488-.0208-.221 0-.206.0941.0075.1242-.0037.192z"/><path d="m45.9439 11.0312v-.271c.1199-.0978.1124-.1919 0-.2822 0-.0715 0-.143 0-.2146 0-.58708 0-1.17421 0-1.75757 0-.26346-.0674-.37637-.3521-.37637-.4339.04082-.86.14216-1.2661.30109-.1386.0414-.4308-.04893-.4533.25593h-.7792c.1087-.21077.3522-.16184.3222-.37637.0824 0 .1536.00001.1836-.09784l.1048-.07528c.1536-.04517.4046.11667.4271-.20324.3484.07527.5431-.25969.8353-.32367.1611-.03764.3222-.09786.3484-.23711.0262-.13926-.221-.13549-.3071-.25969-.0862-.1242-.2173-.06398-.3372-.05646 0-.26721-.2173-.17689-.3746-.18818-.7492-.3312-1.4422-.7038-2.139-1.10274v-.25594l2.9631.84682c.5769.1656.5769.1656.6705-.41024.0837-.51894.1263-1.04372.1274-1.56943-.0306-.2888-.018-.5806.0375-.86564l.1461-1.66353c-.0386-.24941-.0386-.50331 0-.75273.1348.08657.0262.28981.1798.37637.0761.26383.0965.54073.0599.81295-.0471.44849-.0166.90177.0899 1.33985.0993.75535.1593 1.51538.1798 2.277.0487.64735.03.64735.6331.47423.4832-.13926.9702-.26722 1.4572-.39895.1948.03011.4045-.05269.5993.06022-.1123.25969-.4794.18817-.5094.4855h-.0225c-.1423 0-.2959-.04515-.3147.17314-.1498 0-.3408-.06023-.3746.19194h-.0337l-.1423.08656-.4945.28228c-.0974.05269-.1273.11667-.0337.20324.0949.15308.2284.27825.3869.36284.1585.0846.3365.12562.5159.1189 0 .28604.2098.18441.3746.19194.1948.47046.6593.42154 1.0376.53821h.0375c-.1199.35002-.4083.12419-.6144.18065-.1599-.13791-.347-.24037-.549-.30069-.2021-.06031-.4145-.07712-.6235-.04933-.2758-.05345-.5485-.12256-.8166-.20699-.3072-.11668-.4308-.0527-.4495.28979-.0524.97102-.1274 1.93824-.1836 2.90934.0037.3552-.0559.7083-.176 1.0425-.3222-.2936-.1012-.6775-.1723-1.0124-.0712-.1732.0749-.4103-.1986-.4931z"/><path d="m139.912 18.5999c-.326 0-.641.0791-.888-.2634-.127-.1807-.446-.1995-.64-.2221-.671-.0828-1.311-.2935-1.959-.4366-1.705-.3763-3.413-.3274-5.129-.3274-2.247 0-4.461 0-6.694 0-.374 0-.472.1204-.472.4893v26.1272c0 .4065.124.5006.51.4968 1.644-.0226 3.292 0 4.941 0 .535 0 .58-.0414.58-.5947 0-2.9206 0-5.8386 0-8.7542 0-.7527 0-.7527.749-.7527h1.439c.192-.0017.381.0448.551.1355.445.2295.936.3537 1.078.9635.134.3531.329.6794.577.9634.296.4404.487.9522.749 1.4189.162.2748.45.4893.326.8732-.632-.9722-1.214-1.9772-1.742-3.0109-.173-.3861-.46-.7092-.823-.9253-.363-.2162-.783-.3149-1.203-.2828-.359.0244-.72.0244-1.079 0-.375-.0339-.464.1279-.461.4892 0 3.0373 0 6.0783.019 9.1193 0 .478-.142.5608-.577.5571-1.763-.0251-3.53-.0251-5.3 0-.375 0-.506-.0941-.506-.4968.015-8.8471.015-17.6954 0-26.545 0-.3312.086-.4366.427-.4328h8.717c1.929 0 3.851.1769 5.675.8957.4.1199.781.2934 1.135.5156z"/><path d="m52.211 34.3206c.1236.7527-.3746 1.3285-.5956 1.9796-.2095.4369-.3678.8966-.472 1.37-.03.3086-.2959.5006-.3746.8017-.2547.8995-.708 1.7312-1.0039 2.6157-.3185.9447-.7492 1.8479-1.0901 2.7738-.1573.3952-.0225.5796.4083.5796 1.3935 0 2.787-.0301 4.1805.0188.5432 0 .8429-.2973 1.2025-.5796.8129-.6436.8203-1.6635 1.2024-2.5103.3297-.7339.2885-1.5996.8204-2.2582.1536-.1882-.0749-.4855.206-.6436.2209-.1235.4704-.1858.723-.1807h9.3013c.5095 0 .8241.1694.9253.621.1198.5571.472 1.0539.4158 1.6523v.1317c.397.2823.2772.7866.4944 1.1479.2735.4404.2398.9899.532 1.4377.442.6812.929 1.1969 1.8318 1.1743 1.3598-.0377 2.7233 0 4.0868 0 .4158 0 .4908-.143.3409-.5194-.3446-.8807-.6518-1.7727-1.0152-2.6345-.3333-.8092-.603-1.6372-.9514-2.4427-.2323-.5344-.5769-1.0914-.4683-1.7388.6406 1.4227 1.1238 2.9056 1.7157 4.3546.3746.9334.7155 1.8818 1.0863 2.8152.0974.2484.1349.3764-.2173.3764-1.5583 0-3.1129 0-4.6712 0-.4691.0114-.9285-.1355-1.3047-.4173s-.6475-.6822-.7706-1.1371c-.4832-1.3888-.9477-2.7851-1.4047-4.1814-.0974-.2936-.2135-.4253-.5507-.4253-3.1441.015-6.2882.015-9.4324 0-.0778-.0135-.1574-.0112-.2343.0065-.077.0178-.1496.0508-.2137.097-.0642.0462-.1185.1048-.1599.1723s-.0691.1426-.0813.221c-.4158 1.321-.8766 2.6345-1.3149 3.933-.4195 1.2457-1.1238 1.735-2.4124 1.7313-1.4659 0-2.9331 0-4.4015 0-.2585 0-.3484-.0264-.2323-.3237 1.2662-3.2618 2.5261-6.5237 3.7797-9.7855.0313-.082.0715-.1603.1199-.2333z"/><path d="m72.3457 35.5777h-.4758c.0645-.1141.1003-.2424.1042-.3736.0039-.1311-.0241-.2613-.0817-.3791-.3446-.8017-.6743-1.6146-.9814-2.4389-.4421-1.1855-.9028-2.3711-1.3598-3.5528-.3372-.8657-.6743-1.7388-1.0039-2.6045-.236-.6323-.4645-1.2871-.7492-1.9081-.1948-.4103-.5769-.8657-.4645-1.4189.0262-.128-.06-.2259-.1274-.3275-.3051-.4671-.507-.9946-.5919-1.5468-.0412-.2371-.2809-.3538-.3409-.5646-.2509-.8581-.5806-1.6861-.9027-2.5141-.1536-.3952-.296-.6248-.7904-.6135-1.7045.0377-3.4126.0339-5.1208 0-.1665-.0279-.3372.0097-.4768.105-.1395.0953-.2371.2411-.2724.4069-.3334 1.0237-.7492 2.0324-1.15 3.0109-.3222.7791-.5806 1.5845-.914 2.3598-.4285.8862-.7685 1.8128-1.0152 2.7663-.0434.2165-.1286.4224-.251.6059-.4195.6173-.5057 1.3662-.8016 2.0324-.296.6662-.487 1.3022-.7867 1.9383-.221.4704-.2997 1.0124-.5207 1.4866-.2584.615-.4847 1.2431-.678 1.8818-.0749.2146-.2435.192-.3746.2861.6069-1.6146 1.21-3.233 1.828-4.8438 1.4984-3.8841 2.9881-7.7732 4.469-11.6673.0381-.1849.144-.3487.2966-.4589.1527-.1101.341-.1586.5275-.1358 1.8393.0414 3.6823.0264 5.5254 0 .1218-.0166.2454.0127.3471.0822.1016.0694.1741.1742.2035.2942 2.2676 5.9064 4.5389 11.809 6.814 17.7079.0562.1656.0824.2823.1161.3839z"/><path d="m65.8502 51.3851c.1439-.1274.2994-.2408.4645-.3387.1376-.0807.2934-.1246.4527-.1275.1593-.003.3166.0351.4571.1105.1405.0755.2594.1859.3453.3206.086.1347.1362.2893.1459.4491.0562.6097 0 1.2307.0262 1.8479 0 .2146-.1161.2334-.2884.2409s-.2623-.0753-.2623-.2672c0-.5081 0-1.02 0-1.5318 0-.5119-.206-.7226-.5619-.7113-.3558.0112-.5693.2559-.5806.7188-.0112.4629 0 .9936 0 1.5055 0 .2032-.0562.3011-.2772.3011s-.2734-.1017-.2697-.3049c0-.5382 0-1.0802 0-1.6221.0139-.114-.0102-.2293-.0685-.3281-.0583-.0987-.1475-.1753-.2536-.2177-.1145-.0368-.2366-.0423-.3538-.0158-.1172.0264-.2253.0839-.313.1664-.0601.0565-.1057.1267-.1331.2046-.0274.078-.0357.1614-.0243.2433v1.5769c0 .2146-.0711.3049-.2847.2974-.2135-.0076-.2509-.0979-.2472-.2823 0-.7829 0-1.5657 0-2.3485 0-.3425.1723-.3425.3971-.192.0974.064.1236.2296.3109.0941.4795-.3763.9252-.3274 1.3186.2108z"/><path d="m134.945 53.8014c-.159.0733-.34.0816-.505.0233-.165-.0582-.301-.1786-.379-.3357-.225-.3763-.506-.7075-.749-1.0613-.062-.1054-.158-.1856-.273-.2263-.114-.0406-.239-.0392-.353.0042-.225.0791-.112.3086-.124.4742v.8995c0 .2108-.063.3011-.28.2936-.218-.0075-.308-.0376-.308-.271 0-1.1893 0-2.3748 0-3.5641 0-.1506.023-.271.214-.2597.492-.0296.987-.012 1.476.0527.618.1392.91.4478.963.9747.023.255-.037.5107-.173.7277-.135.217-.338.3832-.577.4729-.048.0226-.101.0377-.172.064.405.5796.809 1.1329 1.24 1.7313zm-1.821-3.5679c-.569 0-.569 0-.569.5269v.3763c0 .6926 0 .6963.7.6286.149-.0126.295-.0508.431-.1129.122-.0607.224-.1548.294-.2714.07-.1167.106-.251.103-.3873.014-.1196-.008-.2406-.062-.3478-.055-.1072-.14-.1957-.245-.2544-.195-.1214-.423-.1768-.652-.158z"/><path d="m158.507 51.2646c0 .3764.023.7528 0 1.1291.004.2084-.035.4154-.115.6079-.079.1924-.198.3662-.348.5102s-.328.2551-.523.3263c-.195.0713-.403.101-.61.0874-.206.0127-.412-.0165-.607-.086-.194-.0696-.373-.1779-.525-.3185s-.274-.3106-.359-.4998c-.084-.1892-.13-.3937-.134-.6011-.045-.7791 0-1.5619-.019-2.341 0-.2522.116-.2936.33-.2973.213-.0038.258.1279.258.3123v2.2582c-.011.136.005.2728.05.4018.044.1289.115.2472.207.3471.092.1.205.1794.329.2332.125.0538.26.0808.395.0793.147.0174.295.0018.434-.0457.14-.0475.267-.1257.372-.2288.106-.1032.187-.2287.238-.3674.051-.1388.071-.2872.058-.4345 0-.7189 0-1.4415 0-2.1604 0-.1994-.023-.3763.281-.3951.303-.0189.288.1806.288.3763v1.1291z"/><path d="m90.6298 52.3786c0-.3763 0-.7226 0-1.0839 0-.1129-.0524-.2597.0937-.3161.0626-.0298.1344-.0334.1996-.0101.0653.0233.1188.0715.1487.1343.1087.2634.1986.0903.3147 0 .0795-.0725.1735-.1269.2758-.1597.1022-.0328.2103-.0431.3169-.0302.1065.0128.2091.0485.3007.1047.0917.0561.1702.1314.2304.2206.1274.1544.1873.1355.2997 0 .1372-.1624.3239-.2748.5311-.3197.2073-.0449.4235-.0198.6152.0714.1877.0807.3444.2205.4463.3983.102.1778.1439.384.1193.5877v1.5356c0 .2258-.0562.3312-.2997.3274-.2435-.0037-.2435-.158-.2397-.3312 0-.4968 0-.9936 0-1.5054 0-.3764-.1124-.6624-.5469-.6737-.3746 0-.5994.2333-.6106.6737v1.5355c0 .1769-.0337.2823-.2435.2823s-.3035-.0452-.2997-.271c0-.5269 0-1.0538 0-1.5807 0-.3764-.1349-.621-.5282-.6436-.0855-.0034-.1707.0114-.2501.0434s-.1512.0805-.2106.1423c-.0595.0619-.1052.1356-.1342.2165-.0291.0809-.0408.167-.0344.2527v1.5356c0 .1881-.0225.3086-.2622.3048-.2398-.0038-.2772-.1091-.2735-.3048 0-.3764 0-.7829 0-1.1743z"/><path d="m95.2187 52.3973c0-.3763 0-.7527 0-1.1291 0-.1166 0-.2484.1386-.2973.0501-.0193.1054-.0196.1558-.0009.0503.0187.0921.0551.1176.1025.1049.2334.1948.1506.3522.0414.4233-.2973.7492-.2521 1.1462.1506.1124.1204.1499.1317.266 0 .1438-.166.3375-.2804.5517-.3259.2143-.0455.4375-.0196.6358.0737.4495.1732.5319.5872.5469 1.0012.0225.5118 0 1.0237 0 1.5355 0 .1995-.0487.3049-.2735.3049-.2247 0-.2697-.1054-.2659-.3049 0-.5118 0-1.0237 0-1.5355 0-.4442-.2023-.6512-.5732-.6474-.0828-.0028-.1654.0125-.2418.0448-.0765.0323-.145.0809-.2009.1425-.0559.0615-.0979.1346-.123.214s-.0327.1634-.0224.2461v1.5355c0 .192-.0299.3124-.2659.3086-.236-.0037-.281-.0941-.2772-.3011 0-.5018 0-1.0136 0-1.5355 0-.4705-.1799-.67-.5432-.6587-.0853-.0014-.1699.0153-.2484.0489-.0784.0336-.1489.0835-.2069.1464-.0579.0628-.1021.1373-.1295.2184s-.0375.1672-.0296.2525v1.5356c0 .1693-.0187.2898-.236.2898-.2172 0-.2959-.0715-.2921-.2861 0-.3763 0-.7828 0-1.1742z"/><path d="m51.7316 53.8653c-.0867.0077-.1734-.0151-.2451-.0645-.0718-.0495-.1242-.1225-.1482-.2065-.0637-.1882-.1536-.3764-.2061-.5495-.0207-.094-.0766-.1765-.156-.2304s-.1764-.0752-.271-.0594c-.1493.0188-.3003.0188-.4495 0-.6855-.0903-1.2362 0-1.3561.8468-.0035.061-.0278.1189-.0687.1641s-.096.0749-.156.0843c-.1142.0305-.2343.0305-.3484 0-.1386-.0828 0-.2183 0-.3161.4608-1.1743.9365-2.341 1.3898-3.5153.0749-.1995.191-.2258.3746-.2371.0967-.0153.1955.008.2753.065.0799.0569.1343.1431.1517.2399.3746.9785.7717 1.9495 1.1613 2.9281.0786.1919.1535.3763.2397.5796.0861.2032.0861.3086-.1873.271zm-1.6033-3.4475c-.1461.3763-.2697.6473-.3746.9296s-.4682.7301-.2697.9296.7492.0602 1.1238.0753h.045c.1461 0 .1648-.0828.1123-.2145-.191-.5458-.397-1.0877-.6368-1.72z"/><path d="m59.643 51.1029c0-.3764 0-.7528 0-1.1291 0-.1957.0412-.3049.2697-.3086.2285-.0038.2847.0865.2847.2935v3.6432c0 .1016.0263.2334-.1161.256-.1423.0225-.2772.0338-.3184-.0904-.1049-.3086-.2323-.1468-.3746-.0564-.1477.113-.3226.1847-.5069.2076-.1842.0229-.3713-.0038-.5419-.0773-.1707-.0734-.3189-.1911-.4295-.341-.1105-.1499-.1795-.3265-.1999-.5119-.0303-.1157-.0479-.2343-.0525-.3538-.0824-1.3587.6669-1.9496 1.9854-1.5318zm.0225 1.2721c0-.7866-.0262-.8506-.3746-.9861-.1001-.043-.2085-.0635-.3173-.0602-.1089.0034-.2157.0305-.3131.0796-.0973.0491-.1829.1189-.2506.2046-.0678.0857-.1161.1852-.1417.2916-.2172.6925 0 1.4565.4683 1.5582.0598.0056.12.0056.1798 0 .5657 0 .753-.271.7492-1.0877z"/><path d="m170.344 51.1329c0-.4215 0-.7941 0-1.1705 0-.2032.053-.3011.278-.2935.224.0075.258.0828.258.2709v3.647c0 .0979.03.2296-.116.2522s-.266.0451-.315-.0941c-.093-.271-.209-.1468-.374-.0527-.791.4855-1.544.1505-1.708-.7527-.022-.1182-.036-.2376-.042-.3576-.082-1.2984.787-1.9496 2.019-1.449zm0 1.2044c-.007-.0889-.007-.1783 0-.2672.023-.0803.027-.1645.014-.2467-.014-.0822-.045-.1604-.092-.2293-.046-.0688-.108-.1265-.179-.1691s-.151-.0691-.233-.0776c-.176-.0424-.362-.0192-.522.0652-.161.0844-.285.2244-.351.394-.157.4106-.157.8653 0 1.2759.053.1529.165.2784.31.3489.146.0705.313.0804.465.0275.315-.0678.592-.2221.588-.6211z"/><path d="m81.2649 51.1254c0-.4178 0-.7942 0-1.1668 0-.2183.0787-.2935.2884-.2898.2098.0038.251.0941.251.2785v3.6545c0 .0828.0263.192-.0824.2296-.1086.0377-.2697.0527-.3296-.064-.1311-.2559-.2548-.143-.4233-.0489-.1467.1077-.3188.1749-.4993.1951-.1806.0202-.3632-.0074-.5298-.0801s-.3114-.1879-.4201-.3341c-.1086-.1463-.1772-.3186-.1991-.4997-.0749-.3397-.0749-.6917 0-1.0313.1911-.9258.9028-1.242 1.9442-.843zm0 1.2645v-.4027c.0092-.1039-.0081-.2085-.0501-.304-.042-.0954-.1074-.1786-.1901-.2418-.0827-.0631-.1799-.1042-.2827-.1193s-.2077-.0038-.305.0328c-.1769.0402-.3343.1412-.445.2854-.1108.1443-.168.3229-.1618.505-.03.4592-.1087.9447.3746 1.2533.0783.0427.1656.0659.2547.0677.5731.049.8054-.2634.8091-1.0764z"/><path d="m113.33 51.8292c-.031-.3693.045-.74.219-1.0667.174-.3268.439-.5956.763-.7737.303-.182.65-.2781 1.004-.2781.353 0 .7.0961 1.004.2781.138.079.374.1392.243.3763s-.303.1431-.479.049c-.294-.1924-.648-.2681-.995-.2124-.346.0556-.659.2386-.878.5135-.226.3293-.342.7226-.331 1.1226.012.4.15.7859.394 1.1017.246.2566.576.4145.929.4443s.705-.0706.989-.2825c.176-.1167.289-.1091.42.0339s-.041.2747-.131.3425c-.297.2332-.653.3768-1.028.4141s-.752-.0332-1.089-.2034c-.674-.2672-1.034-.9522-1.034-1.8592z"/><path d="m151.382 51.2458c.225-.1053.375-.1881.513-.2446.143-.0704.302-.103.461-.0947.159.0082.313.057.448.1417.135.0848.246.2027.323.3426.077.14.117.2973.117.4572.041.5834 0 1.1705.026 1.7576 0 .1995-.082.256-.266.2673-.183.0112-.281-.0904-.277-.2974 0-.5118 0-1.0199 0-1.5318 0-.5118-.195-.685-.584-.685-.096-.0061-.191.0073-.281.0394s-.172.0822-.243.1473c-.07.0652-.126.1439-.165.2315-.038.0876-.059.1822-.06.2781v1.5055c0 .1769 0 .3237-.248.3237-.247 0-.296-.1092-.292-.3312 0-1.1856 0-2.3749 0-3.5605 0-.1882.026-.3123.266-.3086.24.0038.277.0979.274.3011-.019.3877-.012.7941-.012 1.2608z"/><path d="m83.6773 51.6672c-.0337-1.528 1.4984-2.3071 2.8357-1.7463.0829.0333.161.0776.2323.1317.1086.0866.2884.143.1648.35-.015.0389-.0395.0734-.0712.1002-.0318.0269-.0697.0453-.1104.0535-.0407.0083-.0828.0061-.1224-.0063s-.0755-.0346-.1043-.0646c-.2913-.2012-.6455-.2889-.9965-.2466-.351.0422-.6745.2115-.9102.4762-.2143.3177-.3331.6907-.3424 1.0743-.0093.3837.0913.762.2899 1.0898.2312.2788.5549.4644.9114.5225.3566.0581.722-.0152 1.0291-.2063.1648-.1017.3184-.2748.4832 0 .1648.2747-.0974.3236-.2173.3989-.2985.2051-.6472.3244-1.0083.345-.3612.0205-.721-.0584-1.0407-.2283-.7717-.3914-1.0227-1.0689-1.0227-2.0437z"/><path d="m100.032 24.0874c.039.3074-.043.6178-.2282.8656-.208.4142-.3676.8512-.4757 1.3023-.251.7339-.2548 1.528-.5282 2.2582-.0018.0137-.0018.0276 0 .0413.0824.9297-.3746 1.8367-.1611 2.7475.1611.6963.0412 1.4076.1835 2.0775.1745 1.0381.4454 2.0575.8092 3.0448.3109.7528.6145 1.5055.9815 2.2243.154.3049.27.7189.697.8318.045 0 .086.0903.105.143.221.6775.846 1.0576 1.206 1.641.131.2183.55.2446.491.6436-1.109-.876-2.024-1.9729-2.69-3.2217-1.6783-2.9846-2.1466-6.21-1.8357-9.586.1463-1.5742.5514-3.113 1.1988-4.554.0464-.17.131-.3271.2469-.4592z"/><path d="m127.071 52.435h-.585c-.427 0-.498.1129-.352.5118.044.1082.108.2068.189.2899s.178.1492.285.1943c.107.0452.222.0686.338.0688s.231-.0227.338-.0675c.113-.0419.221-.0949.322-.158.028-.0206.059-.0348.092-.0416.034-.0068.068-.0061.101.0022s.064.0239.09.0457c.027.0218.048.0492.062.0802.094.1506-.041.2146-.131.2823-.264.1722-.571.2638-.886.2638-.314 0-.622-.0916-.886-.2638-.245-.2333-.418-.5332-.497-.8632s-.061-.676.051-.996c.099-.287.295-.5299.554-.6861s.564-.2158.862-.1683c.293.0317.563.1712.759.3917.196.2204.303.5059.301.8014 0 .207-.086.3048-.292.3011-.206-.0038-.479 0-.715 0zm-.229-.3312c.075.0075.15.0075.225 0 .169-.0452.446.1392.491-.1167.015-.1282-.014-.2577-.082-.3671-.068-.1095-.172-.1924-.293-.2351-.136-.0639-.288-.0869-.437-.0662-.148.0207-.288.0842-.402.1829-.084.0523-.151.1276-.193.217-.043.0893-.059.189-.047.2873.06.1957.285.0678.435.0941.101.0084.202.0097.303.0038z"/><path d="m97.013 21.8855c-.0261-.0862-.0249-.1785.0032-.264.0282-.0856.0821-.1603.1542-.2139.127-.1257.2435-.2617.3484-.4065.2247-.3124.1685-.542-.1274-.828-.6029-.6042-1.3001-1.1051-2.0641-1.4829-.4794-.2296-.8952-.621-1.4122-.7-.6106-.0941-1.1238-.5608-1.7643-.463-.3211-.0067-.6373-.0797-.929-.2145-1.0039-.3059-2.0584-.407-3.1017-.2973-.678.0828-1.371.1806-2.0491.2747-.678.0941-1.2924.3463-1.9591.4328-.2708.0336-.5287.136-.7492.2974-.1209.098-.2617.1683-.4124.206-.1508.0377-.3079.0419-.4604.0123 1.4493-.754 3.0387-1.1974 4.6675-1.3023 2.0391-.2099 4.0994.0027 6.0535.6248 1.7286.5453 3.3126 1.4754 4.6338 2.7211.1985.1882.2172.3086.0412.5119-.311.3538-.5882.7264-.8729 1.0914z"/><path d="m62.224 52.4388c-.1333-.0113-.2674-.0113-.4008 0-.1761.0339-.442-.1317-.5132.1204-.025.1193-.0181.2431.0201.3588.0381.1158.1062.2192.1972.2999.1517.148.3481.2412.5582.2651.2102.0238.4223-.0231.603-.1334.1536-.064.3409-.2484.4608 0s-.1461.3237-.2997.3989c-.3327.1822-.7236.2251-1.0876.1194s-.6718-.3515-.8565-.6839c-.3746-.7979-.1237-1.7877.5693-2.1264.1782-.0987.3778-.1515.5812-.1537.2034-.0023.4042.0461.5845.1407.1802.0947.3344.2327.4486.4018.1143.169.1852.3639.2063.5671.03.2785-.0449.4328-.3521.4215-.2435-.0037-.4795.0038-.7193.0038zm-.1573-.3312c.1485-.0075.2973-.0075.4458 0 .3371.0264.3296-.1468.2322-.3764-.0538-.1059-.1319-.1975-.2277-.2673-.0959-.0697-.2069-.1157-.3238-.134-.117-.0184-.2366-.0086-.3491.0284-.1125.0371-.2147.1004-.2981.1848-.1311.1242-.2772.2822-.221.4629.0562.1806.2809.0753.4308.1016.1034.0094.2075.0094.3109 0z"/><path d="m57.1295 52.8002v.8092c0 .271-.2847.3312-.3746.1844-.1798-.286-.3035-.1355-.4683-.0414-.2067.1267-.4479.1847-.6892.1656-.1791.0025-.3531-.0596-.4905-.1749s-.2292-.2762-.2587-.4536c-.0299-.1732.0037-.3514.0946-.5016.091-.1502.233-.2622.3998-.3151.2776-.1125.5684-.1884.8653-.2259.1536-.0263.3746.0565.3746-.2446s-.0561-.5156-.3558-.6059c-.1225-.0371-.2518-.0452-.3779-.0237-.1261.0216-.2455.0722-.3488.1479-.1574.1053-.3372.2032-.4533-.0264s.1199-.2747.2435-.3462c.199-.1374.4316-.2173.6727-.2313.241-.0139.4812.0387.6946.1522.4457.2447.4607.7038.4757 1.1291v.5871zm-.7979-.2108c-.6256 0-1.0114.2409-.9852.5759.0262.3349.2547.3763.5094.3763.1882.0103.3728-.0549.5133-.1812.1404-.1263.2253-.3034.2359-.4925-.0037-.2145-.0562-.3274-.2734-.2785z"/><path d="m119.35 52.8039v.7527c0 .0978.049.2258-.086.2747-.135.049-.27.0452-.322-.0752-.105-.2447-.21-.1619-.375-.0565-.141.0983-.302.1638-.472.1918s-.344.0178-.509-.03c-.134-.0347-.255-.1076-.348-.2099-.094-.1023-.156-.2296-.179-.3666-.023-.1369-.006-.2776.049-.4051.055-.1274.146-.2362.261-.313.311-.1787.658-.2878 1.015-.32.18-.0376.449.0339.419-.3199s-.146-.5194-.468-.5645c-.225-.0265-.451.0311-.637.1618-.146.0903-.307.1807-.43 0-.124-.1806.089-.2898.202-.3763.19-.1344.412-.2175.643-.2412.232-.0237.466.0127.679.1057.453.1919.532.6134.547 1.05v.7226zm-1.348.7527c.189.0137.377-.0426.528-.1583.151-.1158.255-.283.292-.4702 0-.1958 0-.3501-.266-.3388-.55.0264-.966.2371-.981.5307s.191.3877.427.4253z"/><path d="m44.5842 29.2698c-.2435-.414-.7155-.4855-1.0863-.685-1.1238-.5946-2.2476-1.1291-3.3714-1.7087-.2722-.0905-.5059-.2709-.6631-.5118.754.322 1.4894.6864 2.2027 1.0914 1.5471.7866 3.0792 1.5958 4.6188 2.3975.1357.0615.2561.1528.3521.2672l-3.6336-1.0689-6.106-1.8028c-.112-.0364-.221-.0817-.3259-.1355.1761-.1693.3746-.0301.5395 0 .6705.1656 1.3185.4253 1.9928.5759.6743.1505 1.21.429 1.873.4892.0712 0 .1761 0 .2135.0377.3447.414.8766.3048 1.3074.478.5207.2107 1.1013.2559 1.6145.5081.1551.0537.3197.0742.4832.0602.1049.1129.2173.2107.4009.1317-.1237-.1731-.2772-.1054-.4121-.1242z"/><path d="m75.6346 52.7136v.8581c0 .0979.045.2334-.0824.2748-.1273.0414-.2622.0451-.3109-.0904-.1049-.286-.2248-.1129-.3746-.0376-.1524.0961-.3234.1585-.5016.1831-.1783.0247-.3597.011-.5323-.0401-.1238-.036-.2348-.1068-.3198-.2042s-.1404-.2172-.1597-.3453c-.0322-.1322-.0229-.2713.0267-.398.0497-.1267.1372-.2349.2505-.3096.3182-.1991.6791-.3191 1.0526-.35.1724-.0226.4308.049.4046-.2747-.0187-.2672-.0712-.5156-.3746-.5947-.1249-.0257-.2538-.0256-.3787.0002-.125.0259-.2434.0771-.348.1504-.1424.0828-.3072.1919-.4196-.0264-.1123-.2183.0974-.2898.2248-.3763.1944-.1305.4193-.2078.6525-.2243s.4666.0284.6773.1302c.4458.2258.5245.6586.502 1.1291v.5419zm-.5132.1618c0-.1054.0637-.2747-.1198-.2822-.1783-.0241-.3596-.0123-.5333.0349s-.3362.1287-.4782.2398c-.0455.0354-.0815.0816-.1047.1346-.0232.0529-.0328.1109-.028.1685.0049.0577.024.1132.0557.1615s.0749.0878.1257.115c.1008.0681.2195.1045.3409.1045.1215 0 .2402-.0364.3409-.1045.2135-.1242.472-.2333.4008-.557z"/><path d="m166.898 52.4389h-.584c-.405 0-.465.1017-.326.4893.039.1084.1.2077.178.2923.078.0845.172.1526.277.2002.105.0477.218.0739.332.0773.115.0033.229-.0164.337-.0579.114-.0386.225-.089.329-.1506.139-.0865.259-.079.345.064s-.045.2484-.157.3124c-.198.1228-.42.202-.65.2325-.231.0305-.465.0116-.688-.0556-.355-.1449-.644-.4189-.807-.7675-.164-.3487-.191-.7464-.077-1.1143.038-.1699.109-.3306.208-.4728.1-.1421.227-.2629.374-.3554.147-.0924.31-.1546.481-.1831.171-.0284.346-.0224.514.0177.265.0592.501.2077.67.4206s.261.4775.259.7499c0 .2408-.082.3274-.311.3161-.228-.0113-.464-.0151-.704-.0151zm-.195-.3311h.446c.333.0263.337-.1355.232-.3764-.055-.1146-.139-.2132-.243-.2864s-.224-.1188-.351-.1323c-.126-.0135-.253.0053-.37.0549-.117.0495-.22.1281-.298.2283-.101.128-.217.286-.139.4441.079.1581.24.0527.375.064.116.0085.232.0097.348.0038z"/><path d="m76.3202 52.3974c0-.3764 0-.7527 0-1.1291 0-.1091-.0487-.2597.1162-.3011.051-.0171.1062-.0169.157.0008.0509.0177.0944.0519.1239.0971.1311.2634.2585.1279.4196.0376.7754-.4441 1.5171-.0677 1.5733.8205.0337.5532 0 1.1102 0 1.6673 0 .2295-.0974.2785-.296.2822-.1985.0038-.236-.1129-.236-.286 0-.4968 0-.9936 0-1.5054 0-.5119-.206-.7528-.5956-.734-.1039-.0075-.2081.0083-.3053.0462-.0971.0378-.1846.0969-.2563.1728-.0716.076-.1256.167-.1581.2664-.0324.0995-.0425.2049-.0295.3088v1.4c0 .192-.0299.3124-.2622.3162-.2322.0038-.2734-.1054-.2659-.3049.0224-.3726.0149-.764.0149-1.1554z"/><path d="m120.013 52.3899c0-.3764 0-.7528 0-1.1291 0-.0979-.03-.2221.094-.2748.053-.029.116-.037.174-.0224.059.0146.111.0508.144.1015.12.207.218.158.375.0564.858-.5005 1.607-.064 1.615.9296v1.4415c0 .207 0 .3764-.285.3764s-.255-.1807-.251-.3764c0-.4968 0-.9936 0-1.5054 0-.5119-.217-.6662-.614-.6624-.098-.0092-.196.0026-.288.0345s-.177.0833-.247.1506c-.071.0673-.127.1491-.164.2399-.037.0907-.054.1883-.051.2863v1.5054c0 .1995-.041.3049-.269.3087-.229.0037-.274-.1129-.27-.3087.037-.3688.037-.7602.037-1.1516z"/><path d="m141.414 31.2119c.008-.1554.047-.3074.116-.4467.069-.1392.166-.2627.285-.3625.194-.2252.352-.4791.468-.7528.056-.1091.098-.2408.195-.286.408-.1882.423-.5946.539-.9409.18-.5269.341-1.0576.502-1.5883.024-.1164.037-.2349.038-.3537.037-.4216-.101-.8619.161-1.2646.06-.0941 0-.2672 0-.399-.105-.6511-.225-1.3022-.337-1.9533-.076-.3018-.202-.5882-.375-.8468-.412-.7264-.771-1.4678-1.476-2.0324-.457-.3763-.914-.7527-1.382-1.1291-.082-.0602-.176-.1242-.172-.2484.837.3793 1.584.9364 2.187 1.6328s1.049 1.5158 1.308 2.4018c.835 2.8905.449 5.5928-1.472 7.9903-.184.2039-.379.3974-.585.5796z"/><path d="m34.9795 13.9181c-.2735-.0565-.1873-.2823-.1724-.4404.0825-.9635-.2996-1.8818-.1985-2.8566 0-.0452-.0412-.0978-.0674-.1505-.0412.0225-.0824.0338-.0824.0489-.0337 1.3587-.1761 2.7173-.2398 4.076.0021 1.1316-.0579 2.2624-.1798 3.3873-.1273.7941-.0412 1.5732-.1536 2.3485-.0674.4742-.1573.9447-.1873 1.4264 0 .0339-.0861.0678-.1348.0979.1198-1.8103.2322-3.6244.3521-5.4385.1773-2.5919.3546-5.1838.5319-7.77567.0263-.35378.075-.70757.1311-1.06135.0974 2.12269.3334 4.22662.4009 6.33802z"/><path d="m90.0793 52.4238c0 .9108-.5245 1.5055-1.3673 1.5055-.8429 0-1.3486-.5721-1.3598-1.4565 0-.956.5019-1.5243 1.371-1.5243s1.3523.5382 1.3561 1.4753zm-.5395-.0188c0-.079 0-.1995 0-.3161-.0123-.2034-.1013-.3944-.2489-.5342-.1475-.1398-.3424-.218-.5452-.2186-.2062-.0061-.4065.0693-.5578.2101-.1514.1408-.2416.3357-.2514.5427-.028.2224-.028.4475 0 .6699-.0003.1141.0252.2268.0746.3295.0493.1027.1213.1929.2104.2636s.1931.1201.304.1445.2259.0231.3363-.0037c.4346-.0602.6743-.414.678-1.0877z"/><path d="m159.286 52.3899c0-.3763 0-.7527 0-1.1291 0-.1091-.048-.2596.12-.2935.169-.0339.289 0 .326.1618.064.271.157.1092.262.0414.918-.557 1.649-.1769 1.697.8845.023.5118 0 1.0237 0 1.5355 0 .1807-.037.2823-.243.2785-.206-.0037-.3-.0526-.292-.2822 0-.4968 0-.9936 0-1.5055 0-.5118-.199-.7527-.592-.7527-.103-.0091-.206.0049-.303.0409-.096.0361-.184.0934-.255.1676-.072.0743-.127.1637-.16.2618-.033.098-.044.2022-.031.305v1.4001c0 .1994 0 .35-.278.3387-.277-.0113-.266-.1694-.262-.3764.015-.3236.011-.7.011-1.0764z"/><path d="m102.19 52.4427v1.1743c0 .1054 0 .222-.146.2296-.146.0075-.247.0301-.274-.0904-.067-.3462-.213-.1543-.344-.0639-.158.1233-.347.1993-.546.2193s-.399-.0169-.578-.1064c-.171-.0969-.3092-.242-.3985-.4173-.0892-.1753-.1252-.3731-.1035-.5688 0-.5269 0-1.0538 0-1.5808 0-.2182.0824-.2822.292-.2822.21 0 .247.1054.247.2822v1.577c0 .4705.188.6624.6.6587.096.0127.193.0042.286-.025.092-.0292.177-.0784.248-.144.072-.0656.128-.1462.165-.236s.054-.1866.05-.2838c0-.5018 0-1.0036 0-1.5055 0-.1957 0-.3424.277-.3424s.255.1844.259.3763v1.1291z"/><path d="m145.599 52.7363v.8091c0 .1092.044.2635-.117.2974s-.254.0338-.299-.1205c-.071-.2408-.176-.1166-.289-.0414-.151.1108-.326.1848-.511.2161-.184.0313-.373.0192-.553-.0354-.13-.0371-.248-.1111-.338-.2131s-.15-.2279-.171-.3627c-.027-.1338-.012-.2726.043-.3973s.147-.2292.264-.299c.307-.1875.654-.2985 1.012-.3237.183-.0263.494.0527.445-.3349-.048-.3877-.206-.5684-.565-.5796-.211-.0003-.416.0684-.585.1957-.131.0903-.269.1543-.374-.0226s.06-.2635.168-.3387c.187-.1401.407-.2287.638-.2571s.466.0044.681.0952c.457.1769.547.5947.558 1.035v.6775zm-.517.1806c0-.1129.052-.2446-.087-.3199-.206-.1129-1.052.1619-1.123.3764-.038.0829-.044.1767-.018.2639s.083.1619.16.2103c.11.066.237.0986.365.0939.129-.0047.253-.0464.358-.1202.195-.1054.375-.2221.345-.5044z"/><path d="m121.272 40.0113c-.266 0-.498 0-.584-.3424-.063-.1272-.157-.2361-.274-.3162-.502-.3764-.85-.9183-1.318-1.3398-.409-.3764-1.311-.3764-1.634.0828-.415.5654-.997.9854-1.663 1.2006-.614.2107-1.255.5118-1.955.4554-.417-.0484-.84-.0008-1.236.1392-.278.1054-.529-.0452-.795-.0564-1.169-.0093-2.312-.347-3.3-.9748-.161-.1092-.202-.1844-.176-.3425 2.015 1.2759 4.192 1.385 6.447.8694.944-.2522 1.814-.7285 2.536-1.3888.847-.7151 1.468-.6775 2.221.1242.585.6248 1.154 1.2571 1.731 1.8893z"/><path d="m110.45 53.0562.715-1.7426c.057-.1392.094-.3011.266-.3349.099-.0325.205-.0325.304 0 .135.0752 0 .1919-.023.2709-.46 1.0953-.936 2.1792-1.397 3.2744-.016.0609-.046.1173-.087.1651s-.092.0857-.15.111c-.057.0253-.12.0373-.182.0351-.063-.0022-.125-.0185-.18-.0477 0-.0226 0-.0452 0-.0527.547-.7791.374-1.5281-.064-2.2883-.185-.3438-.344-.7011-.476-1.0689-.052-.1317-.266-.3124-.045-.4102.051-.0269.107-.0416.165-.0432.057-.0016.114.0101.166.0341s.098.0597.134.1043c.036.0447.062.097.075.1532.135.3763.299.7226.453 1.0801.097.2371.195.4554.326.7603z"/><path d="m141.939 52.4199h-.574c-.404 0-.464.0979-.329.4855.038.115.1.2208.181.3107.081.09.18.1621.29.2119s.229.0763.35.0777c.12.0014.24-.0223.351-.0696.13-.045.255-.1017.375-.1693.025-.0175.053-.0289.083-.0336.03-.0046.061-.0023.09.0068.029.009.055.0247.077.0456.022.021.039.0467.05.0752.075.128-.023.2033-.105.2597-.203.144-.436.2381-.681.2747-.246.0366-.496.0147-.732-.0639-.259-.0823-.487-.2447-.65-.4643-.162-.2196-.252-.4851-.256-.7589-.059-.2831-.03-.5775.084-.8434.113-.2659.305-.4904.549-.6432.216-.1411.469-.2125.726-.2044.258.0081.506.0952.712.2495.123.0857.225.1991.296.3312.353.6361.199.9184-.505.9221zm-.206-.3123h.442c.374.0263.348-.1732.232-.414-.058-.1039-.14-.1924-.239-.2583-.098-.0659-.211-.1074-.329-.121-.118-.0135-.237.0011-.348.0428s-.21.1093-.29.1972c-.116.1355-.251.3086-.184.478.068.1693.266.0489.405.0677.105.0105.212.013.318.0076z"/><path d="m136.604 52.4199h-.539c-.461 0-.506.0603-.375.4818.04.1221.107.2339.194.3277.088.0938.195.1673.314.2153.118.048.246.0694.374.0627s.253-.0413.366-.1014c.098-.0372.192-.0839.281-.1392.021-.0151.046-.0255.071-.0306.026-.0051.053-.0049.078.0008.026.0056.05.0165.072.032.021.0155.039.0352.052.058.09.1091.038.1919-.049.2672-.558.4704-1.873.4441-2.169-.3764-.112-.2458-.174-.5124-.179-.783-.006-.2707.044-.5397.146-.7902.127-.2668.341-.4822.607-.6107.265-.1286.566-.1627.854-.0968.249.0559.475.1911.642.3857.167.1945.268.438.287.6944.026.2974-.075.414-.375.3764-.221-.0188-.449 0-.67 0zm-.209-.3123c.088.0094.177.0094.265 0 .169-.0414.446.1392.487-.1355.015-.1268-.014-.2549-.082-.3626s-.171-.1884-.292-.2283c-.136-.063-.287-.0837-.435-.0596-.147.0241-.284.0921-.393.1951-.146.1317-.296.3086-.232.5005.063.192.284.0678.434.0941.083.0053.165.004.248-.0037z"/><path d="m75.9494 25.5513c.1049.4892-.1461.9221-.2323 1.385-.1686.9259-.5506 1.8065-.4907 2.7889.0599.9823 0 1.9533 0 2.9318-.0235.3007.0375.6019.176.8694.1633.2873.2278.6207.1836.9485.0121.3222.0858.6391.2173.9334.2776.9553.6542 1.8787 1.1238 2.7549.3221.6173.7679 1.1291 1.0826 1.7539.0608.1155.0881.246.0786.3764-.9794-1.1368-1.7151-2.4641-2.1614-3.8992-1.1612-3.3724-1.2176-7.0296-.1611-10.4366.0535-.1388.1147-.2746.1836-.4064z"/><path d="m102.902 52.3485c0-.3763 0-.7188 0-1.0801 0-.1092-.057-.2597.112-.2974.169-.0376.277.0189.307.1318.075.2672.173.1355.304.0564.876-.5419 1.629-.1392 1.648.892v1.528c0 .1807-.041.2786-.247.2786s-.255-.0866-.251-.271c0-.4667 0-.9334 0-1.3963 0-.5759-.203-.8431-.592-.8469-.112-.0074-.224.0104-.328.0521-.103.0418-.197.1063-.273.189-.075.0826-.132.1813-.165.2887-.033.1075-.041.2209-.025.3321v1.3512c0 .1957-.041.3086-.269.3011-.229-.0076-.233-.128-.229-.2936.011-.4027.008-.8092.008-1.2157z"/><path d="m85.303 22.9244c-.0095-.0766.0082-.1541.05-.2188.0419-.0648.1051-.1126.1785-.135.7492-.3764 1.6183-.3764 2.3862-.6775.0271-.0122.0565-.0186.0862-.0186s.0591.0064.0862.0186c.1223.0871.2631.1447.4112.1682.1482.0235.2997.0123.4428-.0327.8279-.0979 1.6145.1882 2.4274.2221.3746 0 .6706.3763 1.0377.5419.5132.256 1.0022.5583 1.4609.9033.1178.0933.253.1619.3977.2019.1446.04.2957.0505.4444.0308.1487-.0196.2921-.069.4215-.1452.1294-.0761.2424-.1776.3322-.2983.3221-.3763.7492-.6511.8766-1.2081.0486-.2145.3745-.3764.6705-.3764-.3746.5345-.7492 1.0953-1.1575 1.5996-.6069.7339-1.2887.8242-2.1165.3425-.8279-.4818-1.4984-1.0049-2.3637-1.2759-1.994-.6737-4.1702-.5455-6.0723.3576z"/><path d="m70.9409 50.9409c.2559-.0181.5098.0567.7155.2107.0899.0603.1798.128.1049.256-.0125.0265-.03.0503-.0516.07-.0217.0197-.047.0348-.0745.0446-.0276.0098-.0567.0141-.0859.0125-.0291-.0016-.0577-.009-.0839-.0217-1.0377-.2861-1.5546.1806-1.3673 1.2194.0094.1442.0566.2833.1368.4033s.1905.2166.3197.28c.1293.0634.2729.0914.4164.0811s.2817-.0585.4007-.1397c.1424-.079.2809-.2295.4121 0 .1311.2296-.0974.2861-.2173.3764-.1759.114-.3765.1841-.5849.2043-.2083.0202-.4185-.01-.6129-.0881s-.3673-.2019-.5043-.3609c-.1371-.159-.2342-.3487-.2833-.5532-.2959-1.1253.2885-1.9985 1.3598-1.9947z"/><path d="m53.5521 50.9408c.2574-.0206.514.0485.7267.1957.0899.0602.2173.1318.1199.2861-.0122.0277-.0304.0523-.0532.072-.0229.0198-.0498.0341-.0789.0421-.0291.0079-.0596.0092-.0892.0038-.0297-.0054-.0577-.0174-.0822-.0351-.1712-.1282-.3841-.187-.5965-.1647s-.4086.1241-.5498.2851c-.138.19-.2238.4131-.2488.647s.0118.4702.1065.6853c.0358.1159.0982.2217.1821.309s.1871.1535.3011.1934c.1141.0399.2359.0524.3556.0364s.234-.0601.3337-.1285c.1498-.0753.3221-.2673.4458 0 .1236.2672-.1199.3086-.266.3763-.1838.1118-.3923.176-.6069.1867s-.4285-.0323-.6224-.1253c-.1939-.0929-.3618-.2328-.4885-.4071-.1268-.1743-.2084-.3776-.2376-.5914-.206-1.0463.3596-1.8705 1.3486-1.8668z"/><path d="m149.475 50.941c.26-.0177.518.0583.727.2145.086.0603.184.1242.105.2522s-.146.1844-.292.1054c-.375-.2033-.779-.2785-1.124.0752-.148.1714-.246.3801-.285.6037-.038.2236-.015.4535.068.6647.024.1303.081.2524.164.3551.084.1027.191.1827.314.2329.122.0501.255.0687.386.0541s.256-.062.365-.1378c.142-.079.284-.2258.419-.0226.135.2033-.086.2861-.21.3764-.176.1213-.38.1964-.593.2187-.213.0222-.428-.0092-.626-.0914s-.372-.2125-.507-.3793-.227-.3647-.267-.576c-.236-1.1253.334-1.9571 1.356-1.9458z"/><path d="m123.493 52.3974c0 .9598.529 1.3098 1.386.8996.128-.064.221-.0791.315.0338s0 .2146-.079.2974c-.166.1341-.362.226-.572.2677-.209.0417-.425.032-.63-.0282s-.392-.1692-.546-.3177-.27-.3322-.338-.5353c-.123-.4051-.113-.8388.026-1.2383.07-.1865.181-.3549.325-.4926.143-.1377.316-.2412.505-.303s.389-.0802.585-.0539c.197.0264.386.0967.552.206.105.0715.266.1242.142.3048-.124.1807-.206.1054-.345.0489-.805-.3199-1.326.0414-1.326.9108z"/><path d="m103.156 41.9346c.472.1405.91.3775 1.285.6962.592.4466 1.244.8054 1.937 1.0652.904.3612 1.845.6224 2.806.779.966.1092 1.918.3538 2.899.3199.779-.0263 1.547-.1769 2.326-.2145.416-.063.835-.1044 1.255-.1242-.717.247-1.467.3816-2.225.399-3.236.2747-6.316-.1958-9.099-1.9985-.439-.2442-.839-.5553-1.184-.9221z"/><path d="m163.796 52.4389v-.6775c0-.1881 0-.3763-.262-.3763-.022.0035-.045.0018-.067-.0049s-.042-.0183-.058-.0339c-.017-.0156-.03-.0348-.038-.0561s-.011-.0442-.009-.067c0-.1016.049-.1882.153-.1844.375.0188.375-.222.375-.4742.007-.1054.023-.2099.049-.3124.003-.0339.013-.0669.029-.0966.017-.0297.04-.0556.067-.0759.027-.0202.058-.0345.092-.0417.033-.0073.067-.0074.1-.0003.146.0188.105.1543.113.2521.009.0901.009.1809 0 .271-.045.3388.063.5044.434.463.135 0 .375-.1017.375.1693s-.251.1995-.375.192c-.333-.0264-.446.0903-.419.429.03.4065 0 .813 0 1.2194 0 .3237.142.4968.475.3764.18-.064.3-.0452.375.128.075.1731-.112.2183-.225.271-.118.0689-.252.1042-.389.102-.136-.0023-.27-.042-.385-.1148-.116-.0729-.21-.1761-.271-.2986-.062-.1224-.089-.2594-.079-.3962-.063-.2108-.056-.4366-.06-.6624z"/><path d="m139.159 50.9373c.219-.0118.436.0476.618.1693.101.0565.229.1242.15.2748-.014.0271-.033.051-.057.07s-.051.0327-.081.0401c-.029.0075-.06.0086-.09.0032-.029-.0053-.058-.017-.083-.0343-.181-.109-.393-.154-.603-.128-.195.0414-.375.1092-.412.3501-.037.2408.127.3199.303.3763.176.0565.427.1468.634.2334.145.0409.274.1284.366.2492.092.1209.142.2686.143.4207.009.1742-.035.3471-.128.4947-.093.1477-.229.2628-.389.3295-.207.0905-.433.1308-.659.1177s-.445-.0791-.641-.1929c-.108-.0527-.262-.1318-.146-.3087.015-.0308.037-.0578.064-.0786s.059-.0349.092-.0411c.034-.0062.068-.0044.101.0053s.063.027.088.0505c.173.1216.38.1837.592.1769.115.0116.231-.0206.325-.0901.093-.0696.158-.1717.18-.2863.06-.2672-.112-.3764-.314-.4742-.124-.0527-.255-.0866-.375-.1318-.592-.207-.809-.4742-.749-.9108.06-.4365.472-.6887 1.071-.6849z"/><path d="m108.165 53.918c-.098.0131-.197.0042-.291-.0261-.094-.0302-.179-.0811-.251-.1489-.072-.0677-.128-.1507-.164-.2428-.035-.0921-.05-.1911-.043-.2898 0-.4667 0-.9334 0-1.4001 0-.2032.056-.4403-.289-.4102-.101 0-.157-.0715-.157-.1769s.049-.1543.131-.1543c.401 0 .375-.2936.405-.5608.01-.1193.03-.2376.059-.3538.034-.1016.132-.1091.225-.1091.094 0 .15.0752.154.1731.009.0901.009.1809 0 .271-.068.4215.075.621.524.5457.124-.0226.289-.0339.3.1731s-.184.2146-.315.1957c-.423-.0639-.543.1167-.509.5194s0 .7829 0 1.1743c0 .2634.12.4065.374.3575.169-.0301.375-.1731.42.1129.045.2861-.21.2447-.375.3049-.064.021-.131.0362-.198.0452z"/><path d="m82.9731 36.4923c-.1208-.0278-.232-.0874-.3222-.1727-.0902-.0854-.1561-.1933-.191-.3128-.2023-.5645-.4645-1.1028-.633-1.6786-.1349-.4479-.2286-.8995-.3259-1.3587-.1044-.6926-.157-1.392-.1574-2.0925.0021-.8683.0799-1.7348.2323-2.5894.0818-.7906.3377-1.553.7492-2.2319.1386-.222.1198-.4742.2547-.7.0306-.0798.0873-.1468.1608-.1899.0736-.0431.1596-.0598.2438-.0472-1.4984 2.6345-1.697 5.4573-1.1688 8.3741.2171 1.0576.6083 2.0714 1.1575 2.9996z"/><path d="m129.127 51.3511c.099-.1334.229-.2408.379-.3129.149-.0721.314-.1068.479-.1011.161.0226.251.0678.244.2447-.008.1769-.045.2672-.255.2822-.667.0565-.824.2409-.828.9033v1.0839c0 .1995.064.4329-.285.4253-.348-.0075-.262-.2145-.266-.4027 0-.6925 0-1.385 0-2.0737 0-.1468-.119-.3764.169-.4366s.303.158.363.3876z"/><path d="m146.258 52.4164c0-.3764 0-.7528 0-1.1291 0-.1242-.045-.2898.15-.3237.194-.0339.277 0 .318.1731s.131.1882.255.0489c.079-.0903.178-.1604.29-.2043.111-.0438.231-.0603.35-.0478.188 0 .278.0753.27.2634-.007.1882-.071.2635-.273.2673-.581 0-.81.2333-.821.8016v1.306c0 .2183-.082.286-.288.286s-.255-.0941-.251-.2747c0-.3764 0-.7828 0-1.1705z"/><path d="m115.687 44.46c.086-.271.356-.3124.55-.3764.326-.0897.646-.1978.959-.3237.573-.1897 1.113-.465 1.604-.8167.603-.4629 1.344-.7339 1.813-1.3812.152-.2938.376-.5437.652-.7264.183-.0903.247-.2409.093-.4215-.043-.0607-.074-.1299-.089-.2032-.016-.0732-.016-.1489-.001-.2221.079.0677.158.1355.24.1994.315.2334.266.4404.022.7264-1.426 1.7021-3.346 2.914-5.491 3.4663-.116.0325-.234.0589-.352.0791z"/><path d="m34.957 36.2025c0-.0451 0-.0903 0-.1355-.0974-1.9834.1948-3.9556.2398-5.939.0224-.9183.0749-1.8592.1273-2.7889-.0009-.1442.0515-.2837.147-.3914.0954-.1077.2272-.1761.37-.1919.2772-.0565.5843-.0753.6443.3312-.2885.0489-.6144-.3199-.8204-.0753-.1461.1769-.0674.5457-.0862.8318-.1848 2.637-.3683 5.2716-.5506 7.9036-.0113.1619-.0487.3086-.0712.4554z"/><path d="m35.6837 23.1201c-.236.0715-.3746 0-.3746-.2672.1236-1.4452-.2098-2.8679-.1948-4.3094 0-1.2984-.2734-2.5893-.1723-3.8953 0-.1656 0-.3312 0-.4968.1611.9484.1686 1.9081.2397 2.8641.1461 1.9195.2548 3.8427.3746 5.7621.031.1182.0737.2329.1274.3425z"/><path d="m44.3107 21.1291c0-.3764.3746-.2823.5469-.4667-.1461-.1581-.3259-.0301-.4233 0-.9028.3764-1.873.5043-2.802.8318-.6641.2404-1.3421.4403-2.0303.5984-.0289.0069-.0593.0039-.0864-.0083-.0271-.0123-.0494-.0332-.0635-.0595.5093-.2153 1.0372-.3828 1.5771-.5005 1.5883-.478 3.1804-.9409 4.7686-1.4114.1662-.0728.3536-.0795.5245-.0188-.6497.3844-1.3214.73-2.0116 1.035z"/><path d="m40.0141 48.6037c-.221-.0189-.2022-.1845-.1948-.335.0301-.7795-.0455-1.5594-.2247-2.3184-.0749-.3463.1348-.7226-.06-1.2194-.0738.4248-.0989.8566-.0749 1.2871 0 .2372.0338.4856-.1648.6775l.2585-4.2604c.2023 2.0549.3933 4.1061.4607 6.1686z"/><path d="m68.4162 52.3975v-1.1291c0-.1769 0-.3199.251-.3162.251.0038.2922.0753.2922.2861v2.3372c0 .2107-.0862.286-.2885.2935-.2023.0076-.2734-.1091-.266-.3048 0-.3764 0-.7791 0-1.1705z"/><path d="m164.426 43.9216c.052-.2973.374-.2973.543-.4554.285-.2597.678-.3989.989-.6398.599-.4629 1.333-.7226 1.79-1.4226.271-.4796.687-.8595 1.188-1.084-.903 1.3899-2.164 2.5084-3.649 3.2368-.26.1778-.553.3019-.861.365z"/><path d="m105.981 52.3974c0-.3764 0-.7527 0-1.1291 0-.1882.022-.3162.258-.3162s.285.0828.281.2898v2.2996c0 .1845-.018.3087-.258.3162s-.285-.1355-.281-.3387c.007-.3726 0-.749 0-1.1216z"/><path d="m162.901 52.4465v1.1291c0 .1693 0 .2822-.236.286-.236.0037-.292-.0866-.288-.2936 0-.7791 0-1.5619 0-2.341 0-.1844.071-.2709.27-.2709.198 0 .258.0903.254.2747z"/><path d="m36.2157 52.3748c-.1011.2182-.0824.3763.206.3763l.4833.0188c-1.1238.4366-2.2776.6775-3.4164 1.0275.8817-.5255 1.7921-1.0004 2.7271-1.4226z"/><path d="m39.2986 55.8186c.2397.064.1536.2635.1573.4102-.0052.5027.0174 1.0053.0674 1.5055.1574-.2145.0974-.4479.1162-.6737 0-.1393-.045-.3124.1723-.35-.0176 1.0958-.0914 2.1899-.221 3.2781-.1162-1.3812-.251-2.77-.2922-4.1701z"/><path d="m43.4079 8.3064c.03.21452-.2135.1656-.3222.37636h.7829c-.7979.32367-1.6407.50057-2.4573.75273l-.0562-.12796z"/><path d="m48.806 6.51477c.0299-.29733.3971-.22582.5094-.48551-.1948-.11291-.4045-.03011-.5993-.06022l2.3749-.75273c-.714.51243-1.48.94767-2.285 1.29846z"/><path d="m43.4754 53.12c.1348-.0339.2884.0339.4533-.0903-.2997-.2108-.7268-.2334-.8804-.621.9103.3764 1.7569.8995 2.6222 1.37-.745-.1722-1.4782-.3922-2.1951-.6587z"/><path d="m45.944 11.0312c.2847.0829.1273.32.1648.4893.0712.335-.1499.7189.1723 1.0124.0467.7434.009 1.4896-.1124 2.2244z"/><path d="m35.7024 49.3112c-.2659.0188-.3333.1468-.206.3764-.6981-.2905-1.3721-.6366-2.0153-1.035.7551.1661 1.4974.3863 2.2213.6586z"/><path d="m39.2799 22.0737c-.3063.2933-.7024.4737-1.1238.5119-.3034 0-.5394.1919-.8279.2484-.4963.1447-1.0058.2392-1.5208.2823 1.1386-.4081 2.2977-.7561 3.4725-1.0426z"/><path d="m43.865 8.68641c.0225-.30486.3147-.21453.4533-.25593.4061-.15893.8322-.26027 1.2661-.30109.2847 0 .3746.11291.3521.37637v1.75764c-.1154-.54292-.1695-1.09718-.161-1.65226-.03-.35002-.1312-.42906-.472-.30862-.4758.17689-.959.25592-1.4385.38389z"/><path d="m78.0995 40.2973c.1386 0 .2697-.0414.3746.1393.3719.568.8518 1.0566 1.4122 1.4377.0662.0368.1207.0916.1572.1582.0364.0666.0534.1423.0489.2181-.7759-.5253-1.451-1.187-1.9929-1.9533z"/><path d="m168.94 40.3161c-.024-.0545-.035-.1139-.032-.1735.003-.0595.021-.1175.051-.169.413-.5069.71-1.0994.869-1.735.021-.0803.066-.1522.129-.2061.063-.0538.14-.087.223-.095-.26.8644-.681 1.6715-1.24 2.3786z"/><path d="m68.6933 50.4593c-.0741 0-.1465-.0221-.2081-.0635-.0616-.0413-.1096-.1001-.138-.1689-.0283-.0687-.0357-.1444-.0213-.2174.0145-.073.0502-.1401.1025-.1927.0524-.0527.1192-.0885.1919-.103.0726-.0145.1479-.0071.2164.0214.0684.0285.1269.0767.1681.1386s.0631.1347.0631.2091c-.0215.0797-.0686.1501-.134.2003-.0653.0502-.1452.0774-.2275.0774-.0822 0-.1621-.0272-.2275-.0774-.0653-.0502-.1124-.1206-.134-.2003-.0262-.2258.1312-.3425.3484-.3764z"/><path d="m39.1001 52.3823c.1873 0 .1985.1355.1985.2823 0 .9108-.0487 1.8216.0562 2.7286 0 .0189-.0337.0452-.0562.0678-.1223-1.0218-.1886-2.0496-.1985-3.0787z"/><path d="m162.283 50.0753c.03-.2333.161-.3763.375-.3763.047-.0004.094.0095.138.0288.043.0194.082.0478.113.0834.032.0357.055.0777.07.1232.014.0456.018.0936.012.1409.001.045-.007.0897-.024.1312-.017.0416-.043.079-.075.1099-.033.0309-.072.0546-.114.0695-.042.0148-.087.0206-.132.0169-.236.0339-.325-.128-.363-.3275z"/><path d="m37.508 50.749c.3147-.1054.5694.1166.7754.2484.206.1317 0 .5683-.1274.5871-.4457.0677-.7491.4592-1.2286.429.3746-.207.7155-.4252 1.0826-.6134.2734-.1393.2697-.2334 0-.3764-.1724-.0677-.3372-.1769-.502-.2747z"/><path d="m49.0944 8.85595c.206-.05645.4944.16936.6143-.18066.423.15612.8168.38259 1.165.66993-.6086-.09959-1.2051-.26359-1.7793-.48927z"/><path d="m106.228 49.7065c.214.0377.375.1318.375.3764s-.143.3425-.375.3425c-.044.0055-.089.0013-.132-.0125-.042-.0137-.081-.0366-.114-.0671s-.059-.0677-.076-.1092c-.017-.0416-.024-.0863-.022-.1311-.007-.0987.026-.1958.09-.2704.065-.0747.156-.1208.254-.1286z"/><path d="m36.9424 52.7663c.0374-.3124.3259-.1242.4607-.2296.4196-.3274.9665-.2672 1.4273-.4742.0328.0424.0617.0877.0861.1355-.6444.2344-1.3039.4243-1.9741.5683z"/><path d="m39.4746 26.3681c-.3221.0602-.5356-.192-.8054-.2785-.2697-.0866-.3745-.2823-.6405-.2635s-.1798-.1844-.1911-.3237c.5739.2313 1.1225.5213 1.637.8657z"/><path d="m44.498 49.2434-.1835-.1881 1.2474-.4103c-.2917.2959-.6604.5033-1.0639.5984z"/><path d="m40.1789 52.2056c0-.0602-.2023-.0979-.0262-.1731.0722-.0209.1488-.0209.221 0 .4457.1055.8676.2945 1.2436.557z"/><path d="m86.9625 44.8137c.8728 0 1.7457-.0264 2.6222 0 .2547 0 .5095-.2334.7492 0-1.0377.1266-2.0849.1556-3.1279.0865-.085-.0166-.167-.0458-.2435-.0865z"/><path d="m44.6592 7.06447c.1198 0 .2659-.05268.3371.05646.0712.10915.3446.06774.3072.25968-.0375.19195-.1873.19948-.3484.23711-.2922.06399-.487.39895-.8353.32368l.914-.5495c-.03-.21829-.2885-.17312-.3746-.32743z"/><path d="m46.2961 1.46411c-.1536-.07527-.045-.27851-.1798-.37636-.0346-.375754.0273-.75414.1798-1.0989805z"/><path d="m42.1605 5.52123v.25593l-1.1875-.57208c.411.03602.8127.14298 1.1875.31615z"/><path d="m72.9001 37.0342c-.1954-.1629-.3464-.3731-.4388-.6108-.0924-.2376-.1231-.495-.0893-.7479.2242.4325.4012.888.5281 1.3587z"/><path d="m41.6511 52.5857c.2166-.0393.4394-.0275.6507.0346.2113.062.4053.1726.5668.3229-.4211-.0585-.8313-.1789-1.2175-.3575z"/><path d="m49.6713 8.66004c-.3746-.11668-.8428-.06776-1.0376-.53821.3734.11979.7241.30173 1.0376.53821z"/><path d="m47.9069 8.49837c.2089-.02779.4213-.01097.6234.04934.202.06032.3891.16278.5491.30069-.4063-.05601-.8017-.17405-1.1725-.35003z"/><path d="m40.1677 50.222c-.1536-.0225-.1761-.1317-.1686-.2559-.0263-.3631-.0112-.728.045-1.0877z"/><path d="m46.1051 1.85913-.1461 1.66352c-.0284-.55863.0207-1.11852.1461-1.66352z"/><path d="m45.9215 4.38843c-.0012.5257-.0438 1.05048-.1274 1.56943-.0328-.52658.0101-1.05515.1274-1.56943z"/><path d="m48.2852 7.94122c-.1793.00671-.3573-.03431-.5158-.1189-.1586-.0846-.292-.20977-.387-.36285.3266.10654.6321.26957.9028.48175z"/><path d="m46.446 3.61696c-.1066-.43809-.137-.89137-.0899-1.33986.0973.43947.1276.89124.0899 1.33986z"/><path d="m36.2081 50.0564c.1433-.0186.2888.0075.4168.0749.128.0673.2323.1725.2987.3014-.269-.0552-.517-.1857-.7155-.3763z"/><path d="m135.627 38.6753c.374.0715.4.3462.374.6511-.172-.1857-.3-.4083-.374-.6511z"/><path d="m35.4927 49.6877c.1426-.0125.2857.0163.4125.083s.2319.1685.303.2933c-.2663-.0628-.5124-.1923-.7155-.3763z"/><path d="m36.9274 52.0061c-.071.1248-.1761.2266-.3029.2933s-.27.0955-.4126.0831c.2031-.1841.4492-.3136.7155-.3764z"/><path d="m42.8647 52.9394c.1873.0452.4533-.158.5507.1732-.1971.0022-.3899-.0584-.5507-.1732z"/><path d="m170.18 37.8998c.03-.1731-.158-.4291.179-.4931.007.1817-.058.3586-.179.4931z"/><path d="m44.1197 7.9375c-.0225.31991-.2735.15808-.4271.20324.1177-.11094.2671-.18203.4271-.20324z"/><path d="m48.6411 8.12579c-.1461 0-.3746.09408-.3746-.19195.0727.0021.144.02043.2088.05362.0648.0332.1214.08044.1658.13833z"/><path d="m44.2996 6.87982c.1461 0 .3521-.07904.3746.18818-.1441-.01301-.2779-.08022-.3746-.18818z"/><path d="m48.0905 6.88752c.0262-.25217.2172-.18442.3746-.19194-.0467.0554-.1038.10091-.1681.13386-.0643.03296-.1345.0527-.2065.05808z"/><path d="m36.9199 50.4215c.1424-.0263.2772-.0338.2885.1657-.0575-.0035-.1135-.0202-.1635-.049-.0501-.0287-.0928-.0686-.125-.1167z"/><path d="m45.9178 10.478c.1236.0904.1311.1844 0 .2823-.022-.0437-.0335-.0921-.0335-.1411 0-.0491.0115-.0974.0335-.1412z"/><path d="m43.9698 21.3135c.0225-.1957.1611-.1732.296-.1619-.032.0497-.0758.0905-.1275.1188s-.1096.0431-.1685.0431z"/><path d="m43.5952 21.5017c.03-.1732.1087-.256.2847-.1506-.0729.0841-.1744.1377-.2847.1506z"/><path d="m86.4718 44.7987c.1049-.1167.1948-.1054.281.0225-.0931.0295-.1938.0214-.281-.0225z"/><path d="m37.2271 50.587c.1236 0 .2509-.0188.2809.1543-.1099-.0132-.2105-.0685-.2809-.1543z"/><path d="m48.4651 6.6993c0-.21829.1723-.18442.3147-.17312-.0784.09675-.1914.15888-.3147.17312z"/><path d="m51.3082 5.19751.0295.00734-.0295.00367z"/><path d="m43.5953 8.21238c-.03.09409-.1011.10537-.1836.09784.0172-.03303.0439-.06006.0767-.07753.0328-.01746.07-.02455.1069-.02031z"/><path d="m43.6852 8.14453-.1049.07528z"/><path d="m47.9106 6.97402.1424-.08657z"/><path d="m44.5842 29.2698c.1311.0188.2885-.0489.4009.1317-.1836.079-.296 0-.4009-.1317z"/></g></svg>