<svg fill="none" height="34" viewBox="0 0 196 34" width="196" xmlns="http://www.w3.org/2000/svg"><path d="m25.9194 15.6482c-.0823-1.2289-.4114-2.4578-1.0697-3.5229l-5.5953-9.7494c-.4114-.73735-.7405-1.556623-.9051-2.3759l-.2469.409639c-1.3988 2.375901-1.3988 5.407231 0 7.783131l4.5256 7.78313c1.3989 2.3759 1.3989 5.4072 0 7.7831l-.2468.4097c-.1646-.8193-.4937-1.6386-.9051-2.3759l-4.1142-7.1277-2.6331-4.588c-.4114-.73734-.7406-1.55662-.9051-2.37589l-.2469.40963c-1.3988 2.37586-1.3988 5.32526 0 7.78316l4.5256 7.7831c1.3989 2.3759 1.3989 5.4072 0 7.7831l-.2468.4097c-.1646-.8193-.4937-1.6386-.9051-2.3759l-5.6776-9.7494c-.7406-1.3109-1.0697-2.7856-1.0697-4.2603-6.00673 1.5567-10.2032 4.9157-10.2032 8.7663 0 5.4072 8.06381 9.7494 18.0202 9.7494 9.9563 0 18.0201-4.3422 18.0201-9.7494.0823-3.6867-4.0319-7.0458-10.1209-8.6024zm17.0327 16.6313c.0823-1.3928.2469-2.294.6583-3.4409 1.8925.9012 4.3611 1.3108 6.1713 1.3108 3.1268 0 4.937-.9831 4.937-3.0313 0-1.9663-1.3165-2.8675-4.4433-4.2603l-1.728-.6554c-3.209-1.3928-5.3484-3.1952-5.3484-6.7181 0-3.8506 2.7154-6.3084 8.1461-6.3084 2.2217 0 4.2787.32771 6.1713.9831-.0823 1.3109-.3292 2.3759-.6583 3.3591-1.8102-.6554-4.0319-.9832-5.5953-.9832-2.9622 0-4.2788 1.147-4.2788 2.9494 0 1.7205 1.3166 2.7856 3.7028 3.7687l1.8103.7374c4.2787 1.8024 6.089 3.7686 6.089 7.0457 0 3.8506-2.9623 6.5543-8.7221 6.5543-2.7154 0-5.0193-.4097-6.9119-1.3109zm33.8187-16.1397v16.8771h-3.4559l-.1646-2.0482c-.9874 1.4747-2.3862 2.4578-4.7725 2.4578-4.4433 0-7.4878-3.2771-7.4878-8.9301 0-5.8988 3.2091-9.3398 9.4626-9.3398 2.4686.082 4.5257.3277 6.4182.9832zm-3.7028 13.0265v-10.5687c-.7405-.1639-1.6457-.1639-2.7154-.1639-3.8673 0-5.6775 2.3759-5.6775 6.1446 0 3.441 1.3988 5.8988 4.6901 5.8988 1.5634-.0819 2.7154-.5735 3.7028-1.3108zm22.7926-7.4555v11.3061h-3.7027v-10.6506c0-2.7036-.9052-3.9326-4.6079-3.9326-.9052 0-1.8926.082-2.9623.2458v14.3374h-3.7027v-16.8771c2.3862-.5735 5.0193-.9832 6.7472-.9832 6.2536.082 8.2284 2.4579 8.2284 6.5542zm10.3674 8.6025c1.07 0 2.14-.1639 2.88-.4916-.082.9831-.247 2.1301-.411 3.1132-.988.4097-2.139.5735-3.127.5735-3.62 0-5.9243-1.6385-5.9243-5.7349v-17.77832c1.1523-.40964 2.5503-.57349 3.7023-.57349v6.39031h5.925c-.082 1.147-.165 2.2121-.329 3.1952h-5.596v8.2747c0 2.1301 1.07 3.0314 2.88 3.0314zm19.995-14.1735v16.8771h-3.456l-.164-2.0482c-.988 1.4747-2.386 2.4578-4.773 2.4578-4.443 0-7.487-3.2771-7.487-8.9301 0-5.8988 3.209-9.3398 9.462-9.3398 2.469.082 4.444.3277 6.418.9832zm-3.785 13.0265v-10.5687c-.74-.1639-1.645-.1639-2.715-.1639-3.867 0-5.678 2.3759-5.678 6.1446 0 3.441 1.399 5.8988 4.691 5.8988 1.563-.0819 2.797-.5735 3.702-1.3108zm22.875-7.4555v11.3061h-3.785v-10.6506c0-2.7036-.905-3.9326-4.608-3.9326-.905 0-1.892.082-2.962.2458v14.3374h-3.703v-16.8771c2.386-.5735 5.02-.9832 6.748-.9832 6.253.082 8.31 2.4579 8.31 6.5542zm18.843-12.28911v23.59521h-3.456l-.164-2.1302c-.988 1.5567-2.387 2.5398-4.855 2.5398-4.443 0-7.488-3.2771-7.488-8.9301 0-5.8988 3.209-9.3398 9.463-9.3398.987 0 1.892.082 2.797.2458v-5.57107c1.152-.32772 2.469-.40964 3.703-.40964zm-3.703 19.74461v-10.4049c-.987-.1638-1.974-.3277-2.962-.3277-3.703 0-5.431 2.294-5.431 6.1446 0 3.441 1.399 5.8988 4.691 5.8988 1.481-.0819 2.715-.5735 3.702-1.3108zm22.464-3.3591h-11.931c.493 3.0314 2.221 4.4241 5.595 4.4241 2.057 0 4.114-.4096 5.924-1.3108-.164.9831-.329 2.294-.576 3.359-1.727.7374-3.455 1.0651-5.513 1.0651-6.253 0-9.215-3.441-9.215-9.1759 0-4.9976 2.304-9.0121 8.228-9.0121 5.348 0 7.652 3.441 7.652 7.7012 0 1.147 0 1.9663-.164 2.9494zm-11.931-3.1132h8.393c0-2.7856-1.481-4.4241-4.032-4.4241-2.716.0819-4.114 1.5566-4.361 4.4241zm25.014-7.2916c0 1.147-.165 2.4578-.329 3.1952-.905-.0819-1.728-.1639-2.798-.1639-.905 0-1.81.082-2.715.1639v14.4193h-3.703v-16.8771c1.563-.5735 4.279-.9832 6.336-.9832 1.07.082 2.386.082 3.209.2458z" fill="#131a1f" opacity=".9"/></svg>