<svg xmlns="http://www.w3.org/2000/svg" width="221" height="199.3" viewBox="0 0 221 199.3"><defs><style>.a{fill:#fe5c2b;}</style></defs><path class="a" d="M788.079,438.852,707.393,299.1a29.5,29.5,0,0,0-45.03-7.4,30.454,30.454,0,0,0-6.561,7.9L575.116,439.359a29.5,29.5,0,0,0,25.548,44.25h88a29.5,29.5,0,0,0,0-59H684.4c-1.372,0-2.372-.072-2.737-.072a17.561,17.561,0,0,1-17.379-17.331,17.226,17.226,0,0,1,17.069-17.07c11.31,0,17,11.309,17.812,12.714L737.3,468.9a29.489,29.489,0,0,0,40.851,10.47C791.958,471,796.153,452.837,788.079,438.852Z" transform="translate(-571.164 -284.35)"/></svg>