<svg fill="none" height="86" viewBox="0 0 196 86" width="196" xmlns="http://www.w3.org/2000/svg"><g fill="#fff" opacity=".9"><path d="m110.905 42.1493h-9.253v10.3933c0 4.7674 1.663 8.09 4.565 10.4007l-.002-1.4554c-1.746-2.1608-2.615-4.8963-2.436-7.6656v-2.7214h3.504v11.8678c0 4.3271-1.217 9.8387-8.9669 13.2915-7.3642-3.2813-8.8313-8.4214-8.9587-12.6384 3.4735-2.3255 5.4948-5.8238 5.4948-11.0792v-1.4417h5.6788v-2.1413h-5.6788v-.001h-2.1274v.001h-5.5139v12.4733c0 .4361.0117.8595.0351 1.2754v.0011c.7652-.492 1.4706-1.071 2.1019-1.7253v-9.8832h3.3769v2.7214c0 3.6063-.6678 8.0752-7.1264 10.9533-6.4587-2.8781-7.1275-7.347-7.1275-10.9533v-9.5497h14.2539v3.655h2.1274v-5.7783h-18.5076v10.3933c0 6.9363 3.5202 10.8104 9.2538 12.9729.6476-.2435 1.2665-.5106 1.8567-.8013.9905 6.3022 4.9427 10.0525 10.861 12.2859 5.8999-2.225 9.8459-5.9604 10.8519-12.2277.554.2678 1.133.5155 1.737.7431 5.733-2.1625 9.254-6.0366 9.254-12.9729v-10.3933zm7.127 11.673c0 3.6052-.668 8.0752-7.127 10.9533-.556-.2465-1.098-.5221-1.625-.8256.096-.8357.143-1.6761.141-2.5172v-12.4732h-5.642v-4.687h14.253z"/><path d="m80.549 36.5004v-.4149c.2397-.0956.465-.2235.6699-.38.0591-.049.1005-.1159.1178-.1906.0724-.3237.1066-.6548.1019-.9865.0329-.7494.0499-1.195.0499-1.34v-4.4372c0-.7431-.017-1.4745-.0499-2.189.0159-.3139-.0255-.628-.122-.9272-.0761-.1049-.1859-.1807-.3111-.2149-.4035-.0682-.8128-.0966-1.2219-.0847v-.5218c1.3981.0339 2.2601.0508 2.5945.0508.3663 0 1.1894-.0169 2.4693-.0508v.5218c-.4165-.0119-.8332.0164-1.2442.0847-.1216.0297-.2293.1004-.3047.2001-.0971.2538-.1415.5245-.1305.796-.0085.11-.0255.887-.0499 2.336v5.5423c0 .579.0166 1.0497.0499 1.412.655.0339.7271.0498 1.3726.0498 1.1682.0474 2.3378-.0525 3.4809-.2975.0826-.1831.1493-.3729.1996-.5673l.3461-1.3634h.5679c-.1263.8161-.2502 1.7741-.3715 2.8738-.185.0367-.3717.0639-.5595.0816-.2983.0116-.759.0169-1.379.0169l-4.5966-.0498c-.5499 0-1.1115.017-1.6795.0498"/><path d="m95.2667 35.9788v.5218c-1.2176-.0339-2.0159-.0497-2.3991-.0497l-2.6423.0497v-.5218c.4086.0116.8174-.0189 1.2197-.0911.1206-.0311.2285-.0988.309-.1937.0936-.2539.1373-.5234.1284-.7938.0064-.1154.0223-.8969.0478-2.3446v-3.8084c0-.7431-.0159-1.472-.0478-2.1869.0144-.3136-.0277-.6273-.1242-.9262-.0771-.1047-.1875-.1804-.3132-.2148-.4028-.0677-.8113-.0961-1.2197-.0847v-.5208c1.087.0339 1.931.0498 2.5234.0498.5711 0 1.4087-.0159 2.518-.0498v.5208c-.4112-.0117-.8225.0167-1.2282.0846-.121.0293-.2275.1006-.3004.2011-.0962.2537-.1399.5241-.1285.795-.0085.1079-.0223.8849-.0499 2.3318v3.8085c0 .7504.0106 1.4787.0276 2.1879-.0179.3138.0243.6281.1242.9262.0775.1055.1881.1823.3142.218.4095.0727.8253.1032 1.241.091zm-1.6571-9.5635c-.0085.1079-.0223.8849-.0499 2.3318v3.8085"/><path d="m97.1698 36.5004v-.5208c.4009.0221.8027-.0245 1.1879-.1376.0382-.0126.0733-.0329.1033-.0597.03-.0267.0541-.0594.0708-.0959.0856-.2791.1268-.5698.122-.8616.034-.7261.0499-1.3485.0499-1.8735v-6.6929c.008-.1196-.0039-.2398-.035-.3556-.0793-.1375-.1859-.2574-.3132-.3525-.1025-.0871-.2263-.1455-.3588-.1694-.2983-.0355-.5987-.0507-.8991-.0455v-.5218c.9904.0339 1.6168.0508 1.8715.0508.4353 0 .861-.0169 1.2919-.0508.481.6086.834 1.0567 1.06 1.3443l1.755 2.0926 2.563 2.9892c.82.9526 1.478 1.702 1.976 2.2482.315.361.58.6443.796.85v-5.9911c0-.5377-.016-1.1675-.05-1.883.003-.2861-.035-.5711-.112-.8468-.04-.0736-.104-.1309-.182-.162-.388-.0994-.788-.1397-1.188-.1196v-.5218c.68.0339 1.366.0508 2.067.0508.655 0 1.251-.0169 1.788-.0508v.5218c-.399-.0205-.799.0199-1.186.1196-.039.0156-.075.0388-.105.0682-.03.0295-.053.0646-.069.1033-.089.2799-.129.5725-.121.8659-.033.7176-.051 1.3411-.051 1.8661v3.9534c0 .8024.017 2.2973.051 4.4849h-.854l-.214-.2276c-.033-.0064-.105-.0942-.134-.1186-.116-.1036-.226-.2146-.328-.3323-.475-.525-.824-.9213-1.049-1.1887l-1.109-1.3538-6.1001-7.0443v6.3795c0 .5441.0149 1.1835.0541 1.9233-.0041.2864.0327.5719.1094.8479.0172.0387.0423.0734.0738.1018.0314.0284.0685.05.1088.0633.387.1082.789.1528 1.19.1323v.5208c-.504-.0328-1.0616-.0498-1.6646-.0498-.6656 0-1.3896.017-2.1666.0498"/><path d="m117.263 35.9788v.5208c-1.216-.0328-2.013-.0498-2.4-.0498l-2.641.0498v-.5208c.411.0116.821-.0189 1.225-.091.12-.0314.226-.0991.305-.1937.094-.2537.137-.5235.126-.7939.011-.1154.026-.8976.05-2.3446v-3.8084c0-.7441-.016-1.4731-.05-2.1868.016-.3136-.025-.6274-.122-.9262-.075-.1054-.185-.1814-.311-.2149-.404-.0677-.813-.096-1.223-.0847v-.5208c1.088.0329 1.932.0498 2.526.0498.57 0 1.408-.0166 2.515-.0498v.5208c-.411-.0116-.821.0167-1.226.0847-.121.0289-.228.0998-.302.2001-.096.2539-.14.5247-.127.7959-.008.108-.024.8853-.048 2.3319v3.8084c0 .7505.006 1.4788.025 2.1879-.018.3138.025.6281.124.9262.078.1058.189.1826.316.2181.408.0727.823.1032 1.238.091"/><path d="m129.548 35.0388-.336.7674c-.63.3081-1.293.5432-1.976.7007-.691.1485-1.396.2206-2.102.2149-.84.0067-1.676-.1002-2.487-.3176-.713-.1917-1.389-.5004-2.001-.9134-1.053-.7016-1.838-1.7363-2.229-2.9374-.196-.6134-.292-1.2541-.286-1.8978-.018-.817.145-1.628.477-2.3752.332-.7471.825-1.4122 1.444-1.9477 1.466-1.2102 3.336-1.8235 5.237-1.7169.486-.0016.972.0271 1.455.0858.548.0784 1.091.1876 1.626.327.643.1609 1.032.2541 1.178.2837-.122.2839-.216.5783-.283.8796-.099.5343-.162 1.0747-.188 1.6174h-.519l-.008-.9611c-.03-.267-.133-.5205-.299-.7323-.166-.2117-.387-.3734-.64-.467-.795-.2988-1.643-.4314-2.492-.3895-.705-.0059-1.407.0936-2.082.2953-.563.1808-1.079.4842-1.51.8881-.457.4374-.821.9627-1.07 1.5443-.298.7477-.441 1.5477-.42 2.352-.032.7388.093 1.476.367 2.163.275.6869.692 1.308 1.225 1.8222 1.15 1.0376 2.665 1.5791 4.214 1.5062.741.0065 1.48-.0966 2.191-.3059.485-.1528.945-.3749 1.366-.6594z"/><path d="m78.4176 35.0388-.3354.7674c-.6293.3078-1.2918.5429-1.9746.7007-.6913.1485-1.3969.2206-2.104.2149-.8394.0067-1.6757-.1001-2.4863-.3175-.7133-.1914-1.3896-.5001-2.001-.9135-.5388-.3634-1.0131-.8138-1.4035-1.3327-.3585-.4879-.6369-1.0295-.8248-1.6046-.1967-.6133-.2935-1.2541-.2866-1.8979-.0182-.8168.1443-1.6275.4758-2.3747.3316-.7471.824-1.4122 1.4424-1.9482 1.4674-1.2093 3.3382-1.8223 5.239-1.7168.4864-.0017.9725.027 1.4554.0857.5478.0784 1.0908.1876 1.6263.3271.6402.1609 1.034.254 1.1773.2836-.1203.2842-.2148.5786-.2824.8796-.0993.5342-.1614 1.0747-.1857 1.6174h-.5191l-.0096-.9611c-.0296-.2671-.1332-.5207-.2991-.7325s-.3877-.3734-.6404-.4668c-.7953-.299-1.6437-.4315-2.4926-.3895-.7048-.0059-1.4066.0936-2.0818.2953-.5636.1808-1.0799.4842-1.5117.8881-.4563.4381-.8195.9633-1.0679 1.5443-.299.7474-.442 1.5477-.4204 2.352-.0323.7388.0929 1.476.3673 2.163.2745.6869.6921 1.308 1.2251 1.8222 1.1494 1.0379 2.6644 1.5795 4.2134 1.5063.7415.0067 1.4799-.0964 2.1911-.306.485-.1528.9452-.3749 1.3663-.6594z"/><path d="m71.9366 9.81537v-.54724c.6019.04234 1.1776.06351 1.7271.06351.5584 0 1.0914-.02117 1.602-.06351.5074 1.09547.9706 2.05237 1.3896 2.87067l3.2718 6.3869 2.9554-5.8492c.8036-1.592 1.3405-2.72807 1.6105-3.40837.6061.04234 1.1192.06351 1.5392.06351.3833 0 1.0032-.02117 1.8652-.06351v.54724c-.4172-.01212-.8346.01624-1.2463.08468-.1208.02964-.2281.09899-.3046.19685-.1028.2489-.1471.5179-.1295.7865-.0064.109-.0191.8806-.0425 2.3149v3.7756c0 .7442.0142 1.4671.0425 2.1689-.0166.3105.0251.6214.1231.9166.0784.106.1902.1828.3174.2181.409.0732.8246.1033 1.2399.09v.526c-1.1581-.0456-1.9745-.0636-2.4501-.0636-.3843 0-1.2325.018-2.5488.0636v-.526c.4188.0127.8378-.0175 1.2505-.09.1194-.0273.2255-.095.3004-.1916.1023-.2509.1462-.5216.1285-.7918.0074-.1153.0212-.887.0424-2.3244v-5.9995l-2.9756 5.9106c-.4649.9198-.8291 1.665-1.0955 2.2249-.1901.4065-.4774 1.0575-.862 1.9529h-.3355c-.057-.1712-.1262-.3381-.207-.4996l-.5881-1.1971-4.1211-8.1155v5.7233c0 .7431.0202 1.4681.0627 2.171-.0177.311.0249.6226.1252.9176.078.1071.1904.1844.3185.2191.4108.0733.8281.1034 1.2452.09v.526l-2.0817-.0635-2.1688.0635v-.526c.4153.0129.8308-.0173 1.2399-.09.1212-.0292.2298-.0963.31-.1916.0955-.2519.1396-.5204.1295-.7896.0063-.1143.0212-.887.0414-2.3223v-3.7755c0-.7368-.0138-1.4594-.0414-2.1678.0156-.3106-.0265-.6214-.1242-.9167-.0789-.1046-.1907-.17986-.3174-.2138-.4089-.06828-.8235-.09664-1.2378-.08468"/><path d="m90.2786 20.8398c.4873 0 1.2134.0148 2.1879.054v-.5208c-.3755.0064-.751-.0194-1.1221-.0773-.1107-.0172-.2131-.0687-.293-.1471-.0465-.0512-.0715-.1183-.07-.1873.0331-.2895.1183-.5706.2516-.8299l.931-2.1085h4.999l1.069 2.5139c.0686.1467.1086.3052.1178.4668.0013.035-.0046.0698-.0174.1024s-.0321.0623-.0569.0871c-.0794.0658-.1758.108-.2781.1217-.3893.041-.7806.0604-1.172.0582v.5208l2.7771-.054c.3567 0 .9855.0148 1.8835.054v-.5208c-.297.0153-.594-.0183-.88-.0995-.155-.085-.28-.2155-.358-.3736-.198-.3451-.5953-1.1831-1.1933-2.514l-3.6954-8.22336h-.5446c-.7738 1.75816-1.276 2.88866-1.5148 3.39356l-2.1604 4.6214c-.6475 1.3379-1.0226 2.1074-1.1252 2.3086-.1022.2392-.2408.4612-.4109.6583-.0886.0809-.1946.1407-.3099.1746-.2825.0419-.568.06-.8536.054v.5208c.6667-.0392 1.2792-.054 1.8387-.054zm4.3812-9.4333 2.1582 4.9263h-4.3578z"/><path d="m108.659 11.0157c.216-.2804.389-.5915.513-.923.001-.0487-.015-.09644-.044-.13555-.029-.0391-.07-.06738-.118-.08035-.42-.06796-.845-.09666-1.27-.08574v-.52289c1.064.03493 1.691.05081 2.283.05081.571 0 .884-.01588 2.015-.05081v.52289c-.371-.01267-.742.01609-1.107.08574-.158.03736-.308.10496-.44.1991-.255.2376-.482.504-.676.7938l-2.525 3.6074c-.307.4453-.582.9118-.822 1.3961-.062.1565-.094.323-.095.4911v.6224c0 .7409.014 1.4639.05 2.1625-.018.3108.023.6222.121.9177.079.1044.189.1806.315.217.402.071.81.1008 1.218.0889v.5219c-.935-.0402-1.744-.0551-2.424-.0551-.654 0-1.52.0149-2.592.0551v-.5219c.41.0113.82-.0185 1.223-.0889.118-.029.223-.0968.297-.1926.103-.2492.149-.5176.136-.7865.007-.1143.023-.887.05-2.3181v-.9505c-.122-.2445-.239-.464-.351-.6584-.081-.1366-.373-.6048-.876-1.4046l-2.195-3.1035c-.167-.2888-.37-.5555-.603-.7939-.126-.09448-.27-.16223-.423-.19904-.3572-.07063-.7217-.09941-1.0858-.08574v-.52289c1.1308.03493 1.4708.05081 2.0398.05081.595 0 2.114-.01588 3.18-.05081v.52289c-.456-.00867-.912.02-1.363.08574-.049.01324-.093.041-.125.07957-.033.03857-.053.08617-.058.13637.096.3286.243.6401.436.923l2.572 4.1429z"/><path d="m113.829 11.9575c.324-.7103.867-1.2993 1.549-1.6819.734-.39911 1.561-.59947 2.397-.58111.599-.00462 1.194.08834 1.762.27521.479.1501.928.3818 1.327.6848.34.2713.636.5921.879.9516.254.3745.453.7824.594 1.212.246.7762.368 1.5864.361 2.4007.018.9242-.154 1.8424-.505 2.698-.307.7452-.839 1.3768-1.522 1.8079-.724.4381-1.56.6599-2.407.6393-.619.0074-1.235-.0981-1.816-.3111-.56-.2205-1.068-.5559-1.489-.9845-.463-.474-.827-1.034-1.074-1.648-.184-.4479-.323-.9132-.415-1.3887-.107-.5201-.162-1.0495-.163-1.5804-.015-.8597.164-1.7117.522-2.4938zm-1.903 5.4957c.258.7488.678 1.4315 1.231 1.9995.557.5579 1.233.9828 1.978 1.2427.812.2762 1.664.4161 2.521.4138 1.819.0622 3.588-.5984 4.918-1.8364.634-.5824 1.135-1.2927 1.472-2.0836.336-.7908.5-1.6441.48-2.5029.004-.5451-.061-1.0886-.195-1.6173-.108-.4592-.284-.9-.521-1.3083-.307-.5232-.704-.9885-1.173-1.375-.564-.45445-1.211-.79558-1.905-1.00447-.836-.26317-1.708-.39145-2.584-.38-.931-.01655-1.857.13367-2.735.44351-.796.29267-1.526.74106-2.145 1.31886-.601.5425-1.065 1.2179-1.355 1.972-.55 1.5256-.545 3.1951.013 4.7177"/></g></svg>