<svg fill="none" height="29" viewBox="0 0 186 29" width="186" xmlns="http://www.w3.org/2000/svg" xmlns:xlink="http://www.w3.org/1999/xlink"><clipPath id="a"><path d="m0 0h186v28.644h-186z"/></clipPath><g clip-path="url(#a)" fill="#fff" opacity=".9"><path d="m34.5402 25.5936-16.6098-7.998v-17.5956zm1.3206 3.0504-17.9304-7.5702v7.5702z"/><path d="m1.3206 25.5936 16.6098-25.5936v17.5956z"/><path d="m0 28.644h17.9304v-7.5702z"/><path d="m37.3116 23.3988c.651 0 1.1904.5208 1.1904 1.1718s-.5208 1.1904-1.1718 1.1904-1.1904-.5208-1.1904-1.1718c0-.6696.5208-1.1904 1.1718-1.1904zm0 2.1762c.558 0 1.0044-.4464 1.0044-1.0044s-.4464-1.0044-1.0044-1.0044-1.0044.4464-1.0044 1.0044.4464 1.0044 1.0044 1.0044zm-.2604-.3162h-.1674v-1.3578h.5208c.3162 0 .4278.1302.4278.372.0186.2046-.1488.372-.3348.3906l.4092.5952h-.186l-.4092-.5952h-.2418zm0-.7626h.2232c.186 0 .3906-.0186.3906-.2418 0-.1674-.1674-.2232-.2976-.2232h-.2976v.465z"/><path d="m49.8666 25.5936h8.0538c8.2956 0 13.2246-4.2966 13.2246-11.4204 0-7.12378-4.929-11.40178-13.2246-11.40178h-8.0538zm5.0964-18.86038h2.9574c5.3754 0 8.0724 2.6598 8.0724 7.43998 0 4.7802-2.697 7.44-8.0724 7.44h-2.9574z"/><path d="m88.4802 15.6984h9.6906v-3.9618h-9.6906v-5.00338h10.9554v-3.9618h-16.0704v22.82218h16.4238v-3.9618h-11.3088z"/><path d="m128.842 21.6318h-9.839v-18.86038h-5.115v22.82218h14.954z"/><path d="m156.37 2.77142h-20.478v3.9618h7.663v18.86038h5.133v-18.86038h7.682z"/><path d="m186 25.5936h-5.338l-2.232-5.7102h-9.282l-2.232 5.7102h-4.984l9.541-22.91519h5.153zm-9.021-9.5418-3.181-8.10959-3.199 8.10959z"/></g></svg>